<svg id="Layer_1" data-name="Layer 1" xmlns="http://www.w3.org/2000/svg" viewBox="0 0 486.59 486.6"><defs><style>.cls-1{fill:#c1a479;fill-rule:evenodd;}</style></defs><path class="cls-1" d="M982.51,1559.08,813.23,1412.81h0Zm-19.75,18.32-264.41,152,18.32,19.77Zm0,74.32h0l-.27-.54-.26-.56-.27-.54-.26-.56h0l-.25-.54-.25-.56-.24-.55-.25-.56h0l-.23-.56-.24-.56-.23-.56h0l-.22-.56h0l-.22-.58h0l-.21-.56-.21-.55-.21-.58-.21-.56-.19-.58h0l-.19-.57-.19-.58-.19-.58-.18-.56-.18-.58-.17-.57-.16-.6-.18-.56-.15-.59-.16-.58-.15-.58-.15-.59-.14-.58-.14-.57-.13-.6-.13-.58-.13-.59-.12-.58h0l-.13-.59h0l-.12-.6-.1-.57-.1-.6-.1-.59-.1-.6-.09-.6-.08-.57-.09-.6-.09-.59-.07-.6-.07-.59-.06-.6-.07-.59-.05-.6-.06-.59-.05-.6,0-.61,0-.6,0-.59h0l0-.6,0-.59,0-.6v-.59l0-.6v-3.6l0-.6v-.59l0-.6,0-.59,0-.6,0-.59,0-.6,0-.61.05-.6.06-.59.05-.6.07-.59.06-.6.07-.59.07-.6.09-.59.09-.6.08-.59.09-.58.1-.59.1-.6.1-.59.1-.6.12-.58.13-.59h0l.12-.58.13-.59.13-.58.13-.6.14-.57.14-.6.15-.57.15-.58.16-.6.15-.57.18-.58.16-.58.17-.57.18-.58.18-.58.19-.57.19-.56.19-.58.19-.58.21-.56.21-.57.21-.56.21-.58h0l.22-.56h0l.22-.56.23-.56h0l.24-.55h0l.23-.57.25-.55.24-.56.25-.56.25-.54h0l.26-.56.27-.54.26-.56.27-.54-.1-.09-.11-.09-.1-.09-.11-.09-.1-.09h0l-.1-.09-.11-.09-.1-.09-.1-.09h0l-.1-.09-.11-.11-.1-.09h0l-.1-.09h0l-.1-.1-.11-.09-.11-.09-.09-.09-.1-.09-.1-.09h0l-.1-.09-.1-.11v0l-.1-.11-.1-.09-.09-.09-.11-.09h0l-.1-.09-.1-.09-.1-.11h0l-.11-.09-.1-.09-.1-.09h0l-.1-.11v0l-.09-.11h0l-.11-.09h0l-.1-.09h0l-.1-.11v0l-.1-.11v0l-.1-.11-.1-.09-.1-.09-.1-.11h0l-.09-.09-.11-.09-.09-.11v0l-.11-.11-.09-.09-.1-.09-.1-.1-.1-.09-.1-.11v0l-.1-.11-.1-.09-.1-.09-.1-.11-.1-.09-.1-.09h0l-.09-.11-.1-.09-.1-.11-.1-.09-.1-.09-.09-.11-.2-.19-.2-.2-.21-.2h0l-.19-.2-.21-.22h0l-.21-.19-.2-.2v0l-.2-.2-.2-.2-.18-.21-.2-.2-.21-.22h0l-.2-.2-.2-.2h0l-.19-.21h0l-.19-.2-.19-.22-.2-.21-.19-.2-.2-.22-.19-.2-.19-.21h0l-.19-.22-.2-.2-.19-.21h0l-.18-.22-.18-.22h0l-.2-.21-.18-.2-.19-.22-.19-.21h0l-.19-.22h0l-.19-.22h0l-.18-.21-.19-.22-.18-.22-.18-.21-.19-.22-.18-.22-.18-.21-.19-.22-.17-.21-.19-.22-.18-.22h0l-.17-.21v0l-.18-.22h0l-.19-.21h0l-.16-.22h0l-.19-.22h0l-.18-.23-.17-.22-.18-.21h0l-.17-.22-.17-.23h0l-.18-.22-.17-.24-.17-.21-.17-.22h0l-.18-.23-.17-.22-.17-.23-.17-.22-.16-.23-.18-.22-.17-.24-.49.82h0l-.49.82-.48.83-.47.81-.47.83-.46.83-.45.84-.44.83-.44.85-.43.85h0l-.41.84-.42.85-.41.85-.38.87-.4.86-.38.85-.37.86-.37.89-.35.86-.35.87-.34.88-.33.87-.32.88h0l-.32.88-.3.89-.3.88-.3.88-.29.91-.28.88h0l-.26.9h0l-.26.9-.25.89-.24.9h0l-.24.9-.22.9-.23.92-.21.9-.21.91-.2.92-.2.9-.18.92-.17.9h0l-.16.92-.17.92-.15.92-.14.92-.14.9h0l-.12.92-.12.92h0l-.12.93-.09.92-.11.92-.09.92-.09.92-.07.94-.06.92-.07.92h0l0,.92,0,.94,0,.92,0,.93v.92l0,.92V1641l0,.94v.92l0,.94,0,.92,0,.92,0,.93.07.92.06.92.07.94.09.92h0l.09.92.11.92.09.92h0l.12.92v0l.12.9.12.92h0l.14.93.14.91.15.92.17.92.16.91h0l.17.91.18.92.2.9.2.92.21.9h0l.21.9.23.9.22.92.24.9h0l.24.89.25.9.26.9h0l.26.9.28.88.29.89.3.9.3.88.3.89.32.88h0l.32.88.33.87.34.88h0l.35.87.35.86.37.87.37.87h0l.38.85.4.87h0l.38.84.41.87.42.85.41.84.43.85.44.83.44.85.45.83.46.85.47.81v0l.47.81.48.83h0l.49.81.49.83.12.18.12.2.12.17.11.19.12.19h0l.11.18.13.2.11.18.12.2h0l.13.18h0l.11.18.12.2.12.18h0l.13.18.12.2h0l.13.18.12.18.12.2.12.18.13.18.13.2.12.18.13.18.13.18h0l.12.2.13.18.13.18.12.18h0l.13.18.12.18.13.2h0l.12.18.13.18.14.18.12.18.14.18h0l.13.18.13.18.14.18v0l.13.16.12.2.14.16.14.2.13.16h0l.13.18.13.2h0l.13.16h0l.13.18h0l.14.18.13.18.14.18.14.18.14.18.14.18.13.18.14.17.15.18.14.18.15.18h0l.13.18.14.16h0l.14.18h0l.14.18.14.18.1.13h0l.09.12.11.13.11.13h0l.11.14.1.11h0l.1.14.1.13h0l.11.12.11.13.11.13.11.12.1.13.12.13.11.12h0l.12.15.1.12.11.13.11.13.11.12h0l.11.13.12.12h0l.1.13.12.13.11.12.12.13.1.13.11.12.12.11.11.12.12.13.1.13.12.12.11.13.12.13h0l.11.12.11.13.12.12h0l.12.13.11.13.11.11h0l.12.11.11.13.12.12.11.13.12.11.11.13.12.12.12.13.12.12.11.13.12.11.12.12.12.13.11.13.13.11.11.12.13.13.11.1.13.13.11.13.12.12.12.11.12.13.17.18.18.16.17.18.18.16.17.18.17.17.17.16.19.18.16.16.19.16.17.18.17.17.18.16.17.16.18.18.18.16.18.17.17.16.17.16.18.16.18.17.18.16.18.16.18.16.18.16.19.17.18.16.18.16.18.16.18.15.17.16.19.16.18.15.18.16.18.16.19.16.18.15.18.16.19.14.18.17.18.14.19.16.19.15h0l.18.16.18.14.19.15.19.16.18.14.19.15.18.16.18.15.2.14.18.14.18.15.19.16.19.14.19.15.19.14.19.15.18.14.19.15.19.14.19.14h0l.19.15h0l.17.13.16.12h0l.16.13h0l.18.12.17.13.18.13.17.12.17.13.17.13.18.12.17.13.17.1v0l.17.11h0l.18.13.16.12.18.13h0l.18.13.17.1.17.13h0l.17.13h0l.17.11h0l.18.11.17.13h0l.18.11.17.12h0l.18.13h0l.18.11.17.12.18.11h0l.18.13.18.11.17.12.18.11.18.11.18.12.17.11.18.13.18.11.18.11h0l.17.1.18.13h0l.17.11.18.1.19.11.18.13h0l.18.11.18.11h0l.18.11.18.1h0l.18.11h0l.18.11h0l.17.11h0l.18.11.18.1.18.11h0l.18.11.18.11.18.11h0l.18.1.18.11.18.11.18.09h0l.17.11h0l.18.11h0l.78.43.78.43.79.42.78.43.78.4h0l.79.41.8.4.8.38.8.38h0l.8.37h0l.8.38.8.36.81.35.82.36.81.34.82.32.81.33.83.32.82.31.82.31.83.3.83.29.83.29.83.29.83.27h0l.83.27.84.25.84.25h0l.83.24.85.23.83.24.85.23h0l.85.22.85.2h0l.85.21.84.22.85.18.86.18.84.18.87.15.85.17.85.15h0l.87.14.87.15.85.14.86.15.86.1.86.11.87.11.87.11.86.07.86.11.88.07.85.07.88.08.86,0,.87.07.86,0,.88,0,.86,0,.87,0h2.61A110.61,110.61,0,0,0,637.8,1747l.23,0,.24,0,.24,0,.23-.07.24,0,.23,0,.24,0,.23,0,.23,0,.25,0h0l.23,0,.24,0,.23-.07.24,0h0l.23,0,.24,0,.23-.07.24,0,.24,0,.22,0h0l.23-.07.23,0,.24,0,.24-.07h0l.23,0,.23,0,.24-.07h0l.23,0,.23-.08.24,0,.23,0h0l.24-.07.23,0,.24-.07.23,0,.23-.08.23-.05.23,0,.24-.08.23,0,.24-.08.22,0,.24,0,.23-.06.23-.07h0l.24,0,.22-.06.24,0,.23-.08.23,0,.23-.07.23,0,.24-.08.23,0,.23-.07.23-.07.23-.06.23-.07.23-.06.24-.07.22-.07.24-.07.22-.07.23-.06.75-.23.74-.24.73-.23.74-.25.73-.24.74-.25.73-.25.73-.27h0l.72-.27.73-.27.73-.29.73-.29.73-.29.72-.29.71-.3.72-.31h0l.71-.31.73-.32.71-.33.71-.32.7-.34h0l.72-.33h0l.7-.36.7-.34h0l.7-.36.7-.36.7-.36.69-.38h0l.69-.38.69-.38.69-.4.68-.38.69-.39.68-.42.68-.41.67-.42.68-.41.67-.43.67-.42.67-.45.65-.43.66-.45.67-.45.65-.45.66-.47.64-.47.64-.47.65-.49h0l.64-.49.64-.48.65-.51.62-.5.64-.51.62-.5.62-.52.62-.53.63-.52.61-.54.61-.52.61-.56.61-.54.59-.56.6-.56.6-.58c.56-.52,1.11-1.06,1.66-1.62l11.89-11.88,25.64-25.65V1661H717.24l-25.63,25.63-11.89,11.9c-.55.54-1.09,1.1-1.63,1.66H678A82,82,0,0,1,648.66,1718a83.64,83.64,0,0,1-63.5-3.59l-.2-.09-.19-.09h0l-.2-.11-.2-.09-.2-.11-.21-.09-.19-.1-.2-.11-.2-.09-.2-.11h0l-.2-.11-.2-.09-.2-.11-.19-.1-.2-.11h0l-.19-.11-.2-.09-.2-.13-.2-.09v0l-.19-.09-.19-.12-.2-.11-.2-.11-.2-.11-.19-.11-.19-.1h0l-.2-.11-.2-.13-.19-.11-.19-.1-.2-.11-.19-.13-.2-.11-.19-.12-.19-.11-.2-.13-.19-.11-.19-.12-.19-.11-.19-.13-.19-.12h0l-.19-.11-.19-.13h0l-.19-.12-.18-.13-.2-.11-.2-.12-.17-.13h0l-.19-.13-.19-.12-.19-.13h0l-.18-.13-.19-.12h0l-.19-.13-.19-.12h0l-.19-.13-.19-.14-.18-.13h0l-.19-.13h0l-.18-.12h0l-.18-.15-.18-.12h0l-.18-.13-.18-.14h0l-.17-.11-.16-.13-.16-.11h0l-.17-.12-.16-.13-.16-.12h0l-.16-.11h0l-.16-.13-.17-.13-.16-.12-.16-.13-.16-.12-.17-.11h0l-.16-.13-.16-.13-.16-.12L570,1705l-.16-.12h0l-.16-.13-.15-.13-.17-.14-.16-.13-.16-.12-.15-.13-.16-.13h0l-.17-.14v0l-.15-.15h0l-.16-.12-.16-.13-.15-.14-.16-.13-.16-.13-.16-.14-.15-.12-.15-.15-.17-.13-.15-.14-.15-.13-.17-.14-.14-.14-.16-.13-.15-.15-.16-.12h0l-.15-.15-.16-.14-.15-.13-.15-.14-.16-.14-.15-.15-.14-.14-.16-.15-.15-.12-.15-.15-.16-.14-.14-.15-.15-.14-.16-.15-.14-.14-.15-.14-.16-.15-.14-.14-.14-.16-.16-.15-.14-.14-.15-.15-.14-.14-.14-.15-.14-.12-.14-.16-.14-.13-.13-.15-.15-.14-.14-.14-.13-.15-.14-.14-.13-.15-.15-.14-.12-.14-.13-.15-.14-.14-.14-.15-.13-.16-.14-.14-.13-.15-.14-.14-.13-.15-.13-.14-.14-.15-.12-.16-.14-.14-.12-.15-.13-.14-.13-.14-.13-.17-.14-.14-.12-.15h0l-.13-.16h0l-.12-.14-.13-.15h0l-.12-.16-.13-.14-.13-.15-.12-.14v0l-.13-.14-.13-.15-.12-.16-.12-.14h0l-.13-.17h0l-.12-.14-.12-.16-.13-.15-.11-.16h0l-.13-.14-.12-.17-.12-.14-.12-.16-.12-.15-.12-.16-.11-.14-.13-.17-.11-.16-.12-.14-.11-.16-.12-.17h0l-.11-.14h0l-.11-.16h0l-.12-.15-.12-.16-.12-.18h0l-.13-.18-.13-.16-.12-.18h0l-.13-.18-.12-.18h0l-.13-.18-.13-.18h0l-.11-.17-.13-.18h0l-.12-.17h0l-.12-.18-.13-.18-.13-.18-.11-.18h0l-.12-.18-.12-.18-.11-.18h0l-.12-.18-.12-.18-.11-.18-.12-.18-.12-.18h0l-.11-.18h0l-.11-.18-.12-.18-.12-.2-.11-.18-.11-.18h0l-.11-.18-.12-.18-.11-.18-.1-.2h0l-.11-.18-.11-.18h0l-.12-.18-.11-.18-.1-.2h0l-.11-.18-.11-.18v0l-.11-.18-.11-.18h0l-.11-.18-.09-.2-.11-.18h0l-.11-.18-.1-.2-.11-.18-.1-.18-.11-.19-.09-.19-.11-.19-.1-.19-.1-.19-.1-.18-.1-.2h0l-.1-.18h0l-.1-.2h0l-.09-.18-.1-.2-.09-.18-.09-.2-.11-.18v0Zm37.77-111.56a83.74,83.74,0,0,1,63.5-3.57,121.32,121.32,0,0,1-10.86-29,110.64,110.64,0,0,0-16.56-1.26A108.54,108.54,0,0,0,567.6,1546a69.58,69.58,0,0,0,10.63,13.64A72.19,72.19,0,0,0,585.16,1565.66Zm324.91,24.09-1.33.4m2.66-.83-1.33.43m9-3.42-1.26.55m9.18-4.63c-.39.24-.78.45-1.18.69m21.6,16.66M706,1486.3c.14.46.28.89.4,1.34m-.82-2.65c.14.43.29.87.42,1.31m-7.5-17c.22.39.46.77.69,1.17m-37,358.29,16.15-81.07-.43.21-.43.26-.43.21-.43.22-.44.22-.43.21h0l-.44.22-.43.21-.44.22-.44.18-.43.22-.44.21-.44.22-.44.18-.44.22h0l-.43.18-.44.21-.45.18-.45.22-.44.18-.45.18-.44.22h0l-.45.18-.44.18-.45.18-.45.18-.45.18-.46.18-.45.18-.45.18-.45.14-.46.18-.45.18-.45.19-.46.14-.46.18-.45.14-.46.18-.46.15-.46.14-.45.18-.47.15-.46.14h0l-.46.15-.46.14-.46.14-.47.15-.47.14-.45.15-.47.14-.46.15-.47.1-.47.15h0l-.47.14-.47.11-.47.14-.47.11-.46.15-.47.11-.48.1-.47.15-.47.11-.47.1-.48.11a109.5,109.5,0,0,0-1.26,16.55v1.77l0,.87,0,.86,0,.87,0,.87,0,.86.06.87,0,.86.07.87.07.86.09.87.08.86.09.87.1.86.1.87.12.86.12.87.13.87.13.86.14.87.15.83h0l.14.86.17.87.17.86.18.83.18.87.18.86.2.83.2.87h0l.21.83.23.86h0l.22.83.23.87.23.83.25.83h0l.25.83.26.86.26.83h0l.28.83.27.83.29.83.3.83.29.83.31.83h0l.31.83h0l.32.79.33.83.34.83.33.79.35.83.35.8.37.79.37.83.37.79h0l.39.8.38.79.41.79.39.8.42.79.41.79.43.8.43.75.43.8.23-.15.23-.14h0l.23-.14.23-.15.23-.14h0l.22-.11.23-.18h0l.22-.11.23-.18.22-.14.45-.29.23-.15.22-.14.45-.29c.45-.33.88-.65,1.32-.94l1.31-1c1-.76,2-1.55,3-2.35l.41-.36c.34-.29.68-.61,1-.9l.4-.36h0l.2-.18.6-.58v0l.2-.22.2-.18.2-.18h0l.2-.18.2-.21.19-.18.2-.19.19-.21.19-.18.21-.22.11-.07.1-.11.1-.11h0l.11-.11h0l.09-.1h0l.11-.11h0l.1-.11.1-.11.1-.11.1-.07.1-.11.11-.1h0l.1-.11.1-.11h0l.09-.11.11-.11.09-.1.11-.11.09-.11.1-.11h0l.1-.11.09-.11h0l.1-.1.1-.11.1-.11h0l.1-.11.1-.11.09-.11.1-.1.09-.11.1-.11.09-.11.1-.11h0l.09-.1h0l.09-.11h0l.09-.11.11-.11.09-.11.09-.11.09-.1h0l.09-.11.09-.11h0l.1-.11h0l.09-.11.09-.1h0l.09-.11.09-.11.09-.14.09-.11.09-.11h0l.1-.11h0l.09-.11.09-.11.09-.1.09-.11.09-.11.09-.14.08-.11.09-.11h0l.09-.11h0l.09-.11.08-.11-.25-.54h0l-.25-.54h0l-.25-.54h0l-.24-.54-.24-.54-.23-.54-.24-.54-.22-.54-.23-.54-.21-.55-.21-.54-.21-.54-.21-.54-.2-.58-.2-.54-.19-.54-.19-.57h0l-.18-.54-.18-.55-.18-.57-.17-.54-.17-.58-.16-.54h0l-.16-.58-.16-.54-.15-.58-.16-.54-.14-.57-.14-.58-.14-.58-.14-.54-.13-.58-.13-.57-.11-.58-.12-.54-.12-.58-.1-.58-.11-.57-.1-.58-.1-.54-.09-.58-.09-.57-.09-.58-.08-.58-.09-.58-.07-.57-.07-.58-.06-.58-.07-.57,0-.58-.06-.58-.05-.57,0-.58-.05-.58,0-.57,0-.58,0-.58,0-.58v-.57l0-.58,0-.58v-1.77A83.12,83.12,0,0,1,678.36,1747.73ZM530.14,1721h0l-.34.69h0l-.34.7-.33.69h0l-.33.68h0l-.32.69-.32.7h0l-.3.7-.32.71h0l-.29.7-.3.7v0l-.29.7-.29.71-.29.72-.27.72-.28.7-.26.74-.26.72-.26.72-.25.74-.25.73-.25.73-.23.73-.23.73v0l-.24.74-.21.74-.22.74-.21.76-.21.74-.2.75-.2.76-.19.76-.18.76-.18.75-.17.76-.17.76-.16.79-.16.76-.16.76-.14.79-.15.76-.13.75-.13.8-.13.79-.12.76-.11.79-.11.8-.11.75-.09.8-.08.79-.09.79-.08.8-.08.79-.06.79-.07.8-.06.83-.05.79,0,.79,0,.8,0,.83,0,.79,0,.79,0,.83v3l0,1.4,0,1.37.06,1.41c0,.43,0,.9.08,1.37l.1,1.37.12,1.37.13,1.37.15,1.37c.05.43.1.9.16,1.34l.18,1.33.2,1.37.22,1.33.22,1.34.25,1.33h0l.26,1.3.29,1.34.29,1.29.31,1.3.33,1.3.35,1.3.36,1.3.37,1.26.38,1.3.41,1.26.42,1.26.44,1.26.44,1.23.47,1.26.47,1.23.51,1.22.5,1.19c.18.44.35.83.52,1.23h0l.53,1.19.55,1.19.57,1.19h0l.57,1.19.6,1.19h0l.6,1.16.62,1.15.64,1.15.65,1.12.66,1.16.67,1.11h0l.68,1.09.7,1.11.71,1.08h0l.72,1.12.74,1.05.75,1.08.77,1,.77,1,.8,1,.79,1,.81,1,.83,1,.83,1,.85,1,.85,1,.87,1h0l.88,1,.89.94.91.93.91.91.92.93.93.9,1,.91,1,.86h0l1,.87,1,.86,1,.87,1,.83,1,.79,1,.83,1,.79,1,.8,1.05.79,1.06.76,1.07.72,1.07.76,1.08.72h0l1.11.72,1.09.68,1.11.69h0l1.13.68,1.13.65,1.13.65,1.16.65,1.15.62,1.16.61h0l1.18.58,1.17.57,1.19.58,1.2.54,1.2.54,1.2.54,1.22.51,1.23.46,1.23.51,1.24.47,1.24.43h0l1.26.43,1.26.44,1.26.39,1.27.4,1.29.36,1.28.36,1.29.36,1.31.33,1.3.29,1.3.28,1.33.29,1.31.29,1.34.22,1.32.25,1.35.22c.44.07.89.14,1.34.18l1.35.18,1.36.18,1.36.14,1.36.11,1.37.15,1.37.07,1.38.1,1.38,0,1.39.07h1.39c.46,0,.93,0,1.39,0l.82,0h1.61l.81,0,.81,0h.8l.82-.07.8,0,.79,0,.8-.07.8,0,.8-.07.78-.08.8-.1.79-.08.79-.1.79-.08.78-.11.79-.1.78-.11.78-.11.78-.14.77-.15.78-.11.78-.14.76-.15.78-.17.76-.15.77-.18.76-.14.76-.18.76-.18.76-.18.76-.18.74-.22h0l.76-.18.75-.22.75-.21.74-.22.74-.22.75-.21h0l.73-.26.74-.21.73-.26.73-.25.73-.25.73-.25.72-.26.73-.28.72-.26.71-.28.72-.29.71-.29.71-.29h0l.71-.29.7-.32h0l.7-.29.7-.33h0l.69-.32h0l.7-.33v0l.68-.36h0l.69-.32.68-.33h0l.68-.32.2-.11h0l.2-.11.2-.11.2-.11h0l.19-.1v0l.2-.11.2-.11.2-.1.2-.11.2-.11.2-.11.2-.11.2-.1h0l.18-.11h0l.2-.11.4-.22.19-.1.19-.11h0l.4-.22.19-.11.2-.11.39-.21.2-.11h0l.18-.11h0l.38-.21.19-.11.2-.15.39-.21.19-.11.18-.11h0l.56-.36h0l.19-.11.39-.25.19-.11.76-.47h0l.18-.11h0l.36-.25h0l.18-.11h0l.37-.25.38-.25.19-.11.19-.11h0l.18-.14.19-.11.19-.14.18-.11h0l.19-.15.18-.11h0l.19-.14v0l.18-.15.27-.18.27-.18.25-.18h0l.26-.18.27-.18.26-.18.27-.22h0l.26-.18h0l.26-.18.26-.18.26-.21v0l.26-.21.25-.18.27-.19.26-.21h0l.25-.18h0l.25-.22v0l.26-.22.26-.18h0l.25-.21.26-.18.24-.22h0l.26-.18h0l.25-.22.25-.18h0l.24-.21h0l.25-.19h0l.26-.21.24-.22.25-.18.25-.21h0l.25-.22.24-.18.26-.22h0l.24-.21.24-.18.25-.22.25-.22h0l.23-.21h0l.25-.22.25-.22.23-.18h0l.24-.21.24-.22.23-.22.25-.21.24-.22.24-.21h0l.23-.22h0l.23-.22.24-.21.23-.22.24-.22.23-.21h0l.23-.25.23-.22h0l.23-.22.23-.22h0l.22-.21.24-.22.23-.25.23-.22.23-.21.23-.25.24-.22.06-.07.12-.11.06-.07.07-.08.06-.07.06,0,.06-.08.06-.07.06-.07.07,0,.06-.07h0l.05-.07h0l.07,0v0l.06,0h0l.06-.07.07-.07h0l.06,0,.06-.07.06-.07.06-.08.06,0h0l.06-.07.06-.08h0l.06-.07h0l.06,0v0l.06,0h0l.06-.07h0l.07-.07,0,0,.06-.07.07-.07h0l.06-.07.07,0,.06-.07h0l.05-.07.07-.08h0l.06-.07.06,0,.07-.08,0-.07.06-.07h0l.06,0,.06-.07.06-.07h0l.06-.07.06-.08.06,0,.06-.07h0l0-.08.07-.07,0,0v0l.06,0,.06-.08.06-.07,0-.07.07,0,0-.07.06-.07.06-.07.14-.15.15-.14v0l.13-.14.14-.15.15-.18.14-.14h0l.14-.18.15-.15h0l.14-.14.13-.18h0l.15-.15.14-.18.13-.14h0l.14-.18h0l.14-.14.13-.18.14-.15.14-.18.13-.14.14-.18.14-.15.13-.18.14-.14.14-.18.13-.15h0l.14-.18h0l.14-.14.13-.18h0l.13-.18.14-.15h0l.13-.18h0l.14-.14.14-.18.12-.15.14-.18.12-.18.14-.14.12-.18.14-.18.13-.15.12-.18.14-.18.12-.14.13-.18.13-.18.13-.15.13-.18.12-.17.13-.19.13-.14h0l.14-.18h0l.13-.18h0l.12-.18.13-.14h0l.13-.19h0l.12-.18.13-.18.12-.14h0l.12-.18.13-.18.11-.18.13-.15v0l.12-.15.13-.18.57-.83.56-.83.56-.83h0l.55-.86.54-.83.53-.87.53-.86.52-.87.51-.86.51-.87.49-.86.49-.9.48-.87.47-.9h0l.47-.9.45-.9.44-.91.44-.93.43-.91.43-.93.41-.9.4-.94.4-.94.38-.94.39-.93.37-1,.36-.94.35-.93v0l.34-.94.34-1h0l.33-1,.32-1,.3-1,.31-1,.29-1,.28-1,.27-1,.26-1,.25-1,.25-1,.23-1,.23-1,.22-1h0l.22-1,.2-1,.18-1,.18-1,.16-1,.16-1,.15-1,.14-1,.13-1,.11-1,.11-1.08.1-1,.09-1,.08-1.05.07-1.08.06-1h0l0-1.08,0-1,0-1.08V1698.3l-25.64,25.64v46.15l0,.72v.72l0,.72h0l0,.72,0,.72,0,.72-.05.72,0,.73-.06.72-.06.68v0l-.08.68-.08.73-.08.72-.09.68-.1.72h0l-.1.69-.11.72-.11.69-.11.68-.13.68h0l-.12.73h0l-.14.68-.14.69-.15.68-.16.69-.15.68-.17.69-.17.68-.18.65-.18.69-.19.68-.2.65-.19.69-.21.65-.21.68-.21.65-.23.65-.22.65-.23.65-.24.65-.25.65h0l-.24.64-.25.65h0l-.27.65-.25.62-.27.65-.28.64-.27.62-.29.61-.28.65-.3.61-.3.62-.3.61h0l-.3.61-.32.62h0l-.32.61-.33.61-.33.58-.32.61-.35.58h0l-.34.61-.34.58-.35.58-.12.21-.12.18-.13.22h0l-.12.18h0l-.12.18-.12.18-.12.22-.12.18-.12.18-.12.21-.13.18-.13.18-.11.18-.13.22-.13.18-.12.18h0l-.14.18h0l-.13.18-.12.22-.13.18h0l-.14.18h0l-.14.18h0l-.13.18-.12.18-.14.18h0l-.12.22-.14.18h0l-.13.18h0l-.14.18-.13.18-.13.18-.14.18h0l-.14.18-.13.18h0l-.13.18h0l-.14.18-.13.18h0l-.14.18-.14.18-.14.18h0l-.13.18h0l-.14.18h0l-.13.18h0l-.14.18h0l-.14.18-.14.18-.14.15-.15.18h0l-.13.18-.15.18h0l-.14.18-.14.18-.14.18h0l-.14.14h0l-.15.18-.14.18-.15.18-.14.18-.15.15h0l-.15.18-.14.18-.15.14v0l-.14.14-.16.18h0l-.06.08h0l-.06.07-.06.07-.06,0-.05.07-.07.07h0l-.06.07,0,.07-.06.08-.06,0h0l-.06.08-.06.07-.05.07-.07.07-.06.07-.06,0h0l-.07.07,0,.07-.06.08h0l-.07.07,0,0-.07.08h0l-.06.07-.06.07-.06.07-.06,0,0,.07-.07.07-.06.08-.06.07-.06.07-.06,0-.06.07h0l-.06.07h0l-.07.07-.06,0-.07.07h0l-.06.07h0l-.06.07-.07.08h0l0,0-.06.08-.07.07-.06.07h0l-.06.07-.06,0-.07.07-.06.07-.06.07h0l-.06,0h0l-.06.07-.06.07-.07.08-.06,0h0l-.06.07-.07.08-.06.07-.07,0-.12.14-.06.07-.19.18-.22.22-.23.21-.21.22-.23.22h0l-.23.21h0l-.23.22-.22.22-.23.21h0l-.22.22h0l-.23.22h0l-.23.21h0l-.24.22-.22.21-.23.22-.24.22-.23.18-.24.21-.23.22-.24.22-.24.18h0l-.24.21-.24.22-.24.18-.23.22h0l-.25.18-.24.21-.24.18-.25.22h0l-.24.18h0l-.25.22h0l-.24.18h0l-.23.21h0l-.25.18-.24.18-.25.22h0l-.25.18-.26.18h0l-.24.22v0l-.26.22-.26.18-.25.18-.24.18h0l-.25.18-.25.18-.27.18-.25.18-.26.18h0l-.26.18h0l-.25.18-.26.18h0l-.27.18-.26.18-.26.18h0l-.26.18h0l-.26.18v0l-.26.18-.27.18-.27.18h0l-.26.14-.27.18h0l-.26.18h0l-.27.15-.26.18-.27.14h0l-.17.11h0l-.18.11h0l-.19.14v0l-.18.14-.18.11-.19.11h0l-.19.1-.18.11-.19.11h0l-.18.11-.19.07-.19.11-.18.11-.19.1-.19.11-.18.11-.2.11-.18.11h0l-.19.11-.18.07-.19.11-.19.1-.19.11-.2.11v0l-.19.11h0l-.18.11h0l-.19.11-.19.07-.19.11-.19.11-.2.11h0l-.18.07-.2.11-.19.1v0l-.2.11-.19.11-.2.07h0l-.19.11-.2.1-.18.08-.2.1-.19.08-.2.1-.19.08h0l-.2.1h0l-.19.08h0l-.2.11h0l-.19.07h0l-.2.07-.2.11-.2.07-.19.11-.19.07-.2.11v0l-.21.11h0l-.19.07-.21.07-.2.11h0l-.19.08h0l-.2.07-.2.11-.2.07-.2.07-.21.07-.44.18-.44.18h0l-.44.18-.44.15-.45.18h0l-.46.14-.44.18h0l-.45.15h0l-.45.14h0l-.45.15-.45.17-.46.15-.45.14h0l-.46.15v0l-.45.15-.46.14-.46.14h0l-.45.11h0l-.46.15-.46.1-.46.15-.47.11h0l-.46.11h0l-.47.14h0l-.47.11-.46.11-.47.1-.47.11-.47.07-.48.11-.48.11-.47.07h0l-.47.11-.47.07-.48.11-.49.07-.47.08-.48.07h0l-.48.07h0l-.49.07-.47.07-.49.08h0l-.49.07-.49,0-.47.07h0l-.48,0h0l-.5.07-.48,0-.48.07-.5,0-.49,0-.49,0-.49,0h0l-.49,0h-.5l-.49,0-.5,0H630l-.49,0h-1l-.5,0H626l-1.06,0-1.06,0-1.06,0-1-.07-1-.08-1-.07-1-.11-1-.1-1-.15-1-.14-1-.15-1-.14-1-.18-1-.18-1-.22-1-.21-1-.22-1-.25-1-.25-1-.26-1-.29-1-.28-1-.29-1-.29-1-.33-1-.32-.94-.36-1-.36-.94-.36-.92-.36-1-.4-.91-.4-.92-.43-.91-.4-.92-.43-.89-.43v0l-.9-.43-.88-.47-.89-.47-.87-.5-.87-.47-.86-.51-.86-.54-.85-.5-.84-.54-.84-.54-.82-.55-.82-.57-.82-.58h0l-.81-.58-.8-.57-.79-.62-.79-.61-.77-.61-.78-.65-.75-.62h0l-.76-.64-.75-.69-.74-.65-.73-.68-.72-.69-.71-.68-.71-.69-.7-.72-.69-.68-.68-.76-.68-.72-.66-.73-.65-.75-.65-.76h0l-.64-.76-.63-.79-.61-.76-.62-.79-.6-.79-.6-.8-.57-.83h0l-.57-.79-.57-.83-.55-.83-.55-.83-.53-.83-.52-.86-.52-.87-.5-.87-.5-.86-.48-.87-.47-.86-.47-.9-.44-.9h0l-.45-.91-.42-.9-.42-.9-.42-.94-.39-.9-.39-.94-.38-.93-.37-.94-.35-.94-.34-1-.34-.94-.32-1-.31-1-.3-1-.29-1-.27-1-.26-1-.25-1-.24-1-.22-1-.22-1-.19-1-.19-1-.18-1-.17-1-.15-1-.13-1-.13-1-.12-1-.1-1-.09-1-.07-1,0-1.05-.05-1,0-1,0-1.08v-1a81.91,81.91,0,0,1,5.78-30.32,121.62,121.62,0,0,1-15.07-12.8l-.07-.09-.09-.07-.07-.07-.08-.09-.08-.07-.09-.09-.07-.08-.08-.09-.08-.07-.07-.09-.08-.07-.08-.09-.07-.07-.09-.08-.08-.09-.08-.07-.07-.09-.08-.07-.09-.09-.07-.07-.08-.09-.07-.08h0l-.07-.09-.08-.07h0l-.07-.09-.08-.07-.09-.09-.07-.07-.08-.09-.07-.07-.07-.09h0l-.08-.08-.08-.09-.07-.07h0l-.07-.09-.07-.07-.08-.09-.08-.07-.07-.09h0l-.08-.09-.08-.08-.07-.07-.08-.09-.07-.07v0l-.08-.07-.08-.09-.07-.07-.07-.09-.08-.07-.08-.09-.07-.1L531,1722h0l-.07-.09-.07-.07-.09-.09-.07-.09-.07-.07-.07-.09h0l-.07-.09-.07-.07h0l-.08-.09-.08-.08-.07-.09Zm189,128h0l-.09.11h0l-.09.11-.1.11-.09.11-.09.07v0l-.09.08-.09.1-.09.11h0l-.09.11h0l-.09.11-.09.11-.1.07v0l-.09.08-.09.11-.09.1-.09.11-.09.11-.09.11h0l-.09.07v0l-.1.07-.1.11h0l-.09.1-.09.11-.09.11-.1.07-.09.11-.09.11-.09.11h0l-.09.11-.11.07-.09.11h0l-.09.1-.09.11-.1.11-.09.07-.1.11-.09.11-.09.11-.1.11-.09.07-.1.11h0l-.1.1h0l-.1.11-.1.07-.09.11-.1.11h0l-.1.11-.09.07-.1.11h0l-.1.11-.09.11-.1.1h0l-.1.08-.1.1-.09.11-.1.07v0l-.1.07-.1.11-.1.11-.1.07-.09.11-.1.11-.2.18-.2.21-.21.18-.19.22h0l-.2.22h0l-.21.18h0l-.21.21-.19.18-.21.22-.21.18-.19.22h0l-.2.18h0l-.21.18-.2.21h0l-.21.18-.2.22h0l-.2.18h0l-.21.18-.2.22-.21.18-.22.18-.21.22-.2.18-.22.18-.21.21-.21.18-.21.18-.21.18h0l-.21.22-.22.18-.22.18h0l-.21.18-.22.18h0l-.21.18-.21.18-.22.22-.21.18h0l-.2.18-.22.18h0l-.2.18-.23.18-.22.18-.21.18-.22.18-.22.18-.22.18-.22.18h0l-.21.18-.22.18-.23.15-.21.18-.23.18-.21.18-.23.18-.23.18-.22.14-.22.18-.22.18h0l-.22.18-.22.18-.23.15-.22.18-.23.18h0l-.23.14h0l-.22.18.81.51.83.47h0l.82.5.82.47h0l.83.47.83.47.84.43.84.43.85.44.83.43.85.43.86.4.85.39.85.4h0l.87.4.86.4h0l.86.36.87.36.87.36.86.36h0l.87.32.87.33.88.32h0l.88.33.89.32.89.29.88.29.9.29.89.28.89.26h0l.89.29.9.25.91.25h0l.9.22.9.25.9.21.91.22h0l.9.22.92.18.91.18.91.21.91.15h0l.91.18.93.18.91.15.91.14.93.14h0l.91.11.92.11v0l.92.1h0l.92.11.92.07.92.11h0l.92.07.93.08.92.07.93.07.91,0,.93,0,.93,0,.93,0,.93,0h3.71l.93,0,.92,0,.92,0,.93,0,.92,0h0l.92-.07.93-.07.92-.08.93-.07.92-.11.93-.07.91-.11.93-.1v0l.91-.11.92-.11h0l.92-.14.92-.14.92-.15.91-.18.91-.18h0l.91-.15.91-.21.92-.18.91-.18.89-.22.92-.22.9-.21.91-.25.9-.22h0l.89-.25.91-.25.89-.29h0l.89-.26h0l.88-.28.9-.29.89-.29.88-.29.88-.32.88-.33h0l.88-.32.88-.33.87-.32.87-.36.87-.36.87-.36.86-.36.87-.4.85-.4.86-.4.86-.39.84-.4.85-.43h0l.84-.43.84-.44.84-.43.83-.43.84-.47.82-.47.83-.47.82-.5.82-.47h0l.81-.51h0l.19-.1h0l.18-.15h0l.19-.11.18-.11.19-.1h0l.19-.15.19-.11h0l.18-.1h0l.18-.15h0l.18-.11.19-.11.19-.14h0l.18-.11h0l.18-.11.19-.14h0l.18-.11.19-.14.19-.11.18-.15.18-.1.18-.15.2-.11.18-.1.19-.15.18-.11h0l.18-.14h0l.18-.15.19-.1h0l.18-.15.18-.11.2-.14h0l.18-.11.18-.14.18-.15.17-.11h0l.18-.14.18-.14.18-.11h0l.17-.15.18-.14.19-.11.18-.14.18-.15h0l.17-.14h0l.18-.11.19-.14h0l.17-.15h0l.18-.14.18-.15.18-.11.18-.14.18-.14.17-.15.18-.14.18-.15.17-.1.18-.15.17-.14.18-.15.19-.14.18-.15h0l.17-.14.17-.14.18-.15h0l.12-.11h0l.14-.1.12-.11h0l.12-.11h0l.14-.11.12-.11h0l.13-.11.13-.1.12-.11h0l.13-.11.13-.11.13-.11.13-.1.12-.11.13-.11h0l.13-.11.13-.11.13-.1.12-.11.13-.11.12-.11.12-.11h0l.13-.11.12-.11.13-.1.13-.11.12-.11.13-.14.12-.11.12-.11.13-.11.13-.11.12-.1.12-.11.12-.15v0l.13-.14.13-.11.12-.11.13-.11.13-.11.11-.14.13-.11.12-.11.12-.11.13-.1.12-.15.12-.11h0l.13-.11.11-.1h0l.11-.11.12-.15.12-.1.13-.11.12-.11.11-.15.13-.1.13-.11.12-.14.11-.11.13-.11.11-.15.13-.1.12-.11.13-.15.17-.14.16-.18.18-.18.17-.18.16-.18.18-.15.17-.18.17-.18.17-.18.16-.18.17-.18.17-.18.16-.14.17-.18.17-.18.16-.18.17-.18.16-.18.16-.18.17-.19.16-.18.17-.17.16-.19.16-.18.15-.18.16-.18.17-.18.16-.18.15-.18.16-.18.16-.18.16-.18.15-.18.17-.18.15-.18.15-.18.16-.18.16-.18.15-.18.16-.18.15-.18.15-.18.15-.22.15-.18.15-.18.16-.18.15-.18.14-.18.15-.18.16-.22.14-.18.15-.18h0l.13-.18h0l.14-.18.16-.18.14-.22.14-.17.15-.18h0l.14-.19.15-.21.14-.18.15-.18.14-.18h0l.15-.22.12-.14.13-.18h0l.13-.18.13-.18.13-.15.11-.18.13-.18.12-.18.13-.18.13-.14.12-.18h0l.12-.19.13-.18h0l.12-.17.13-.18.12-.15.11-.18h0l.12-.18.13-.18h0l.11-.18.12-.15.13-.18.11-.18h0l.12-.18.13-.18h0l.12-.18.11-.18.12-.18.12-.18h0l.12-.14.11-.18h0l.12-.18.12-.18.1-.18.12-.18.12-.18.11-.18.11-.19h0l.12-.18.11-.18.12-.17h0l.1-.19.12-.18.11-.18.12-.18h0l.11-.18.11-.18.1-.18.11-.18.11-.18h0l.12-.18.1-.18h0l.11-.18.11-.18.11-.18h0l.11-.18.11-.18.09-.18h0l.11-.18.1-.18.11-.18.11-.18h0l.1-.18h0l.11-.18h0l.44-.8.42-.75.42-.8.43-.79.4-.79h0l.41-.8.4-.79.38-.79.38-.8h0l.38-.79h0l.37-.83.36-.79.35-.8.34-.83h0l.34-.79.33-.83.33-.83.31-.79.31-.83.32-.83.3-.83.29-.83.28-.83h0l.28-.83.27-.83h0l.26-.83.26-.86.25-.83h0l.25-.83.23-.83.24-.87.22-.83h0l.22-.86.2-.83h0l.21-.87.2-.83.19-.86.18-.87.17-.83.17-.86.16-.87.16-.86.15-.83.14-.87.13-.86.13-.87.12-.87.11-.86.11-.87.1-.86.1-.87.08-.86.08-.87.07-.86.06-.87h0l.07-.86,0-.87,0-.86,0-.87,0-.87,0-.86v-2.64a108.23,108.23,0,0,0-1.27-16.55l0-.21,0-.26-.05-.21,0-.26,0-.21,0-.25,0-.26,0-.21-.05-.25,0-.22h0l0-.25,0-.22,0-.25,0-.22,0-.25,0-.22,0-.25-.05-.22,0-.25,0-.22h0l0-.25,0-.21-.05-.26,0-.21,0-.26-.05-.21,0-.26,0-.21h0l0-.25,0-.22-.05-.25h0l0-.22-.06-.25,0-.22,0-.25h0l-.06-.22,0-.25-.06-.22-.06-.25,0-.21h0l0-.22-.05-.25h0l-.06-.22,0-.25-.07-.22h0l0-.25h0l0-.22-.06-.21-.06-.26-.06-.21-.07-.26-.06-.21-.06-.25-.06-.22-.08-.22-.06-.25-.06-.23-.06-.24-.08-.21-.06-.24-.06-.23-.08-.24-.07-.23-.07-.22-.22-.76-.23-.73-.24-.74-.25-.74-.24-.72-.25-.74-.26-.74-.26-.72h0l-.28-.74-.27-.73-.28-.72-.28-.74-.29-.72-.31-.72-.29-.72-.31-.7v0l-.32-.7-.32-.72-.32-.71-.32-.72-.34-.7-.34-.71h0l-.34-.71h0l-.36-.68v0l-.35-.69-.36-.7-.37-.7-.36-.69h0l-.36-.7-.39-.69-.39-.68-.39-.69-.4-.68-.41-.67-.41-.68-.41-.69-.41-.67-.44-.66-.42-.67-.44-.67-.44-.66-.46-.67-.45-.65-.46-.67-.46-.65-.47-.65-.46-.65-.49-.63h0l-.49-.64-.49-.63-.49-.65-.51-.63-.5-.63-.52-.63-.51-.61-.53-.63-.52-.62-.53-.61-.55-.61-.55-.62-.54-.59-.55-.61-.56-.6-.57-.59c-.53-.56-1.07-1.12-1.62-1.66L821,1686.64,795.4,1661H777.27v18.12l25.63,25.65,11.89,11.88c.55.56,1.11,1.1,1.67,1.62v.09a82.13,82.13,0,0,1,17.83,29.36,83.69,83.69,0,0,1-3.58,63.5l-.1.18-.09.22h0l-.09.18-.11.22-.1.18-.09.21-.1.22-.11.18-.09.22-.11.18-.1.21-.1.19-.11.21-.11.18-.1.22h0l-.1.18-.11.21-.11.18-.11.18-.1.22-.12.18-.11.22-.1.18-.11.21-.11.19-.12.18v0l-.1.18-.12.18h0l-.11.22-.12.18-.11.18-.12.21-.11.19h0l-.12.21-.12.18-.11.18-.12.22-.12.18-.11.18-.13.22-.12.18h0l-.11.18-.13.18v0l-.12.18h0l-.11.18-.12.18h0l-.12.22-.12.18-.12.18h0l-.12.18h0l-.12.22h0l-.13.18-.12.18h0l-.13.18-.13.18-.12.21-.14.19-.13.18h0l-.13.18-.13.18h0l-.13.21-.13.18h0l-.13.18-.14.18h0l-.12.19-.11.14-.13.18h0l-.11.14-.13.18-.12.15h0l-.12.18h0l-.12.14-.13.18-.12.15-.12.18-.13.14-.12.18h0l-.12.15h0l-.12.18h0l-.11.14-.13.18-.13.15-.12.14-.13.18h0l-.13.14-.12.18-.13.15-.13.18-.13.14h0l-.13.15-.13.18-.14.14-.12.15-.14.18-.13.14-.14.18-.13.15-.13.14-.13.18-.14.15-.14.14-.13.18-.14.14-.14.15-.13.14-.14.18-.14.15-.14.14-.13.14-.15.19-.13.14-.15.14-.13.15-.15.18-.14.14-.14.15-.14.14-.15.15-.14.17-.15.15-.14.14-.14.15-.16.14-.14.15-.14.14-.15.18-.14.14-.16.15-.13.14-.14.15-.15.14-.14.11-.15.14-.13.15-.16.14-.13.15-.14.14-.15.11-.14.14-.15.15-.14.14-.15.15-.14.11-.15.14-.14.14h0l-.14.11-.15.15-.14.14-.15.14-.15.11-.14.15-.16.14-.14.11-.14.14-.15.15h0l-.14.11-.15.14-.15.11-.15.14-.15.11-.15.14h0l-.15.15-.15.11-.15.11-.15.14-.15.14-.15.11h0l-.16.11-.15.14-.14.11h0l-.15.15h0l-.15.11-.15.14-.16.11-.15.11-.15.14h0l-.16.11-.15.14-.15.11h0l-.15.11-.16.14-.15.11-.16.11-.16.11-.15.14-.15.11h0l-.16.11-.16.11h0l-.15.14-.16.11-.15.11h0l-.15.11-.18.14h0l-.17.11-.18.14-.17.11h0l-.18.14-.18.11-.18.15-.18.11-.17.14h0l-.18.11-.17.14-.18.11-.18.11-.18.14h0l-.18.11-.18.15-.17.1h0l-.18.11h0l-.17.11h0l-.18.14-.18.11-.18.11-.19.11v0l-.17.11-.18.11-.18.11-.2.11-.18.14-.17.11h0l-.19.11-.18.11-.19.1-.18.11h0l-.18.11h0l-.18.11-.18.11-.18.1-.19.15-.19.11-.19.07v0l-.18.07-.18.11h0l-.18.11-.19.1-.18.11h0l-.18.11-.19.11-.19.11-.18.1h0l-.18.11h0l-.18.11h0l-.18.07-.19.11h0l-.18.11h0l-.18.11h0l-.2.07v0l-.18.08-.2.11h0l-.18.1-.19.08h0l-.19.1-.19.11-.19.07h0l-.19.11h0l-.54.29-.55.25-.55.26-.56.25v0l-.54.22-.56.25-.55.25-.57.26-.55.21h0l-.55.26h0l-.56.21-.56.26v0l-.57.22v0l-.57.22-.56.18-.56.21-.58.22-.57.18-.57.22-.58.18-.56.18-.58.18-.58.18-.57.18-.58.14-.58.18-.59.15-.57.18-.59.14-.58.15-.58.14-.59.15-.58.14-.59.11-.58.11-.59.14h0l-.6.11-.58.11-.59.1-.59.11-.6.11-.58.11-.6.07-.59.11-.6.07-.58.08-.6.07-.59.07-.6.07-.6.07-.59,0-.59.07-.61,0-.59,0-.6.08-.59,0h-.61l-.59,0-.6,0h-.6l-.6,0h-3.59l-.59,0h-.6l-.6,0-.59,0h-.61l-.59,0-.6-.08-.59,0-.6,0-.6-.07-.59,0-.59-.07-.61-.07-.59-.07-.59-.07-.6-.08-.59-.07-.59-.11-.59-.07-.6-.11-.58-.11-.6-.11-.59-.1-.59-.11h0l-.59-.11h0l-.58-.14-.59-.11-.58-.11-.59-.14-.59-.15-.58-.14-.59-.15L735,1855l-.59-.18-.58-.15-.57-.18-.59-.14-.57-.18-.57-.18-.58-.18-.58-.18-.57-.18-.58-.22h0l-.56-.18-.57-.22-.57-.21-.56-.18-.57-.22v0l-.56-.22v0l-.56-.26h0l-.56-.21-.56-.26-.56-.21h0l-.55-.26-.56-.25-.55-.25-.56-.22v0l-.55-.25-.55-.26-.55-.25Zm3.39-229.88h12.82V1601l-25.64-25.64-11.89-11.89c-.55-.56-1.1-1.1-1.66-1.64v-.07a81.65,81.65,0,0,1-17.82-29.36,83.46,83.46,0,0,1,3.57-63.49l.1-.19.1-.2.1-.2.09-.2.11-.2.09-.21.1-.18.11-.22.1-.2.1-.2h0l.1-.19.11-.2.11-.2.09-.2h0l.11-.2.1-.2.11-.19.11-.2h0l.11-.2h0l.1-.2.11-.18.11-.2.12-.2.11-.2h0l.11-.19.1-.2.12-.18v0l.11-.18.11-.2.11-.2.12-.2.12-.18.11-.19.12-.2.11-.2.12-.18.12-.2h0l.11-.18.13-.2.12-.2.11-.18.13-.2.11-.19.12-.18h0l.13-.2.13-.18.12-.2.12-.18h0l.12-.2.12-.18.13-.2.12-.18.13-.2.13-.18.12-.2h0l.13-.18.12-.18.14-.2.12-.17h0l.13-.18.14-.2.13-.18.13-.19.13-.19.12-.16.13-.17.11-.16.12-.16h0l.12-.16.12-.17.13-.16.12-.16h0l.12-.16h0l.12-.17h0l.13-.16h0l.13-.16h0l.12-.16.13-.16.11-.17.13-.16.13-.16h0l.12-.16h0l.13-.15v0l.12-.14.13-.16.13-.17.13-.16h0l.13-.16.13-.16.13-.15h0l.13-.15h0l.13-.16.14-.16.12-.15.14-.16.13-.16.14-.16.13-.15.14-.16.13-.16.13-.15.13-.16.14-.14.15-.17.13-.14v0l.14-.14.13-.15h0l.14-.16.14-.16.13-.15.15-.16.14-.14.14-.16.13-.15.15-.14.14-.17.15-.14.14-.14.14-.17.15-.14.13-.16.16-.15.14-.14.14-.14.15-.17.15-.14.15-.15.14-.14.14-.14.15-.15.14-.14.14-.13.14-.14.15-.15.13-.14.16-.13.13-.14.15-.15.14-.12.15-.15.14-.12.15-.15.15-.12.14-.15.15-.12.14-.15.14-.13.16-.12.14-.15.15-.12.14-.15.15-.12.15-.13.15-.12.14-.15.16-.12.14-.13.16-.13.14-.12.14-.15h0l.15-.12.15-.13.15-.13h0l.15-.12.15-.13.16-.12.14-.13h0l.14-.13.16-.12.15-.13.14-.11h0l.14-.12h0l.15-.13.15-.13.15-.11.15-.12.16-.13h0l.15-.11h0l.15-.11.16-.13h0l.16-.12h0l.15-.11.15-.13.15-.11v0l.17-.1.14-.11v0l.16-.11.16-.11.15-.12h0l.14-.11h0l.16-.13h0l.15-.11.18-.12.17-.13h0l.18-.12.18-.13.17-.13.18-.12v0l.17-.11v0l.18-.11h0l.18-.12.18-.13h0l.17-.12h0l.17-.13.18-.11.18-.12.18-.13h0l.18-.13.18-.1.18-.13.18-.13.18-.1.18-.13.18-.11.19-.13.17-.1h0l.18-.13.18-.11.18-.11h0l.19-.11h0l.18-.11.18-.11.18-.11v0l.19-.1.18-.11.18-.11.19-.11h0l.19-.12.18-.11.18-.11h0l.18-.11.19-.11h0l.18-.1.19-.11h0l.19-.09v0l.19-.09.18-.11h0l.19-.11.19-.11.19-.11.18-.09.18-.1.2-.11.18-.09.18-.11.19-.11.19-.09.19-.11.19-.09h0l.19-.1.18-.09.19-.11.2-.09.19-.09.18-.11h0l.2-.09.54-.27.55-.27.55-.25.55-.28.56-.25.55-.23v0l.56-.23.55-.24h0l.56-.25.56-.24.56-.21h0l.56-.22.56-.23.57-.22h0l.56-.2.57-.21.57-.2.56-.2h0l.58-.2.57-.18.58-.2.58-.18.57-.18.57-.16.59-.16.57-.18.58-.15.59-.16.57-.16.59-.15.58-.12.59-.15.59-.14.58-.13.59-.12.58-.11.59-.13h0l.59-.11.59-.1.6-.11.58-.11.6-.09h0l.59-.09.59-.09.59-.09.6-.07.59-.07.59-.08.61-.07.59,0,.59-.06.6,0,.6-.06.59,0,.6-.06.59,0h0l.6,0,.59,0h.6l.6,0,.59,0,.61,0h2.39l.59,0,.6,0,.6,0h.6l.59,0,.61,0,.59,0,.6.06.59,0,.61.06.59,0,.59.06.6,0,.6.07.59.08.6.07.58.07.6.09.59.09.6.09h0l.58.09.6.11.59.11.59.1.58.11.6.13.59.11.58.12.59.13.58.14.59.15.58.12.58.15.59.16.57.16.59.15.58.18.58.16.57.16.58.18.58.18.56.2.58.18.57.2.57.2.58.2.56.21.56.2h0l.57.22.57.23.56.22.56.21h0l.55.24h0l.55.25.57.24.55.23v0l.56.23.54.25.56.28.55.25.55.27.54.27.09-.11.09-.11.09-.09.09-.11h0l.09-.1.1-.09.09-.11.08-.11h0l.1-.11.09-.09.09-.11.09-.11.1-.09h0l.09-.1h0l.1-.11.09-.11.09-.09.09-.11.09-.09.1-.11.09-.11h0l.09-.1.1-.09.09-.11.1-.09h0l.1-.11.09-.11.09-.09.1-.11.09-.11.1-.08h0l.1-.11h0l.1-.09h0l.1-.11h0l.11-.09v0l.1-.09h0l.1-.11h0l.1-.09.09-.11.1-.09.09-.1.1-.09v0l.08-.09.11-.11h0l.09-.09.09-.11.09-.09.11-.11.09-.09.1-.11h0l.11-.09.09-.1.1-.09h0l.09-.09v0l.11-.09h0l.09-.11.1-.09.09-.11.1-.09.1-.09.1-.11.09-.09.2-.2.2-.2.2-.21v0l.2-.22.19-.2.21-.2.21-.2h0l.2-.19h0l.2-.2.22-.2.2-.2.21-.2.21-.19.2-.2.2-.18h0l.21-.2.21-.2.2-.2.21-.18.22-.2.2-.2.21-.18h0l.21-.19.2-.2v0l.21-.2h0l.21-.2.21-.18h0l.21-.18.22-.2.22-.18.21-.18.21-.2h0l.22-.18h0l.21-.18.22-.2.21-.18.21-.18.23-.18.21-.18.22-.18.22-.18.21-.18.23-.18.2-.2h0l.21-.16h0l.22-.18h0l.2-.18h0l.22-.18h0l.22-.18h0l.22-.18v0l.23-.19.21-.18h0l.22-.17.22-.17h0l.22-.18h0l.22-.16.23-.18h0l.23-.18.22-.16.22-.18.22-.17.23-.18.23-.16.22-.18.22-.16-.81-.49h0l-.82-.48-.82-.49-.83-.47-.82-.47-.84-.47-.83-.45-.84-.43-.84-.44-.84-.43h0l-.85-.41-.84-.42-.86-.41-.86-.38-.85-.4-.87-.38-.86-.37-.87-.37-.87-.35-.87-.35-.87-.34-.88-.32-.88-.33h0l-.88-.32-.88-.31-.88-.31-.89-.29-.9-.28h0l-.88-.28h0l-.89-.26-.89-.27h0l-.91-.25-.89-.25-.9-.24-.91-.23-.9-.22-.92-.21-.89-.22-.91-.2-.92-.18v0l-.91-.18-.91-.16h0l-.91-.18-.91-.16-.92-.14L773,1398l-.92-.14-.92-.13-.91-.13-.93-.1-.91-.11-.93-.09-.92-.09-.93-.09-.92-.07-.93-.08-.92,0h0l-.92-.06-.93,0-.92,0-.92,0-.93,0-.93,0h-1.86l-.92,0-.93,0-.93,0-.93,0-.93,0-.91.06-.93,0-.92.08-.93.07-.92.09h0l-.92.09-.92.09-.92.11h0l-.92.1h0l-.92.13-.91.13-.93.14-.91.15-.91.14-.93.16-.91.18-.91.16-.91.18v0l-.91.18-.92.2-.9.22h0l-.91.21-.9.22-.9.23-.9.24-.91.25-.9.25h0l-.89.27-.89.26h0l-.89.28h0l-.9.28-.88.29-.89.31-.89.31-.88.32-.88.33-.87.32-.87.34h0l-.86.35-.87.35-.87.37-.86.37h0l-.86.38-.87.4h0l-.85.38-.85.41-.86.42-.85.41-.83.43-.85.44-.84.43-.84.45-.83.47-.83.47h0l-.82.47-.82.49h0l-.83.48-.81.49-.19.13-.19.1-.19.13-.19.11-.19.12-.18.13-.2.11-.18.12-.18.11h0l-.19.13h0l-.19.12h0l-.19.11v0l-.18.11h0l-.19.13-.19.12h0l-.18.13-.19.13-.18.1v0l-.19.11-.18.12-.19.13-.19.13-.18.12-.18.13h0l-.18.13h0l-.18.12-.19.13-.18.14-.18.13-.19.13-.18.12-.19.13-.18.12v0l-.18.13h0l-.18.12-.18.13h0l-.17.15-.19.12-.17.13h0l-.18.14-.18.13-.18.12-.18.15-.18.14-.18.13-.18.14-.18.13-.17.14h0l-.18.13-.18.14-.17.13v0l-.18.13-.18.14h0l-.18.14-.18.15-.18.12h0l-.18.15h0l-.17.14-.18.15h0l-.17.12v0l-.18.14-.17.13h0l-.17.15-.18.14-.13.11h0l-.12.11-.14.1h0l-.12.11-.13.11-.13.11-.14.11-.11.11h0l-.13.09-.12.12-.13.11-.12.09-.14.11-.13.12-.12.11-.13.11-.12.11-.13.11-.13.11h0l-.12.1h0l-.13.11-.13.11-.11.13-.13.1-.13.11-.12.11-.13.11-.12.13v0l-.13.12-.13.11h0l-.12.11-.13.13-.12.1-.12.11-.13.11-.13.11-.12.12-.12.11h0l-.11.13-.13.11-.12.11h0l-.11.12-.13.11-.13.11-.12.12-.12.11-.12.13-.12.11-.13.12-.13.11-.12.13-.12.12-.12.11-.11.13-.13.11-.13.12-.11.11-.13.13-.12.11-.12.12-.12.13-.13.1-.11.13-.12.11-.17.18-.17.18-.17.16-.17.18-.18.18-.17.17-.17.18-.17.18-.16.16-.17.18-.16.18-.18.18-.17.16-.16.18-.16.18-.17.18-.17.18-.16.17-.16.18-.16.18-.17.18-.16.18-.16.18-.16.18-.17.18-.16.18-.16.18-.15.18-.17.18-.15.18-.16.18-.15.18-.16.18-.16.18-.16.18-.15.18-.16.18-.15.18-.15.2-.17.18-.14.18-.16.18-.15.2h0l-.15.18-.15.18h0l-.15.18-.14.2-.16.18-.14.18-.15.2-.15.18h0l-.15.18-.16.2-.14.18-.14.18h0l-.15.2-.15.18-.15.2-.14.17-.14.18-.14.2-.15.2-.14.18-.14.2h0l-.12.16-.13.18-.13.17h0l-.12.18-.13.16-.13.18-.12.16-.13.18-.13.16-.12.18-.13.18-.12.17h0l-.11.18-.13.18-.11.16-.12.18h0l-.12.18-.13.16-.11.18-.12.18h0l-.11.18h0l-.12.16-.13.19-.11.18-.12.18-.12.16h0l-.11.18-.12.18-.11.18-.12.16v0l-.13.16-.1.18-.12.18-.12.18-.11.18-.12.17-.11.18-.12.18-.11.18h0l-.11.18-.12.18-.11.18-.12.18-.1.18h0l-.11.18-.11.18-.12.18h0l-.1.18-.11.18h0l-.11.18-.11.18h0l-.1.18-.11.18-.11.18-.1.18h0l-.11.18-.11.18-.11.18-.1.18h0l-.12.18-.09.18-.11.2-.1.18-.11.18-.43.78-.43.77-.43.8-.41.77-.42.8-.39.79-.41.79-.38.79-.39.8h0l-.37.81-.37.79v0l-.37.8h0l-.35.81-.35.81-.33.81-.34.81-.33.83h0l-.32.81-.31.83-.31.83-.29.81h0l-.3.83-.29.83h0l-.27.83v0l-.28.83-.26.83-.26.83-.25.84-.25.85-.23.83-.23.85-.22.85-.23.84h0l-.21.85-.2.85-.2.85h0l-.18.84-.18.87-.18.85-.17.86-.17.85-.14.85v0l-.15.84-.14.87-.13.86-.13.87-.12.85-.12.86h0l-.1.87-.1.86-.09.87-.08.86h0l-.09.87-.07.86-.07.87,0,.87-.06.88,0,.87,0,.86,0,.87,0,.86,0,.87V1505a109.3,109.3,0,0,0,1.26,16.55l0,.23,0,.24,0,.23,0,.24,0,.23,0,.25,0,.24,0,.23,0,.24,0,.23,0,.23,0,.24,0,.24,0,.23h0l0,.23,0,.24,0,.23.05.24,0,.23,0,.24.06.23,0,.23,0,.24,0,.23h0l0,.24h0l0,.23.06.24h0l0,.23,0,.24.06.23.05.23.06.24.05.23,0,.24h0l.05.23.06.24,0,.21.06.25.06.22.05.24,0,.23.07.23h0l0,.24.06.23.06.24.06.23.07.22v0l.05.21.06.24.07.23.06.24.06.23.06.24.07.21.06.24.07.23.06.24h0l.07.23.06.21.07.24.07.23.06.24.07.23.07.22.23.74.24.74.23.74.24.74.25.74.25.73.26.74.26.73.27.72.28.74.28.72.28.74.3.72.29.72.31.72.3.7.32.73.31.72.33.7.32.72.33.7h0l.34.71.34.7.35.7.36.71.35.7.37.7.37.69.38.68.39.71.39.68.39.69.4.68.41.69.4.67.42.66.42.69.42.67.43.66.44.67.44.67.45.66.45.65.46.65.46.67.48.65.47.65.48.63.48.65.49.63.51.65.49.63.51.63.51.61.52.63.52.63.53.62.53.61.54.61.55.6.54.61.56.6.56.59.57.62,1.63,1.65,11.89,11.89,25.63,25.64ZM809.31,1434l-.22.22-.25.25-.06.07-.12.11-.07.07-.06.06-.07.07-.05,0-.06.08-.06,0-.07.07-.05.06-.06.07-.07,0h0l-.06.07-.07.06,0,0v0l-.06,0,0,.06-.07.07h0l-.06,0h0l-.07.08-.06,0h0l0,.07-.06.06-.06.07-.06,0-.06.08-.07,0,0,.07-.06.06-.06.07-.06,0v0l-.07,0h0l-.06.08-.06,0-.05,0-.06.08-.06.05-.07.07h0l-.06.08-.06,0-.07.07,0,.06-.06.07h0l-.06,0-.06.07-.06.06-.06.07h0l-.05.07-.07.06-.06.07h0l-.06,0-.06.08-.06.05-.06.07h0l-.07.07-.06.06,0,.07-.06,0-.06.07-.15.15v0l-.15.14h0l-.15.16h0l-.14.17-.13.16-.15.16-.14.15-.14.16h0l-.13.16-.15.16-.13.16-.15.17-.13.16-.14.14-.14.17-.14.16-.13.16h0l-.14.16h0l-.14.16-.14.17-.13.16-.13.16v0l-.14.16-.13.16-.13.17-.14.16-.13.16-.14.16h0l-.14.17-.12.18-.14.16h0l-.13.16-.13.16-.13.16-.14.17v0l-.14.16h0l-.13.16h0l-.14.16-.12.18h0l-.14.16-.12.17-.14.18h0l-.13.16-.12.16-.13.18h0l-.13.16h0l-.14.17-.13.18-.12.16-.13.18-.13.16h0l-.12.18-.13.17-.12.18-.13.18-.12.16h0l-.12.16-.13.18-.13.18h0l-.12.16-.13.18h0l-.13.18-.11.17-.13.18-.57.83-.57.82-.55.83-.54.85h0l-.55.85-.54.85-.53.86h0l-.52.85-.51.88-.5.87-.5.88-.48.89-.49.88-.47.9-.46.9-.45.89h0l-.45.91h0l-.44.92-.44.92-.41.92-.42.91-.4.92h0l-.4.94-.39,1-.37.94-.38.93-.36,1-.35,1-.35,1-.33,1-.34,1-.3,1-.32,1h0l-.29,1-.29,1-.28,1-.28,1-.26,1-.26,1-.25,1-.24,1h0l-.24,1h0l-.21,1-.21,1h0l-.2,1-.19,1-.18,1-.16,1-.17,1-.14,1-.15,1-.12,1-.12,1-.1,1-.1,1.07-.09,1-.08,1.06-.07,1.06-.05,1.07,0,1,0,1.08,0,1.07,0,1.06v72.11l25.63-25.62v-46.87l0-.72,0-.72,0-.72,0-.72,0-.72.06-.72,0-.72.06-.71.06-.72h0l.07-.7.07-.72.09-.71.09-.7.1-.7.09-.71.11-.7.12-.7.12-.69.12-.7.13-.69.14-.68.15-.69v0l.14-.68.15-.69.17-.66.16-.69.18-.68h0l.18-.67.18-.69.19-.66.19-.67.2-.67.2-.67.21-.64v0l.23-.65h0l.23-.67.22-.65h0l.23-.65.24-.64h0l.24-.66.25-.64h0l.25-.65.26-.63.26-.64h0l.27-.63.27-.64h0l.28-.63.29-.63.29-.61.29-.63.29-.61.31-.62.31-.61h0l.31-.61.32-.62.33-.59h0l.33-.6h0l.33-.61.35-.58.34-.59v0l.35-.58h0l.36-.59.12-.18.12-.2.11-.18v0l.12-.18.12-.2.12-.18v0l.12-.18.13-.19.11-.18.13-.2.12-.18.12-.2.12-.18h0l.13-.2h0l.12-.18.12-.18.13-.2.13-.18.13-.2.12-.18.13-.18.13-.2h0l.12-.18.14-.18.12-.18h0l.13-.18v0l.14-.18.12-.18.14-.18.13-.18h0l.14-.18v0l.13-.16.14-.2.14-.18.12-.18.15-.18.13-.18.13-.18h0l.13-.18.14-.18.14-.16.14-.18.13-.18.14-.18.14-.18.15-.18.13-.17h0l.14-.17.15-.18h0l.14-.18.15-.18.14-.16.15-.18.14-.16.14-.18h0l.15-.18.13-.17h0l.16-.18h0l.14-.16.15-.18h0l.14-.16h0c.29-.34.57-.67.86-1h0l.06-.08.06-.07.06-.05.06-.07h0l.06-.08h0l.06,0,.06-.07h0l.06-.07.07-.06.06-.07h0l.06-.07.06-.06h0l.06-.07.07-.07.06-.06.06-.07.06,0h0l.06-.07h0l.07-.08.06,0,.06-.07h0l.06-.06.07-.07h0l.06-.07.05,0,.07-.08.06,0,.07-.07h0l.07-.08.06-.05h0l.06-.07.07-.06.06-.07h0l.07-.05v0l.06,0h0l.06-.07.05-.06.07-.07.06-.06h0l.07-.07h0l.08,0h0l.06-.07.07-.06.06-.07.06-.06h0l.06-.06h0l.07-.07.06,0,.06-.06.06-.07.06,0,.13-.15.06,0,.19-.18.22-.24.22-.21h0l.22-.22.22-.22.23-.21.22-.24h0l.23-.19.22-.22.23-.22.22-.21.24-.22.23-.22h0l.24-.21.22-.2.23-.22.25-.2.24-.21.23-.2.23-.22h0l.24-.19.24-.22.24-.2.24-.2h0l.23-.2.25-.19h0l.24-.22v0l.24-.2.25-.2.24-.2.24-.2h0l.25-.2.25-.19.25-.2.24-.18.25-.2h0l.24-.2h0l.24-.18.25-.18.26-.2.25-.18h0l.25-.2h0l.26-.18.25-.18.26-.18.25-.18.26-.2v0l.26-.18.25-.18h0l.26-.18.26-.18.25-.18h0l.25-.18h0l.26-.16.26-.18.27-.18.26-.17.26-.18v0l.26-.18h0l.26-.16.27-.18.26-.16h0l.28-.17h0l.27-.16.27-.16.18-.12.18-.11.19-.11.18-.11h0l.18-.11.19-.11h0l.18-.11h0l.17-.1.2-.11.18-.11h0l.18-.11h0l.17-.09.19-.11.19-.1.18-.11h0l.19-.11.19-.11h0l.19-.09h0l.18-.11h0l.19-.09.19-.11.19-.1.19-.09.19-.11.19-.09.19-.11.18-.09.19-.11.2-.09.19-.09.19-.11.2-.09.19-.09.2-.11.19-.09h0l.19-.09h0l.18-.09h0l.2-.1.19-.09.2-.09h0l.19-.09.2-.1h0l.19-.09.2-.09.2-.09.19-.09.2-.09.19-.09.2-.09.2-.09v0l.19-.09.2-.09.2-.09.2-.09.2-.07.2-.09.2-.09v0l.19-.09.2-.09.2-.08h0l.19-.09h0l.2-.07.2-.09h0l.2-.07.44-.18.44-.18.44-.16.45-.17.44-.16.45-.16h0l.45-.16.44-.16.46-.15h0l.45-.16v0l.46-.17.45-.14h0l.44-.14h0l.45-.15.46-.12h0l.45-.15h0l.45-.12.46-.13.47-.15v0l.45-.12.46-.13.47-.13.47-.1.46-.13.47-.11h0l.46-.11.47-.11.48-.1.46-.09.47-.11.48-.09h0l.47-.09.48-.11.48-.07.48-.09.47-.09h0l.48-.08h0l.48-.07.48-.07.48-.07.49-.07.48-.07h0l.48-.06.48-.07.49-.06.49,0,.48,0,.5,0,.49,0,.49,0,.49,0,.49,0,.49,0,.5,0,.48,0,.5,0h0l.5,0,.49,0h.5l.5,0,.5,0h2.56l1.06,0,1.06,0,1.05.06,1.06,0,1,.08,1,.09,1,.09,1,.12,1,.13,1,.13,1,.16,1,.16,1,.18,1,.18,1,.2,1,.21,1,.24,1,.23,1,.26,1,.25h0l1,.29,1,.27,1,.3,1,.31,1,.33,1,.32,1,.34.95.36.94.36.93.38.93.4.92.4.92.41.92.42.9.43.9.45.9.43.88.47h0l.87.47.88.49.87.5.86.51.86.5.85.52.84.54.84.55.83.55.82.56.81.58.81.58.8.59.79.62.78.61h0l.78.61.76.63h0l.76.63h0l.76.65.74.67.74.65h0l.74.68.73.67.7.71.71.7.7.7.69.7.68.74.67.73h0l.66.73.66.76.64.76h0l.64.76.63.77.62.78h0l.61.77.61.8.58.81.59.79.57.83.56.81.56.83.53.83.55.85.52.85.51.86.52.87.48.86.49.87.47.88h0l.47.88.45.91.44.9.43.9.43.92h0l.41.92.39.92.4.94.38.92h0l.36.92.35,1,.34,1,.33,1h0l.32,1,.31,1,.29,1,.29,1,.28,1,.26,1,.24,1,.24,1,.22,1,.22,1,.2,1,.2,1,.17,1,.17,1,.15,1,.13,1,.13,1,.12,1,.09,1.05.09,1,.08,1,.06,1,0,1.06,0,1.05c0,.36,0,.7,0,1.06v1.06a82,82,0,0,1-5.78,30.3,120.81,120.81,0,0,1,15.06,12.8l.08.09.09.07.08.07.08.1.07.07.08.09.08.07.07.09.09.07.08.07.07.09.08.08.08.09.08.07.08.09.08.07.08.09.07.07.08.09.08.07.07.08.09.09.07.07.08.09.08.07.07.09.08.07.07.09.09.08.08.09.07.07v0l.08.07.07.07.07.09.09.09.07.07h0l.07.09.08.08.07.09.08.07.08.09h0l.07.07.07.09h0l.07.09.07.07h0l.07.09.08.07.08.09.07.08.08.09.07.07.08.09.08.09.07.07h0l.07.09.08.07.07.09.07.09.09.08.07.09.07.09.07.07h0l.08.09h0l.08.07.34-.67.33-.7h0l.33-.68.32-.69.33-.7.31-.69v0l.32-.68.3-.71h0l.3-.7.3-.7.3-.72.28-.71.28-.72.29-.72h0l.27-.72.27-.72.26-.72.25-.72.26-.74.24-.72.25-.74h0l.23-.74.24-.74.22-.74.23-.74.21-.74.21-.76.21-.74.2-.75.2-.76.18-.76.18-.74.19-.77.18-.76.16-.76.16-.77.17-.76.14-.78.15-.77.14-.78.14-.77.14-.78.12-.77.12-.78.11-.79.1-.78.1-.79.1-.77.09-.8.09-.79.08-.8.07-.79.08-.79.06-.8.05-.81,0-.79,0-.79,0-.82,0-.81,0-.81,0-.79,0-.81v-1.63c0-.47,0-.93,0-1.38l0-1.41,0-1.37-.06-1.39c0-.47,0-.92-.08-1.37l-.1-1.39-.11-1.37-.13-1.35c0-.47-.09-.92-.14-1.37l-.18-1.35-.17-1.36-.2-1.33-.21-1.33-.24-1.34-.24-1.33-.27-1.32-.28-1.32-.3-1.31-.3-1.3-.33-1.3-.34-1.3-.36-1.28-.38-1.3-.39-1.26-.4-1.26-.42-1.26-.43-1.26-.45-1.25-.47-1.24-.48-1.23-.5-1.23-.5-1.2v0c-.17-.4-.35-.8-.52-1.21l-.54-1.19-.55-1.21-.57-1.19-.58-1.17-.59-1.17-.61-1.16-.62-1.15-.63-1.15-.65-1.14-.65-1.14-.68-1.11h0l-.69-1.12-.7-1.1-.71-1.1-.72-1.08-.74-1.07-.75-1.08-.76-1-.79-1-.78-1-.8-1-.81-1-.82-1-.84-1-.84-1-.86-1-.88-1h0l-.87-1-.9-.94-.9-.93-.92-.94-.92-.9-1-.92-.94-.89-.95-.88h0l-1-.87-1-.86-1-.85-1-.83-1-.83-1-.81-1-.79-1-.78-1-.79-1.07-.76-1.06-.76-1.08-.73-1.09-.73-1.09-.7-1.11-.7-1.11-.69h0l-1.13-.66-1.11-.67-1.15-.65-1.14-.63L936,1415l-1.16-.62-1.17-.59-1.18-.58-1.19-.56-1.2-.56-1.2-.54-1.21-.52h0l-1.22-.51-1.22-.48v0l-1.24-.47-1.23-.47-1.25-.45-1.25-.43-1.26-.42-1.27-.39-1.28-.4h0l-1.28-.38-1.29-.36-1.28-.34-1.3-.33-1.31-.3-1.32-.31-1.3-.27-1.33-.27-1.32-.26-1.34-.21-1.34-.22-1.34-.2-1.35-.18-1.36-.16-1.35-.16-1.37-.13-1.37-.1-1.37-.09-1.38-.1-1.38,0-1.39,0-1.39,0-1.39,0h-.82l-.81,0-.81,0h-.81l-.81,0-.8,0-.8,0-.8.06-.8,0-.81.06-.79,0-.79.07-.8.08-.79.09-.79.07-.79.09-.79.11-.79.09-.78.1-.78.13-.78.11-.78.13-.78.12-.77.14-.78.15-.76.14-.77.15-.78.16-.75.16-.77.18-.76.17-.76.18h0l-.75.18-.77.19-.75.2h0l-.75.2-.75.22-.74.2-.75.21-.74.24-.75.21-.74.24-.73.23h0l-.74.25-.72.24-.74.25-.72.27-.73.25-.72.28-.71.26h0l-.71.28-.72.28-.71.29-.71.29-.7.31-.72.3h0l-.7.32-.69.31h0l-.71.3-.68.33h0l-.68.32-.69.35h0l-.69.32-.68.34-.2.11-.2.09-.19.11h0l-.21.11-.2.11-.2.09h0l-.2.1-.2.11-.19.11-.2.09-.2.11-.2.11-.21.1-.19.11-.2.11h0l-.39.22-.2.11h0l-.2.11-.39.21-.19.11-.2.11-.39.21h0l-.2.11-.19.11-.39.23-.19.11-.19.11-.39.24-.2.1-.18.13h0l-.58.34-.19.11h0l-.37.23h0l-.19.13-.76.47-.19.13h0l-.38.23-.19.13-.38.23h0l-.37.23-.18.13h0l-.19.13-.18.12-.19.13-.18.11-.19.12-.18.13-.19.13-.18.12-.19.13h0l-.26.18h0l-.28.18-.27.18-.26.2-.26.18-.26.18-.26.2h0l-.26.18h0l-.26.18-.25.2h0l-.25.2-.27.18-.26.17h0l-.26.2-.25.2h0l-.26.2v0l-.26.2-.25.2-.26.2-.25.2-.25.19-.26.2-.25.2-.25.2h0l-.25.2-.26.2-.24.19-.25.2-.25.2h0l-.25.22-.25.19-.25.2-.24.22-.25.2h0l-.24.22-.24.19h0l-.25.22-.24.2-.26.22-.23.21-.24.22v0l-.24.22-.25.21h0l-.24.22-.24.21-.24.22-.23.2-.24.23-.24.2-.24.24v0l-.23.23-.24.22-.24.22-.23.21-.23.22-.23.23-.24.22-.22.23h0l-.24.22h0l-.22.22-.23.23h0l-.23.22h0Zm155.94,243.19h0l.1.09h0l.11.09.11.09.09.09h0l.11.09h0l.1.1.11.09.09.09h0l.1.09.11.08.1.09.09.09.11.11.1.08h0l.1.1.1.09.1.1.11.09h0l.1.09.09.08.11.09.1.09.1.11.11.09.1.09.1.09.1.09.1.1.11.1.09.09.1.09.1.09h0l.1.11.1.09.1.09h0l.1.09h0l.11.09.1.11.09.09.11.09.09.09.1.11h0l.1.09.1.09.1.11.1.09h0l.1.09.1.11.1.09h0l.09.09.11.09.11.1h0l.08.09h0l.09.09h0l.09.11h0l.09.11v0l.1.11.1.09.1.09.1.11.1.09.1.11.19.18.2.22.21.19h0l.2.2h0l.21.2v0l.19.2h0l.2.2h0l.2.21h0l.2.2.2.2.2.21h0l.18.2.2.22.2.2.2.21h0l.2.2h0l.2.22h0l.19.2.2.21.19.22.18.2.2.21h0l.19.22.19.2h0l.19.22.19.21.19.22.19.2h0l.19.2.19.22.18.21.19.22.18.22.19.21.18.22.19.22.18.2h0l.18.22.19.2v0l.18.21.18.22.18.22.18.21.18.22.18.21.18.24.17.2h0l.18.22.18.22.17.22h0l.18.23.18.21h0l.18.22.17.24.17.21h0l.17.22.18.23h0l.17.22h0l.17.23.18.22.17.23.16.22.18.22v0l.17.21h0l.17.24.5-.83.48-.81h0l.48-.83.48-.81v0l.47-.81.46-.85.45-.83.43-.85.44-.83.43-.85.42-.84.41-.85.4-.87.4-.84h0l.39-.87.38-.85h0l.36-.87.37-.87.36-.86.35-.87h0l.34-.88.33-.87.33-.88.31-.88.31-.89.31-.88.29-.9.29-.89h0l.27-.88h0l.27-.9.26-.9h0l.24-.9.25-.89.24-.9.23-.92.22-.9.22-.9h0l.21-.9.2-.92.19-.9h0l.18-.92.17-.91.18-.91.15-.92.16-.92.14-.91.14-.93.13-.92.12-.9v0l.11-.92h0l.11-.92.1-.92.09-.92h0l.08-.92.07-.94.08-.92,0-.92.05-.93,0-.92,0-.92,0-.94,0-.92v-3.72l0-.92,0-.93,0-.92,0-.94-.05-.92h0l0-.92-.08-.92-.07-.94-.08-.92-.09-.92-.1-.92-.11-.92-.11-.93-.12-.92-.13-.92-.14-.9-.14-.92-.16-.92-.15-.92-.18-.92h0l-.17-.9-.18-.92h0l-.19-.9-.2-.92-.21-.91-.22-.9-.22-.92-.23-.9-.24-.9-.25-.9-.24-.89h0l-.26-.9-.27-.9h0l-.27-.88h0l-.29-.91-.29-.88-.31-.88-.31-.89-.31-.88h0l-.33-.88-.33-.87-.34-.88-.35-.87-.36-.86-.37-.89-.36-.86-.38-.85-.39-.86-.4-.87-.4-.85-.41-.85-.42-.84h0l-.43-.85-.44-.85-.43-.83-.45-.84-.46-.83-.47-.83-.48-.81-.48-.83-.48-.82h0l-.5-.82h0l-.12-.17h0l-.12-.2h0l-.11-.18-.13-.2-.11-.18-.12-.2-.12-.18h0l-.12-.18v0l-.12-.18h0l-.12-.18-.13-.2h0l-.11-.18h0l-.13-.18h0l-.12-.2-.12-.18h0l-.13-.18-.12-.2-.12-.18h0l-.13-.18-.13-.18-.12-.19-.12-.19-.12-.18-.13-.18-.13-.2h0l-.13-.17h0l-.13-.19-.12-.18-.13-.2-.13-.18-.13-.17-.13-.18h0l-.13-.19h0l-.12-.18h0l-.12-.18h0l-.14-.18-.13-.18-.13-.18v0l-.14-.16-.12-.2-.14-.18-.13-.18-.14-.16v0L978,1575l-.14-.18-.14-.18-.13-.18-.14-.16-.14-.18-.13-.2-.14-.16h0l-.14-.18-.14-.18h0l-.13-.18-.15-.18-.13-.18h0l-.14-.18h0l-.13-.17-.15-.18-.14-.18h0l-.15-.18-.14-.16-.14-.18-.15-.18h0l-.1-.13-.11-.12-.09-.13,0,0-.1-.12-.1-.13-.11-.12-.11-.13-.11-.13-.11-.12h0l-.1-.13-.11-.14-.11-.11-.11-.13-.11-.14-.11-.13-.11-.13-.11-.12-.1-.13-.12-.12h0l-.11-.13h0l-.1-.13-.12-.12h0l-.11-.13-.11-.13-.11-.12-.11-.13-.11-.12-.12-.13h0l-.12-.13-.11-.12h0l-.12-.13-.12-.12-.11-.11-.11-.13-.12-.12-.11-.13-.12-.13-.11-.12-.11-.13-.12-.13-.12-.12-.1-.11-.12-.13-.12-.12-.11-.13-.12-.13-.12-.1v0l-.12-.11-.11-.13h0l-.12-.12-.12-.13-.11-.13-.12-.1-.12-.13-.12-.13-.11-.12-.12-.11-.12-.13-.13-.12-.11-.11-.12-.13-.13-.12-.11-.13-.12-.11-.17-.18-.18-.16-.17-.18-.18-.16-.17-.18-.17-.16-.18-.19-.17-.16-.17-.16-.18-.18-.17-.16-.18-.16-.18-.17-.17-.18-.18-.16-.17-.16-.19-.16-.18-.17-.18-.16-.18-.16-.17-.16-.18-.17-.18-.16-.17-.16-.19-.16-.18-.17-.17-.16-.18-.16-.18-.14-.19-.18-.17-.15-.19-.16-.18-.16-.18-.15-.19-.16-.17-.16-.19-.15-.18-.16-.18-.14-.19-.16-.18-.15-.19-.16-.18-.15-.18-.16-.19-.14h0l-.19-.16-.18-.15-.19-.14-.18-.15-.19-.16-.18-.14h0l-.18-.15h0l-.19-.14v0l-.19-.14-.18-.15h0l-.18-.14-.19-.15-.19-.14h0l-.18-.15-.2-.14-.18-.14-.19-.15-.19-.14-.19-.15-.18-.12-.16-.13-.17-.13h0l-.16-.12-.17-.13-.17-.13-.18-.12-.17-.13-.17-.12-.18-.13-.16-.13h0l-.18-.12h0l-.17-.13-.17-.11-.18-.12-.17-.13h0l-.17-.12h0l-.17-.13-.18-.11-.17-.13-.18-.12-.18-.11-.18-.13-.17-.12-.18-.11-.17-.13h0l-.17-.11-.18-.12-.17-.11-.18-.12h0l-.17-.11v0l-.18-.11-.19-.11-.16-.12-.19-.11-.18-.11-.18-.13-.17-.1h0l-.18-.11-.18-.13-.18-.11h0l-.18-.11-.18-.1-.17-.13h0l-.18-.11-.17-.11-.18-.1-.19-.11-.17-.11-.18-.11-.18-.11-.19-.11-.17-.11-.19-.1-.17-.11h0l-.18-.11-.18-.11-.18-.1-.18-.11h0l-.17-.11-.19-.11-.18-.11-.18-.09L945,1546l-.78-.43-.78-.43-.78-.43-.78-.42-.8-.41-.79-.4-.79-.4-.8-.38-.79-.39h0l-.8-.36-.8-.38h0l-.8-.36h0l-.8-.36-.81-.34h0l-.81-.35-.81-.34-.82-.31h0l-.81-.32-.82-.33-.83-.3-.82-.29h0l-.82-.31-.83-.27v0l-.83-.27h0l-.83-.27-.84-.25-.84-.27-.83-.25-.84-.26-.84-.23-.85-.22-.85-.23-.84-.22h0l-.85-.19v0l-.85-.2-.85-.2h0l-.85-.18-.84-.18L913,1534l-.84-.18-.86-.16-.86-.15h0l-.85-.14-.86-.15-.86-.12L907,1533l-.87-.12-.85-.13h0l-.86-.11-.86-.09-.87-.09-.86-.09h0l-.87-.07-.88-.07-.85-.08h0l-.88,0-.86,0-.87-.06-.87,0-.87,0-.87,0-.87,0h-1.74a110.61,110.61,0,0,0-16.55,1.26l-.23,0-.24,0-.24,0-.24,0-.23,0-.23,0-.24,0-.23,0-.24.06-.24,0-.24,0-.23,0-.24,0-.23,0-.24,0-.23.06-.23,0-.24.06-.23,0-.24.06-.23,0-.24,0-.23,0-.23,0-.24,0h0l-.23,0-.24.06-.23,0v0l-.24,0-.23.05-.24.06-.23,0-.23.06-.23.05h0l-.23,0h0l-.23.06-.23,0-.24.06-.23.05-.24.06h0l-.22.07-.23,0h0l-.24.05-.23.06-.24,0-.22.07h0l-.24.06h0l-.23.07-.23.06-.23,0-.23.07-.24.06-.23.07-.23,0-.23.08-.23,0-.23.07h0l-.23.07-.24.06-.22.07-.24.07-.23,0-.22.08-.24.07-.74.23-.74.24-.74.23-.73.24-.74.25-.74.25-.73.25-.73.28-.73.27-.73.27-.72.28-.73.28-.72.3-.72.29-.73.31-.72.3-.71.31-.71.32-.72.33-.7.32-.71.35-.72.32-.69.34v0l-.71.34h0l-.7.36-.7.37-.69.35-.7.37h0l-.7.38-.69.38-.68.38-.69.4-.69.39-.67.42-.68.4-.67.41-.68.43-.67.42-.66.43-.67.45-.67.43-.66.45-.65.45-.66.46-.65.46-.65.47-.65.47-.65.49-.64.49-.63.48-.64.51-.63.48-.63.53-.63.5-.63.53-.62.52-.62.52-.6.54-.62.54-.61.54-.6.54-.61.56-.59.56-.6.56c-.56.54-1.12,1.08-1.67,1.64l-11.89,11.89L777.27,1601v18.12H795.4L821,1593.47l11.89-11.89q.83-.82,1.62-1.65h.09A81.71,81.71,0,0,1,864,1562.09a83.72,83.72,0,0,1,63.49,3.57l.2.11.2.09h0l.21.11.2.09.2.11.19.09.2.11.21.1.2.09.2.11.2.09.19.11.2.11.2.11h0l.19.11.2.09.2.12.19.09h0l.19.11.2.11.2.11.2.1.19.13.19.11h0l.2.11.19.1h0l.2.11h0l.2.11v0l.19.11.2.11.19.1.19.13.19.11h0l.2.12.19.11.2.13.19.11h0l.19.12.2.11.19.13.18.12.19.11.19.13.19.11h0l.19.11.18.13h0l.2.13.19.12.19.13h0l.19.12h0l.19.13.19.13.18.12.19.13.19.13.18.12.19.13.18.14.2.13.18.12.18.13.19.15.19.12.18.13.17.12.17.13.16.11.16.12h0l.16.13.17.13.16.1.16.13h0l.15.13h0l.15.11h0l.16.12h0l.15.13h0l.15.12h0l.16.13h0l.17.13h0l.16.12.16.13h0l.15.13.17.12h0l.16.13h0l.16.12.15.15.17.12.16.13.15.13.16.12h0l.16.15.16.12.15.13.16.13.16.14.16.13.15.14.16.13.16.14.15.13.16.14.16.13.15.14.16.13.15.14h0l.15.13.15.14.16.15.15.14.15.13.16.14.15.15.15.14.16.14.15.13.16.15.14.14.15.14.16.15.14.14.15.15.15.14.15.15.16.14.14.16.15.14.15.15.15.14.13.15.15.14.13.13.15.16.14.13.13.14.14.15.14.14.14.15.14.14.13.14.14.15.13.14.15.15.13.14.14.15.13.14h0l.13.14.13.15.14.16.13.14.14.15.13.14.13.15.13.14.13.16.13.15h0l.14.14.12.15.13.16.13.14.13.15.12.14.14.16.12.15.12.14.13.16.13.15.12.16.13.15.12.14.13.16h0l.12.14.13.17.12.14.13.16.11.15.12.14v0l.12.14h0l.12.15h0l.12.16h0l.12.16h0l.12.15h0l.11.16.13.14.11.17h0l.12.16.12.14h0l.12.17.11.14.12.16h0l.12.16.11.15v0l.11.14.13.18.12.18h0l.12.16.13.18.12.19.13.18h0l.12.17h0l.12.19.13.16h0l.13.18.12.18.13.18.12.18.11.18h0l.13.18h0l.12.18.11.18h0l.13.18.12.18h0l.11.18.12.18.13.18.1.18.12.18h0l.11.18.12.18.11.18h0l.11.2h0l.11.18.12.18.11.18.11.18.11.18.12.18v0l.11.18.11.18.1.18.11.2.11.18.11.18.1.18.11.2h0l.11.18h0l.11.2.11.18h0l.1.18.1.2.11.18.1.18v0l.1.18h0l.11.18h0l.1.19.1.19h0l.1.18h0l.1.19h0l.09.19.11.18.09.2.1.18.1.18v0l.1.18.1.2.09.18h0l.1.2.27.54.26.56.27.54.25.56.26.54.25.56h0l.24.56.25.55.23.57h0l.24.55h0l.23.56.21.56.22.56.22.58h0l.21.56.2.57.2.56.2.58.2.58.19.56.19.57.17.58.18.58.17.57.17.58.16.58.17.57.15.6.15.58.15.57.14.6.14.57.13.6.14.58.12.59.12.58.12.59.11.58.11.6.1.59.1.6.1.59h0l.09.58.09.59.08.6.08.59.07.6.08.59.06.6.06.59.06.6,0,.59.06.6,0,.61.05.6,0,.59,0,.6,0,.59,0,.6,0,.59v.6l0,.61v2.38l0,.61v.6l0,.59,0,.6,0,.59,0,.6h0l0,.59-.05.6,0,.61-.06.6,0,.59-.06.6-.06.59-.06.6-.08.59-.07.6-.08.59-.08.6-.09.57-.09.6h0l-.1.6-.1.59-.1.6-.11.57-.11.6h0l-.12.59-.12.58-.12.59-.14.58-.13.6-.14.57-.14.58-.15.59-.15.58-.15.58-.17.59-.16.56-.17.6-.17.57-.18.58-.17.56-.19.58-.19.58-.2.57h0l-.2.58-.2.56-.2.58-.21.55h0l-.22.56-.22.58-.21.56h0l-.23.56-.24.56-.23.56h0l-.25.56-.24.55h0l-.25.56-.26.54-.25.56-.27.54-.26.56Zm-37.78,37.22A83.61,83.61,0,0,1,864,1718a120.73,120.73,0,0,1,10.86,29,110.58,110.58,0,0,0,16.55,1.23,108.57,108.57,0,0,0,53.65-14.1,69.17,69.17,0,0,0-10.62-13.63A71.55,71.55,0,0,0,927.47,1714.44Zm-362.29-33.92h0l.1.15.1.12.11.15.1.14.1.13.1.14.1.15.11.12.1.15h0l.1.14.11.13.1.14.11.13.1.14.11.13.1.14.11.15.11.12.11.15.1.12h0l.11.13.1.15.1.12v0l.11.12.11.13h0l.1.15.11.12.11.13.12.14h0l.11.13h0l.11.12.11.15.12.13.11.12.1.13.12.14.11.13.12.12.12.15.11.12.12.13.11.13.12.12.11.13.12.13.12.14.11.13.12.12.12.13.12.13.12.12.11.13.13.12.11.13.12.13.13.12.12.13.11.13.13.12.12.13.12.12.13.13.12.13.12.1.18.18.17.17.18.18.17.16.18.18.17.16.17.18.18.16.18.17.18.16.18.16.17.16.18.18.18.17.18.16.18.16.18.16.18.17.19.14.18.16.18.16.19.17.18.16.18.14.19.16.19.15.19.16.18.15.19.16.19.14.18.16.19.15.19.16.2.15.18.14.2.14.18.15.2.16.18.15.2.14.19.14.19.15.2.14.19.13.2.14.2.15.18.14.2.13.2.14.2.15.19.12.2.15.2.12.19.15.21.14.2.13.2.12.2.15h0l.19.12.2.13h0l.21.13h0l.2.12.2.15.2.12.59-.36.59-.34c.4-.24.79-.47,1.19-.68h0l.59-.33.61-.34,1.21-.63h0c.81-.42,1.63-.83,2.45-1.23.63-.29,1.25-.6,1.88-.87l1.26-.55c.63-.28,1.27-.53,1.92-.8v0l.63-.27.65-.23h0l.65-.26.64-.23h0l1.31-.45.66-.22c.44-.16.87-.29,1.32-.43s.89-.27,1.33-.42l.66-.18.68-.19.68-.19h0l.66-.16.69-.18.68-.16.68-.16.69-.16.68-.15.7-.14.68-.13v0l.69-.12h0l1.39-.24.71-.12.69-.11.7-.09h0l.71-.09c.47-.07.93-.13,1.4-.18l.71-.07.72-.08h0l.71-.07.71,0,.72-.06.71,0,.73,0,.72,0,.72,0h0l.73,0,.72,0h46.85L698.07,1661H626l-1.07,0-1.07,0-1.07,0-1.07,0h0l-1,0-1.06.08-1.07.09-1,.07-1.06.11-1,.1-1.05.13-1,.13-1,.12-1,.17v0l-1,.16-1,.18-1,.18-1,.18-1,.2-1,.2h0l-1,.21-1,.24-1,.23-1,.24-1,.25-1,.27-1,.27-1,.29-1,.29h0l-1,.29-1,.32h0l-1,.31-1,.32h0l-1,.34-1,.35h0l-1,.36-1,.36v0l-.95.38-1,.38-.93.39-.94.4-.93.4-.93.41-.92.43-.91.42-.92.45-.91.45-.89.45-.9.47v0l-.89.49h0l-.89.47-.88.48-.88.51-.87.5-.87.51-.86.52-.87.53-.84.52-.85.56-.84.54h0l-.83.56-.83.56Zm247.61,127.9-.65-1.22c-.41-.8-.82-1.63-1.22-2.46-.29-.61-.59-1.26-.87-1.87l-.28-.62-.27-.64c-.27-.65-.53-1.27-.79-1.92l-.25-.65-.25-.64h0l-.24-.65-.24-.65h0c-.16-.44-.31-.87-.45-1.3l-.23-.65-.43-1.33-.4-1.34-.19-.65-.19-.68-.18-.69-.18-.65-.17-.68-.16-.69-.17-.68-.15-.69-.14-.68-.15-.69-.14-.68-.13-.73-.12-.68-.12-.68-.12-.69-.11-.72-.09-.69h0l-.1-.72-.09-.68-.09-.72-.07-.73-.07-.68v0l-.06-.68-.06-.72,0-.73-.06-.72,0-.72,0-.72,0-.72,0-.72,0-.72v-46.87l-25.63-25.64v71.07a107.64,107.64,0,0,0,19.51,61.84,69.92,69.92,0,0,0,8.43-7.17l.17-.18.17-.18.18-.15.16-.18.18-.18.16-.18.17-.18.17-.18.16-.18.18-.18.16-.18.16-.18.16-.14h0l.16-.22.17-.18.16-.18.16-.18.15-.18.17-.18.16-.18.16-.18.15-.18.17-.18.15-.18.15-.19.15-.18.16-.21.16-.18.15-.18.15-.18.15-.18.16-.22.15-.18.14-.18.15-.18.15-.22.14-.18.16-.18.14-.21.15-.18.14-.18.14-.22.15-.18.14-.18.14-.22.14-.18.14-.21.14-.18.14-.19h0l.13-.21.14-.18.14-.22.13-.18.14-.22.13-.18.14-.21.13-.18.13-.22h0l.13-.22h0l.13-.17.13-.22.13-.18.13-.22.13-.21-.36-.58h0l-.35-.58c-.24-.4-.46-.79-.69-1.19l-.33-.61h0ZM927,1582.25c-.39.24-.78.45-1.18.69l-.59.32h0l-.61.33h0l-1.21.64q-1.22.63-2.46,1.23c-.62.29-1.24.6-1.87.87l-1.26.55c-.64.26-1.27.53-1.92.78l-.64.25h0l-.65.26-.64.25v0l-.64.25c-.44.15-.87.31-1.31.45l-.65.22h0l-1.33.43-1.33.4-.67.2-.66.2h0l-.66.18-.68.18v0l-.67.18-.68.16-.68.16-.69.17-.68.14h0l-.69.14-.69.13-.69.15-1.4.23-.7.11-.69.11-.71.1h0l-.7.09c-.47.08-1,.13-1.42.18l-.71.08-.71.07h0l-.71.07-.71,0-.72.06-.72,0-.72,0-.72,0-.72,0-.72,0-.74,0H840.2l-25.63,25.64h71l1.07,0h1.07l1.07,0,1.07,0,1.06,0,1.07-.07,1.06-.05,1-.09,1.07-.09,1-.09,1.06-.11,1.05-.13,1-.13,1-.14,1-.14h0l1-.15,1-.18,1-.16,1-.2,1-.2h0l1-.2,1-.23v0l1-.24h0l1-.23,1-.24,1-.27,1-.25,1-.27,1-.29,1-.29,1-.3v0l1-.33,1-.31,1-.34,1-.32h0l1-.35,1-.36,1-.36.94-.36,1-.39.94-.38.94-.4h0l.92-.4.93-.41.92-.43.92-.44.91-.43h0l.91-.45h0l.91-.45.9-.47.88-.47.89-.47.89-.48.88-.51.88-.5.85-.51h0l.87-.52h0l.85-.52.85-.54.85-.55h0l.84-.54.83-.56.84-.55.83-.58-.1-.15-.11-.12v0l-.09-.13-.11-.14h0l-.1-.15-.1-.12-.1-.15-.11-.14-.1-.13h0l-.11-.14h0l-.09-.13-.11-.14-.1-.15-.11-.12h0l-.1-.15-.11-.12-.1-.15-.11-.12-.1-.15h0l-.12-.12-.1-.15h0l-.1-.12-.11-.13-.11-.14-.1-.13h0l-.1-.15h0l-.11-.12h0l-.11-.14h0l-.11-.13-.11-.13-.11-.14-.12-.13-.1-.12-.12-.13-.11-.14-.12-.13-.12-.13-.1-.12-.11-.15-.12-.12-.11-.13h0l-.12-.13-.11-.12-.12-.13h0l-.11-.14-.11-.13-.12-.13-.13-.12h0l-.11-.13-.12-.12-.12-.13-.11-.13-.12-.12-.12-.13-.12-.13-.12-.12-.13-.13-.12-.12-.12-.13-.12-.13-.12-.12-.13-.13-.12-.12-.12-.11-.18-.18-.17-.17-.17-.18-.18-.16-.17-.18-.18-.16-.17-.18-.18-.16-.18-.17-.17-.16-.18-.18-.18-.16L938,1589h0l-.18-.17-.18-.16-.19-.16-.18-.16-.18-.16-.18-.17-.18-.14-.19-.16-.18-.16-.18-.17-.19-.14-.19-.16-.18-.17-.19-.14-.18-.16-.18-.15-.19-.16-.19-.14-.19-.15-.19-.16-.19-.14-.19-.15-.19-.16-.2-.15-.19-.14-.19-.14-.19-.15-.18-.14h0l-.18-.15-.2-.14-.19-.15-.2-.14-.19-.13-.2-.14-.2-.14-.18-.13v0l-.2-.12-.2-.15-.2-.13-.2-.14-.2-.12-.19-.15-.2-.13-.2-.12h0l-.2-.15-.2-.12h0l-.19-.13h0l-.21-.12-.2-.15h0l-.2-.13-.21-.12-.58.36h0l-.59.34Zm-76.61-130.91h0l-.24.13-.23.14h0l-.22.15h0l-.24.14-.22.13h0l-.23.15-.23.13-.23.16-.22.12v0l-.23.15h0l-.45.28-.22.15-.22.16-.45.29h0c-.44.31-.88.61-1.32.94s-.88.63-1.3,1q-1.51,1.14-3,2.37h0l-.41.36h0c-.35.28-.69.59-1,.88l-.42.38-.2.18-.59.56-.21.18-.2.18-.2.2-.18.18h0l-.19.2v0l-.2.2h0l-.2.19-.19.18-.2.2-.2.22-.1.09-.1.11-.11.11-.1.1-.1.09h0l-.1.11h0l-.1.11h0l-.09.11-.11.09v0l-.11.09h0l-.11.1h0l-.1.11-.1.11h0l-.1.11-.1.11h0l-.1.09v0l-.1.09-.1.1-.1.11h0l-.1.11-.09.11-.11.11-.09.11-.09.1-.1.11-.09.11-.11.11h0l-.09.11-.09.1-.11.11h0l-.1.11-.09.11-.1.11-.09.11h0l-.1.1h0l-.09.11h0l-.09.11-.1.11h0l-.09.11h0l-.1.1h0l-.08.09v0l-.1.11-.09.11-.09.1-.1.11-.08.11-.1.13-.09.11-.09.11h0l-.09.1-.09.11-.09.13-.09.1-.08.11-.09.11-.09.11v0l-.09.11-.09.11-.09.1h0l-.09.13-.09.11h0l-.09.1h0l.25.55.25.52.25.54.25.54.23.54.24.54.22.54.23.54.21.55.23.54.22.54.2.56.21.54.2.56.2.54.2.56.18.54h0l.2.55.18.56h0l.18.55.17.56.16.56.17.56.16.56.16.56.16.56.14.56.14.57.15.56.14.56.14.58.13.56.12.57.13.56.11.58.12.58.1.56.11.57.11.56.09.58.1.58.09.57.08.58.08.58.08.58.07.55.07.58.07.58.06.57.07.58.05.58,0,.58.06.59,0,.58,0,.58,0,.57,0,.58,0,.58,0,.57,0,.58V1505a83.36,83.36,0,0,1-4.61,27.4l.42-.21.43-.22.43-.23.44-.22.43-.22.44-.21.43-.22.43-.22.44-.21.43-.22.44-.2.44-.19.44-.22.44-.2.44-.2.45-.2.44-.21.44-.18.44-.2.45-.2.44-.18.44-.2h0l.46-.18.45-.2.45-.18.45-.18.44-.18.45-.18.45-.16.45-.18.46-.18.45-.16h0l.46-.17.46-.17.45-.17h0l.46-.16.45-.16.46-.17.45-.16v0l.46-.16.47-.16.46-.15.45-.16.46-.15.47-.14.46-.14.47-.15.46-.14.46-.15.47-.12.47-.15.46-.14.47-.13h0l.46-.12.47-.13.46-.13.47-.12.47-.13.47-.12.48-.13.47-.11.48-.11.46-.12.47-.11a108,108,0,0,0,1.27-16.55v-2.62l0-.86,0-.87,0-.86,0-.87,0-.88-.07-.87h0l-.06-.87-.07-.86-.08-.87h0l-.08-.86-.1-.87-.1-.86-.11-.87h0l-.11-.86-.12-.85-.13-.87-.13-.86-.14-.87-.15-.84v0l-.16-.85-.16-.85-.17-.86-.17-.85-.18-.87-.19-.84h0l-.2-.85-.21-.85h0l-.2-.85h0l-.22-.84-.22-.85-.24-.85-.23-.83-.25-.85-.25-.84-.26-.83-.26-.83-.27-.83v0l-.28-.83-.29-.83-.29-.83-.3-.81-.32-.83-.31-.83-.31-.81-.33-.83-.33-.81-.34-.81-.36-.81-.35-.81h0l-.36-.8v0l-.37-.79-.38-.81h0l-.38-.8-.38-.79-.4-.79-.41-.79-.4-.8-.43-.77-.42-.8-.42-.77Zm-151.92,18c.22.39.46.77.69,1.17l.32.61.33.6h0l.65,1.21c.42.81.82,1.62,1.22,2.45.3.63.58,1.24.87,1.87l.27.63h0l.27.64c.27.63.54,1.28.79,1.91h0l.25.65.24.64.25.66.24.64.45,1.3.23.67c.14.43.29.87.42,1.31s.28.89.4,1.34l.2.67.19.66h0l.18.69h0l.18.67.17.68.17.69.15.66.16.69.15.68v0l.14.69.14.68h0l.12.69h0l.13.7.11.69.11.7.11.7.1.71.1.7.09.7.08.71.08.72.08.7.06.72.06.71,0,.72.05.72,0,.72,0,.72,0,.72,0,.72v.72l0,.74v46.13l25.64,25.62v-71a107.6,107.6,0,0,0-19.51-61.84,67,67,0,0,0-8.43,7.15l-.18.19-.17.18-.17.16-.17.18-.16.18-.17.16-.18.18-.17.18-.16.18-.16.18-.17.18-.16.16-.17.19h0l-.16.16-.17.18-.16.19-.16.19-.17.17-.15.19-.15.18-.17.19-.16.18-.15.18-.16.19-.16.18-.15.18-.15.2-.16.18-.15.18-.15.2-.16.18-.14.18-.15.2-.15.2-.15.18-.15.2-.15.18-.14.2-.15.18-.15.2-.14.19h0l-.14.18-.15.2-.14.2-.14.2-.14.2-.14.18-.14.2-.14.19-.14.2-.13.2-.14.2-.13.2-.14.2-.13.19-.14.2-.12.2h0l-.14.2-.14.2-.12.21h0l-.13.2h0l-.12.2h0l-.13.2-.12.2.35.59.34.58Zm65.21,181.45,1.66-1.68,1.66-1.66h0l7.39-7.39-7.39-7.39h0l-1.66-1.68-1.66-1.66h0l-7.4-7.39-7.39,7.39h0l-1.67,1.66-1.67,1.68-7.39,7.39,7.39,7.39,1.67,1.66,1.67,1.68,7.39,7.39Zm73.57,215.48h0l.68.32.69.33h0l.69.32.68.36v0l.68.33.71.32h0l.69.33.7.29.72.32.7.29.71.29.71.29.72.29.71.28h0l.71.26.72.28.73.26.72.25.74.25.72.25.74.26h0l.73.21.74.26.75.21.74.22.75.22.74.21.75.22.75.18.75.22.77.18.75.18.76.18.76.18.77.14.75.18.78.15.77.17.76.15.78.14.77.11.78.15.78.14.78.11.78.11.78.1.79.11.79.08.79.1.79.08.79.1.8.08.79.07.79,0,.81.07.8,0,.8,0,.8.07.82,0h.8l.8,0h1.62l.82,0c.46,0,.93,0,1.39,0h1.39l1.39-.07,1.38,0,1.38-.1,1.38-.07,1.36-.15,1.37-.11L898,1877l1.35-.18,1.35-.18,1.34-.18,1.34-.22,1.34-.25,1.32-.22,1.33-.29h0l1.3-.29,1.32-.28,1.31-.29,1.3-.33,1.28-.36,1.29-.36,1.28-.36,1.28-.4,1.27-.39,1.26-.44,1.25-.43,1.25-.43,1.23-.47,1.24-.51,1.22-.46,1.22-.51h0l1.21-.54h0l1.2-.54,1.2-.54,1.19-.58h0l1.18-.57,1.17-.58h0l1.16-.61,1.16-.62,1.14-.65,1.15-.65,1.11-.65,1.13-.68h0l1.11-.69,1.11-.68,1.09-.72h0l1.09-.72,1.08-.76,1.06-.72,1.07-.76,1-.79,1-.8,1-.79,1-.83,1-.79,1-.83,1-.87,1-.86,1-.87h0l.95-.86.94-.91,1-.9.92-.93.92-.91.9-.93.9-.94.87-1,.88-1,.86-1,.84-1,.84-1,.82-1,.81-1,.8-1,.78-1,.79-1,.76-1,.75-1.08.74-1.05.72-1.12.71-1.08.7-1.11.69-1.09.68-1.11.65-1.16.65-1.12.63-1.15.62-1.15.61-1.16.59-1.19.58-1.19.57-1.19.55-1.19.54-1.19.52-1.23.5-1.19.5-1.22h0l.48-1.23.47-1.26.45-1.23v0l.43-1.23.42-1.26.4-1.26.39-1.3.38-1.26.36-1.3.34-1.3.33-1.3.3-1.3.3-1.29.28-1.34.27-1.3.24-1.33.24-1.34.21-1.33c.07-.47.14-.9.2-1.37l.18-1.33.17-1.34.14-1.37.13-1.37.11-1.37.1-1.37.08-1.37.06-1.41,0-1.37,0-1.4c0-.47,0-.94,0-1.37v-1.63l0-.83,0-.79,0-.79,0-.83,0-.8,0-.79,0-.83-.05-.79-.06-.8-.08-.79-.07-.79-.08-.8-.09-.79-.09-.79-.1-.8-.1-.75-.1-.8-.11-.79-.12-.76-.12-.79-.14-.8-.14-.75-.14-.76-.15-.79-.14-.76-.17-.76-.16-.79-.16-.76-.18-.76-.19-.75-.18-.76-.18-.76-.2-.76-.2-.75-.21-.74-.21-.76-.21-.74-.23-.74-.22-.76-.24-.73-.23-.73-.25-.73-.24-.73-.26-.74-.25-.72-.26-.72-.27-.74-.27-.7-.29-.72-.28-.72-.28-.71-.3-.7v0l-.3-.7-.3-.7h0l-.3-.71-.32-.7-.31-.7-.33-.69-.32-.68h0l-.33-.69-.33-.7h0l-.34-.69-.11-.2h0l-.1-.2-.1-.19h0l-.11-.2h0l-.1-.2-.11-.2h0l-.1-.2-.1-.19-.11-.2-.11-.2-.1-.2-.11-.2-.11-.21-.1-.18v0l-.1-.18-.11-.2-.11-.2-.11-.2-.1-.2-.11-.2-.11-.19-.11-.2-.12-.2-.11-.18-.1-.2-.12-.2h0l-.11-.19-.11-.2-.11-.18-.11-.2-.12-.2-.11-.2-.12-.18-.11-.2-.11-.18v0l-.12-.18-.11-.19-.12-.18v0l-.11-.18-.13-.2h0L978,1713l-.11-.2-.13-.2-.11-.18h0l-.12-.2-.12-.18-.13-.2h0l-.1-.18h0l-.13-.2h0l-.12-.17h0l-.12-.2-.12-.18h0l-.13-.18v0l-.11-.18-.12-.18-.13-.2-.12-.18-.13-.18-.12-.2-.13-.18h0l-.12-.18-.13-.2-.12-.18-.13-.18-.18-.27h0l-.19-.27-.18-.25v0l-.18-.25-.19-.27-.18-.26-.19-.27-.19-.25v0l-.19-.25-.19-.25h0l-.19-.27-.19-.25-.18-.28-.2-.25-.19-.25-.19-.27h0l-.2-.25h0l-.19-.26-.2-.25v0l-.2-.23-.18-.27-.2-.25h0l-.2-.26-.2-.25-.2-.25h0l-.2-.25h0l-.2-.26h0l-.2-.25-.21-.25-.2-.23-.21-.26h0l-.2-.25-.2-.25-.22-.24-.2-.25-.2-.25-.22-.23-.21-.26-.21-.23-.2-.26-.22-.23h0L967,1698h0l-.21-.24h0l-.21-.23-.22-.25-.21-.24-.22-.23-.21-.24-.22-.23v0l-.22-.23h0l-.22-.24-.21-.23-.23-.24-.21-.23h0l-.23-.24-.23-.23h0l-.21-.23-.23-.22-.22-.24h0l-.23-.23-.23-.23h0l-.24-.24h0l-.23-.22-.23-.23-.24-.23-.06-.08-.13-.12-.05-.06-.07-.07-.06,0-.06-.06-.07-.07-.06,0-.06-.06-.07-.07-.06-.05-.06-.07-.07-.06-.06-.07v0l-.05-.07h0l-.06-.06h0l-.07,0,0-.08h0l-.06-.05h0l-.06-.07,0-.06h0l-.06,0-.07-.07v0l-.06-.08-.06,0-.07-.07-.06-.06h0l-.06,0-.07,0-.06-.08-.06,0h0l-.06-.07h0l-.06-.06-.06,0-.06-.06-.07-.07h0l-.06,0-.06-.06h0l-.07-.07-.06-.05-.06-.07h0l-.07-.07-.06,0h0l-.06-.06-.06-.07-.07,0-.06-.06h0l-.06,0-.07-.07-.06-.06-.07,0-.07-.06-.06-.07-.06,0h0l-.06-.06-.07-.07-.07-.05-.06,0-.07-.06-.15-.14h0l-.15-.15-.15-.14-.17-.13-.15-.14-.16-.15L957,1688l-.15-.15h0l-.15-.12-.16-.15-.17-.14-.16-.14-.15-.13-.16-.14h0l-.17-.15-.16-.13-.16-.14-.16-.13-.16-.14-.16-.13-.17-.14-.16-.13h0l-.16-.14-.17-.13-.16-.14h0l-.17-.13-.16-.14-.17-.13-.17-.14-.16-.13-.16-.13-.17-.14-.17-.12-.16-.13-.17-.13h0l-.15-.14h0l-.16-.13-.17-.13-.17-.12-.17-.14-.17-.13-.16-.13-.17-.12-.17-.13-.16-.13h0l-.16-.12-.17-.15-.17-.12-.17-.13-.17-.13h0l-.16-.12v0l-.17-.15-.17-.12-.18-.13v0l-.17-.13-.17-.12h0l-.17-.13-.17-.13-.17-.12-.17-.13-.18-.13-.18-.12-.17-.11-.17-.13A107.65,107.65,0,0,0,885.61,1661h-71l25.63,25.63h46.85l.74,0,.72,0,.72,0,.72,0,.72,0,.72,0,.72.06.71,0,.71.07.71.08.71.07.72.07.7.11.7.09.71.09.69.11.7.12.7.11.7.13h0l.69.12v0l.69.13.69.14h0l.68.15.69.16.68.16.68.16.68.18.68.16.66.19.68.19.67.18.67.2.66.22.66.22h0l.66.21.65.22.66.21h0l.65.24.65.23.64.26.65.23.64.27v0l.65.27.63.25h0l.64.28.64.27h0l.62.28.63.29.62.29.62.29.62.29.62.31h0l.61.3h0l.61.33.61.3.6.33h0l.61.34.59.33h0l.6.34.58.34h0l.59.34.58.36.2.11.19.13.19.11h0l.18.12.2.11.19.13h0l.19.12.18.11.2.13.19.12.18.13.19.13.2.1.18.13h0l.19.13.18.12h0l.19.13h0l.19.13.19.12.18.13.19.12h0l.18.13.19.14h0l.18.14.19.13.19.12.18.13h0l.18.14h0l.19.14.18.12.18.13h0l.18.15h0l.18.12.19.15h0l.17.12.19.15.17.12.19.15.18.12.17.15.18.13.18.14.17.14.18.13.18.14.18.15h0l.17.12h0l.18.15.18.14.17.15.18.14.17.15.18.14.17.14.17.15.17.14.17.13h0l.16.16h0l.17.15.17.14.17.14h0l.16.15.17.14.17.15.08,0,.06.07.06.06.07,0,.07.07.06.06h0l.06,0,.06.06.07.07h0l.06.05.06,0,.06.08h0l.06,0,.06.05.06.06.08.07.06.06h0l.06.05.07,0h0l.07.08.06,0,.06.07.07.06h0l.06,0,.06,0h0l.06.08.06.05.07.07.07.06.06,0h0l.06.07.06.06.08,0,.06.07.06.06h0l.06,0,.07.07.06.06h0l.06.07.07,0,.06.06h0l.06.07h0l.06.05.07.06.06.07.07,0h0l.07.08.06,0,.06.07h0l.07.07.06.05.06.07h0l.06.06.07.07h0l.06.05.07.06.06.07.06,0,.13.15.06,0,.19.18.23.24.21.21.23.22.21.23h0l.22.24.22.21.21.24.22.22.21.23h0l.21.22.22.23v0l.21.22.21.23.21.23.22.24.21.23.2.24.21.23.21.24h0l.21.23v0l.2.23.21.24.21.23h0l.19.24h0l.22.24.19.23h0l.2.26.2.23.2.25h0l.19.24h0l.19.24h0l.2.25h0l.19.25.2.24.19.25.19.25.19.26h0l.19.25.19.25.19.25.19.26h0l.18.25h0l.18.25.2.25.18.26.18.27h0l.17.25h0l.19.25.17.27.18.25.18.27.18.26.17.25v0l.17.25.18.27.16.25.17.27h0l.18.27.17.26.16.27h0l.17.27h0l.16.27.18.27.16.27h0l.11.18h0l.11.18h0l.1.18.12.2.11.18.11.18h0l.1.18.11.18.11.2.11.18.1.2.11.18.1.18.1.2.11.18.1.18.11.19.1.18.1.2.11.18.09.2.1.18.1.2.1.18.1.2.1.18h0l.1.2.1.2.1.18.1.2.09.17.1.2.1.2.09.2.09.18h0l.11.2h0l.11.2.09.18.09.2.09.19h0l.09.2.09.2h0l.09.2.1.18v0l.09.18.09.19.09.2.08.2.09.2.09.2h0l.09.2.08.2.09.19.08.2.08.2.09.2.08.2h0l.08.2.09.19.09.2.07.2h0l.09.2.08.2h0l.09.21.17.44.17.43v0l.17.43.17.45.16.43v0l.16.44.16.45.16.45.15.45h0l.15.45h0l.15.45.15.45.14.47.14.45.14.45h0l.14.47h0l.13.47.14.47h0l.13.43h0l.12.47.13.47.11.47.12.46.12.47h0l.11.47h0l.11.47.1.47.11.47.1.47.1.47.1.46h0l.1.47.09.47.09.51.08.47.09.46h0l.08.47.07.51.09.47.07.47.06.5.07.47h0l.06.51.06.46.06.47v0l.05.47.06.5,0,.47.05.51,0,.46,0,.51,0,.5,0,.47,0,.51,0,.47,0,.5,0,.51v.5l0,.51v3.53l0,1.08,0,1,0,1-.06,1.05-.08,1-.09,1-.09,1-.12,1-.13,1-.13,1-.15,1-.17,1-.17,1-.19,1-.21,1-.22,1-.22,1-.24,1-.24,1-.26,1-.28,1-.29,1-.29,1-.31,1-.32,1-.34.94-.34,1-.35.94-.36.94-.38.93-.4.94-.39.9-.41.94-.43.9-.43.9-.44.91-.45.9-.47.9-.47.86-.49.87-.48.86-.52.87-.51.87-.52.86-.55.83-.53.83-.56.83-.56.83-.57.79-.59.83-.58.8-.61.79-.61.79-.62.76-.63.79-.64.76h0l-.64.76-.66.75-.66.73h0l-.67.72-.68.76-.69.68-.7.72-.71.69-.7.68-.73.69-.74.68h0l-.74.65-.74.69-.76.64-.77.62-.76.65-.78.61h0l-.78.61-.79.62-.8.57-.81.58h0l-.81.58-.82.57-.83.55-.84.54-.84.54-.85.5-.86.54-.86.51-.87.47-.88.5-.87.47h0l-.88.47-.9.43v0l-.9.43-.9.43-.92.4h0l-.92.43-.92.4-.93.4-.93.36h0l-.94.36-.95.36-1,.36-1,.32h0l-1,.33-1,.29-1,.29-1,.28-1,.29-1,.26-1,.25-1,.25-1,.22-1,.21-1,.22-1,.18-1,.18-1,.14-1,.15-1,.14-1,.15-1,.1-1,.11-1,.07-1,.08-1.06.07-1.05,0-1.06,0c-.35,0-.71,0-1.06,0h-1.06a81.54,81.54,0,0,1-30.3-5.81l-.19.25-.17.26-.18.25h0l-.17.25-.19.25-.18.26-.18.21-.19.25-.18.26-.19.25-.18.25-.19.22-.19.25-.19.25-.19.26-.18.21-.2.26-.18.25-.19.25-.2.22-.19.25-.2.25-.19.22-.19.25-.2.25-.19.22-.2.25-.2.22-.2.25-.2.25-.19.22-.21.25-.19.22-.2.25-.2.22h0l-.21.25-.2.22-.2.25h0l-.21.21-.2.26-.21.21-.2.22-.21.25-.21.22-.2.25-.21.22-.22.21-.21.26-.2.21-.22.22-.21.25-.21.22-.22.21-.21.22-.22.25-.21.22-.22.22-.21.21-.22.22-.22.25-.21.22-.23.21-.21.22-.22.22-.08.07-.08.11-.08.07-.09.07-.07.07-.08.07-.08.11-.08.07-.08.08-.08.07-.09.07-.08.07-.07.11-.08.07-.08.08-.08.07-.08.07-.08.07-.09.11-.07.07-.09.07-.08.08h0l-.08.07-.08.07-.08.11-.08.07-.08.07-.09.08-.07.07-.09.07-.08.07h0l-.08.11-.08.07-.08.07h0l-.08.08-.08.07-.09.07-.09.07-.07.08h0l-.09.1-.07.08h0l-.08.07-.08.07-.08.07-.08.07-.08.08-.09.07-.09.07-.07.11-.09.07-.08.07-.08.08-.09.07-.07.07h0l-.08.07-.08.07-.08.08-.09.07h0l-.09.07-.08.07-.08.07-.08.11h0l-.07.08h0Zm-161.94-452.4-18,20,.19-.25.18-.25.18-.26.17-.23.18-.26.2-.25.18-.23.18-.25.19-.26.18-.23.18-.25.2-.26.18-.23.18-.25.19-.24.19-.25.19-.23.19-.26.2-.23.19-.24.2-.25.18-.23.19-.24h0l.19-.25.19-.23.2-.24.2-.23.2-.25.19-.24.2-.23.2-.24.2-.23.2-.24.2-.23.2-.24.2-.23.21-.23.2-.24.21-.23.2-.24.2-.23.21-.24.21-.21.2-.24.22-.23.21-.24.21-.21.2-.24.21-.21.22-.24.21-.23.21-.22.21-.23.21-.22.22-.23.22-.22.21-.23.22-.22.22-.24.21-.21.23-.22.22-.23.21-.22.23-.22.07-.07.08-.09.08-.07.08-.09.08-.07.08-.07.08-.09.08-.08.08-.09.08-.07.08-.07.08-.09.08-.07.08-.07.09-.09.08-.08.07-.07.08-.09.08-.07.08-.07.08-.08.08-.09.09-.07.07-.09h0l.09-.07.09-.07.07-.07.09-.09.07-.08.09-.07.07-.07.09-.09.08-.07.08-.08.08-.09.08-.07h0l.09-.07.07-.07.09-.07.08-.09.09-.08h0l.08-.07.08-.07v0l.08-.07h0l.07-.07h0l.09-.08.08-.07.08-.07.08-.09.08-.07.09-.07.08-.08h0l.07-.07.09-.07.08-.07.08-.09.09-.07.08-.08.08-.07.09-.07h0l.07-.07.09-.07.09-.09h0l.08-.08-.68-.34h0l-.68-.32-.69-.35h0l-.68-.32-.7-.33-.7-.3-.7-.31-.7-.32h0l-.7-.3-.71-.31h0l-.71-.29-.71-.29-.72-.28-.71-.28-.72-.26-.73-.28-.72-.25-.73-.27-.73-.25-.73-.24-.73-.25-.74-.23-.73-.24h0l-.75-.21-.74-.24-.74-.21-.75-.2-.75-.22-.76-.2-.74-.2-.76-.19-.76-.18-.76-.18-.76-.17-.76-.18-.77-.16-.76-.16-.78-.15-.76-.14-.78-.15-.78-.14-.77-.12-.78-.13-.78-.11-.78-.13-.79-.1-.78-.09-.79-.11-.79-.09-.79-.09-.8-.07-.78-.08-.8-.07-.8,0-.8-.06-.79,0-.82-.06-.8,0-.8,0-.81,0h-.81l-.8,0-.82,0H627c-.47,0-.93,0-1.39,0l-1.39,0-1.39,0-1.38,0c-.46,0-.92.06-1.38.1l-1.37.09-1.37.1L616,1403l-1.36.16-1.37.16-1.34.18-1.34.2-1.35.22-1.32.21-1.34.26h0l-1.31.27-1.33.27-1.3.31-1.3.3-1.31.33-1.29.34-1.28.36-1.29.38-1.27.4-1.26.39-1.26.42-1.27.43-1.24.45-1.24.47-1.23.49-1.23.48L585,1411c-.39.18-.8.34-1.2.52l-1.2.54-1.2.56-1.19.56-1.17.58-1.18.59-1.16.62-1.15.61-1.16.63-1.13.65-1.13.67-1.13.66-1.11.69-1.09.7-1.11.7-1.08.73-1.07.73-1.07.76-1.06.76-1.05.79-1,.78-1,.79-1,.81-1,.83-1,.83-1,.85-1,.86-1,.87-1,.88-1,.89-.93.92-.92.9-.91.94-.91.93-.89.94-.88,1h0l-.87,1-.85,1-.85,1-.83,1-.83,1-.81,1-.79,1-.8,1-.77,1-.77,1-.75,1.08-.74,1.07c-.23.36-.49.72-.72,1.08h0l-.71,1.1-.7,1.1-.68,1.12h0l-.67,1.11-.66,1.14-.65,1.14-.64,1.15-.62,1.15-.6,1.16h0l-.6,1.17-.57,1.17-.56,1.19-.56,1.21-.54,1.19-.52,1.23-.5,1.2-.51,1.23-.47,1.23-.47,1.24-.44,1.25-.44,1.26-.42,1.26-.41,1.26-.38,1.26v0l-.37,1.28-.36,1.28-.35,1.3-.33,1.3-.31,1.3-.29,1.31-.29,1.32-.26,1.32-.25,1.33-.22,1.34-.22,1.33-.2,1.33-.18,1.36-.16,1.35-.15,1.37-.13,1.35-.12,1.37-.1,1.39-.08,1.37-.06,1.39,0,1.37,0,1.41v3l0,.81,0,.81,0,.81,0,.79,0,.82,0,.79.05.79.06.81.07.8.06.79.08.79.08.8.09.79.08.8.09.77.11.79.11.78.11.79.12.78.13.77.13.78.13.77.15.78.14.77.16.78.16.76.16.77.17.76.17.76.18.77.18.74.19.76.2.76.2.75.21.74.21.76.22.74.21.74.24.74.23.74.23.74h0l.25.74.25.72.25.74.26.72.26.72.26.72.28.72h0l.27.72.29.72.29.71.29.72.3.7.29.7.32.71.3.68v0l.32.69.32.7h0l.33.69.33.68h0l.34.7.34.67.1.22.1.2.1.19.1.2.11.2h0l.11.2.1.2.11.2.1.19.11.2.1.2.11.2.1.2.11.2h0l.11.19h0l.11.2h0l.11.2.11.2h0l.1.2.11.2.12.19.11.2.1.18.11.2.11.2h0l.12.2.11.2.11.18.11.19h0l.11.2.12.2.11.18.11.2.12.2.12.2.12.18h0l.1.2.12.18.12.19h0l.11.2.12.18h0l.12.2.11.18v0l.12.18.12.2.13.18h0l.11.18v0l.13.18.12.2.12.18.12.18.12.19.12.18.12.2.13.18h0l.12.2h0l.12.18.13.18.11.2.13.18.13.18.12.2h0l.13.18h0l.13.18h0l.19.27.18.27.18.25.19.27.18.28.18.25.2.27h0l.19.25.19.27.18.25h0l.2.27h0l.19.26.19.25v0l.2.25.19.25h0l.19.27.2.25h0l.2.26.18.25.2.27.2.25.2.26.2.25.2.25h0l.2.25.2.26.2.25h0l.21.25.2.23v0l.2.24.21.25.2.25.21.24.2.25h0l.21.25.21.23v0l.21.24.21.25h0l.21.23h0l.22.26.2.23.22.25.21.24.22.23.21.26.22.23.21.23.22.24h0l.22.25.21.23.23.24.22.23.22.24.22.23.22.24.22.23.23.22.22.23v0l.23.22.22.23.23.24h0l.22.21.23.24.23.23.25.24.06.07.12.12.06.06.06,0,.07.07.06.06.06,0,.06.07.07.06.06.07.06,0h0l.05.08v0l.06.07h0l.07.06.06.07.06,0h0l.06.05.06.08.06,0,.06,0,.07.08.06,0,.06.06.07.07h0l.06,0h0l.06.06h0l.07.07.06,0,.06.07.07.06.06,0,.06.06.06.07.07.05h0l.06.06.07.07.06,0,.06.06h0l.06.07.07,0,.07.06.06.05.07.07.06.06h0l.06,0,.06.07.07.06.06,0h0l.06.06.06.07h0l.06.05h0l.06.06.07,0,.06.07h0l.07.06.07,0,.06.06.06.07.06.05.15.15h0l.17.14h0l.15.14h0l.17.14.16.14.15.15h0l.15.14.16.15.17.12.15.15h0l.15.14.16.13.16.14h0l.15.15.16.12.16.15.17.14v0l.16.15h0l.16.14.16.13.17.14.16.13.16.14.17.13.16.14.17.13h0l.17.14.16.13h0l.16.13.16.14h0l.16.13.17.12.17.15.16.12h0l.16.13h0l.18.14v0l.16.15h0l.17.13.17.12.16.13.17.14.17.13h0l.17.12.17.13.17.13.17.12.16.13.18.13.17.12.17.15.17.12.17.11.17.13.17.14h0l.17.11.17.13h0l.17.12.18.13.18.12h0l.17.13.17.13.17.11.18.12.17.13A107.68,107.68,0,0,0,627,1619.11h71l-25.64-25.64H625.58l-.72,0-.73,0-.72,0-.72,0-.73,0-.71,0-.72-.06-.71,0-.71-.07h0l-.72-.07-.71-.08-.7-.09-.7-.09-.71-.09h0l-.7-.1-.69-.11-.71-.11-.69-.11-.7-.12-.69-.15-.68-.13-.7-.14-.68-.14-.69-.17-.68-.16-.68-.16-.69-.16-.66-.18-.68-.18-.68-.2-.66-.2-.67-.2-.66-.2-.66-.21-.66-.22-.66-.22-.66-.23-.65-.22-.65-.23-.65-.25h0l-.65-.26-.63-.25-.65-.25-.64-.27-.63-.26-.63-.26-.63-.29-.63-.29-.62-.29-.63-.29-.61-.31-.62-.28-.61-.33-.61-.31-.61-.32-.6-.32-.61-.33h0l-.59-.32-.59-.35h0l-.59-.34-.59-.34h0l-.59-.36-.18-.11-.2-.13-.19-.1-.19-.13h0l-.18-.13-.2-.1-.19-.13-.19-.13-.19-.11-.19-.12-.19-.13-.2-.12-.18-.13-.18-.13-.2-.11-.17-.12h0l-.18-.13-.19-.12-.19-.13-.18-.13h0l-.18-.12-.19-.15v0l-.19-.14-.18-.13-.18-.13h0l-.18-.12-.18-.13-.19-.14-.18-.13h0l-.18-.12h0l-.19-.15-.18-.13-.18-.14-.18-.12-.18-.13h0l-.18-.15-.18-.12h0l-.17-.15h0l-.18-.12h0l-.18-.15h0l-.17-.14h0l-.17-.13h0l-.18-.14h0l-.18-.13h0l-.17-.14h0l-.18-.15-.18-.14-.17-.14h0l-.17-.13h0l-.17-.15h0l-.17-.14-.17-.14-.17-.15-.18-.14-.18-.15-.17-.14-.17-.15-.17-.14-.17-.14h0l-.16-.15h0l-.17-.14-.18-.15h0l-.17-.14-.16-.16h0l-.07-.06-.07,0-.06,0h0l-.07-.08-.07,0-.06,0-.07-.06h0l-.07-.07-.06-.06-.07,0h0l-.07,0-.06-.08-.06,0-.07,0h0l-.07-.08h0l-.06-.05-.07-.06-.07,0-.06-.07-.06-.05-.08-.06-.06-.07h0l-.06,0-.06-.06-.07-.07-.06-.06-.06,0-.06-.07-.07-.06h0l-.06,0-.06-.07-.07-.06-.06-.05-.06-.07h0l-.07-.06h0l-.06-.07-.06-.05h0l-.05-.06-.07-.07-.06,0h0l-.06-.06-.06-.07-.07,0-.06-.08h0l-.07-.05-.06-.07-.06-.06h0l-.06,0-.07-.07-.06-.06h0l-.06-.07-.07,0h0l-.06-.07h0l-.06-.07-.07,0-.06-.07-.06-.06-.06-.07-.13-.13,0-.05-.2-.18-.22-.24-.22-.21h0l-.22-.24-.22-.21-.22-.22h0l-.23-.23h0l-.21-.24-.22-.21h0l-.22-.24-.21-.23h0l-.21-.24-.21-.21v0l-.22-.22-.2-.23-.21-.24-.21-.23-.21-.24-.2-.23-.21-.24-.21-.25-.21-.23-.2-.24-.2-.23-.2-.25-.2-.24h0l-.2-.25-.2-.24-.2-.25h0l-.2-.23-.2-.25-.2-.24-.19-.25-.19-.25-.2-.24-.19-.25h0l-.2-.25h0l-.19-.25-.19-.26h0l-.19-.25-.19-.25h0l-.19-.25-.18-.26-.19-.25-.18-.25-.18-.27-.19-.26-.18-.25-.18-.25v0l-.19-.25-.17-.25h0l-.18-.27h0l-.17-.26h0l-.18-.27h0l-.18-.25h0l-.17-.27h0l-.17-.25-.17-.27-.17-.27h0l-.17-.27-.17-.26-.16-.26-.17-.28h0l-.16-.27-.16-.27-.12-.18L556,1553l-.12-.18h0l-.11-.18v0l-.11-.18-.12-.18-.1-.18v0l-.11-.18-.11-.18h0l-.1-.18-.11-.18h0l-.1-.19-.11-.18-.11-.19-.1-.18h0l-.1-.18-.1-.2-.11-.18-.1-.2h0l-.11-.18-.1-.2-.1-.18-.1-.2-.1-.2-.1-.18-.09-.18h0l-.1-.2-.1-.2-.1-.17-.09-.2-.11-.2-.09-.18-.09-.2-.1-.2h0l-.1-.2-.09-.18-.1-.2h0l-.1-.19-.09-.2-.1-.18-.08-.2-.1-.2h0l-.09-.2-.08-.18-.1-.21h0l-.09-.18h0l-.1-.2h0l-.09-.2-.09-.2-.09-.2-.08-.2-.09-.2-.08-.19-.09-.2h0l-.08-.2-.09-.2-.08-.2-.09-.19h0l-.08-.2h0l-.08-.2h0l-.08-.2h0l-.08-.2-.08-.2-.09-.21-.16-.44-.19-.45-.16-.43-.17-.45-.16-.45-.16-.43v0L549,1538h0l-.16-.45h0l-.15-.46-.15-.45h0l-.15-.45-.14-.45v0l-.15-.45h0l-.14-.45h0l-.14-.45-.13-.47h0l-.14-.45-.12-.47-.14-.45h0l-.13-.47-.11-.47-.13-.46-.11-.46h0l-.12-.46h0l-.12-.47h0l-.11-.47-.11-.47-.1-.47-.11-.47-.09-.48-.09-.47h0l-.1-.47-.1-.49-.09-.47-.07-.47-.09-.48h0l-.08-.49-.08-.47h0l-.08-.49-.06-.48-.08-.47-.06-.49-.06-.49-.06-.48-.06-.49,0-.49-.06-.48,0-.49,0-.49,0-.48,0-.51,0-.49,0-.48,0-.49,0-.5,0-.49,0-.51,0-.48v-1l0-.51v-2.56l0-1.06,0-1.07.05-1,0-1,.07-1,.09-1,.1-1.05.12-1,.13-1,.13-1,.15-1,.17-1,.18-1,.19-1,.19-1,.22-1,.22-1,.24-1,.25-1,.26-1h0l.29-1,.27-1,.3-1,.31-1,.32-1,.34-1,.34-1,.35-1,.37-.93.38-.92.39-.94.39-.92.42-.92.42-.92.42-.9.45-.9h0l.44-.91.47-.88h0l.47-.88.48-.87.5-.86.5-.87.52-.86.52-.85.53-.85.55-.83.55-.83.57-.81.57-.83h0l.57-.79.6-.81.6-.8.62-.77h0l.61-.78.63-.77.64-.76.65-.76.65-.76.66-.73h0l.68-.73.68-.74.69-.7.7-.7.71-.7.71-.71.72-.67.73-.68h0l.74-.65.75-.67.76-.65h0l.75-.63.78-.63.77-.61.79-.61.79-.62.8-.59.81-.58.82-.58.82-.56.82-.55.84-.55.84-.54.85-.52.86-.5.86-.51.87-.5.87-.49.89-.47.88-.47.9-.43.89-.45.92-.43.91-.42.92-.41.91-.4,1-.4.92-.38.94-.36,1-.36.94-.34,1-.32h0l1-.33,1-.31,1-.3,1-.27,1-.29,1-.25,1-.26,1-.23,1-.24,1-.21,1-.2,1-.18,1-.18,1-.16,1-.15,1-.14,1-.13,1-.12,1-.09,1-.09,1-.08,1,0,1.07-.06,1,0,1.06,0H627A81.93,81.93,0,0,1,657.33,1433.87Z" transform="translate(-513.03 -1396.76)"/></svg>