<?xml version="1.0" encoding="UTF-8" standalone="no"?>
<!-- Created with Inkscape (http://www.inkscape.org/) -->

<svg
   xmlns:dc="http://purl.org/dc/elements/1.1/"
   xmlns:cc="http://creativecommons.org/ns#"
   xmlns:rdf="http://www.w3.org/1999/02/22-rdf-syntax-ns#"
   xmlns:svg="http://www.w3.org/2000/svg"
   xmlns="http://www.w3.org/2000/svg"
   xmlns:sodipodi="http://sodipodi.sourceforge.net/DTD/sodipodi-0.dtd"
   xmlns:inkscape="http://www.inkscape.org/namespaces/inkscape"
   width="247.49828"
   height="48.713322"
   viewBox="0 0 65.48392 12.888732"
   version="1.1"
   id="svg5354"
   inkscape:version="0.92.0 r15299"
   sodipodi:docname="versapay.svg">
  <defs
     id="defs5348">
    <clipPath
       id="clipPath4722"
       clipPathUnits="userSpaceOnUse">
      <path
         inkscape:connector-curvature="0"
         id="path4720"
         d="M 0,0 H 612 V 792 H 0 Z" />
    </clipPath>
    <clipPath
       id="clipPath4686"
       clipPathUnits="userSpaceOnUse">
      <path
         inkscape:connector-curvature="0"
         id="path4684"
         d="M 0,0 H 612 V 792 H 0 Z" />
    </clipPath>
  </defs>
  <sodipodi:namedview
     id="base"
     pagecolor="#ffffff"
     bordercolor="#666666"
     borderopacity="1.0"
     inkscape:pageopacity="0.0"
     inkscape:pageshadow="2"
     inkscape:zoom="3.2535724"
     inkscape:cx="123.24914"
     inkscape:cy="23.856678"
     inkscape:document-units="mm"
     inkscape:current-layer="layer1"
     showgrid="false"
     fit-margin-top="0"
     fit-margin-left="0"
     fit-margin-right="0"
     fit-margin-bottom="0"
     units="px"
     inkscape:window-width="1280"
     inkscape:window-height="744"
     inkscape:window-x="-4"
     inkscape:window-y="-4"
     inkscape:window-maximized="1" />
  <metadata
     id="metadata5351">
    <rdf:RDF>
      <cc:Work
         rdf:about="">
        <dc:format>image/svg+xml</dc:format>
        <dc:type
           rdf:resource="http://purl.org/dc/dcmitype/StillImage" />
        <dc:title></dc:title>
      </cc:Work>
    </rdf:RDF>
  </metadata>
  <g
     inkscape:label="Layer 1"
     inkscape:groupmode="layer"
     id="layer1"
     transform="translate(-46.765334,-188.36978)">
    <g
       id="g5567"
       style="fill:#f9a11b;fill-opacity:1">
      <path
         d="M 97.264946,197.58006 H 95.74024 c -1.474963,0 -2.675113,-1.1624 -2.675113,-2.5908 0,0 -0.0014,-0.29316 0,-0.32702 0.0441,-1.10173 0.958144,-2.16994 2.081036,-2.4317 l 2.831394,-0.68862 v -0.61842 c 0,-0.34608 -0.281517,-0.6276 -0.627592,-0.6276 H 93.74246 v -1.79352 h 3.607505 c 1.452739,0 2.590448,1.1303 2.590448,2.57352 v 3.91336 c 0,1.4284 -1.20015,2.5908 -2.675467,2.5908 m 0.712611,-4.15819 -2.38513,0.58526 c -0.264937,0.0589 -0.547512,0.2674 -0.564798,0.68015 -0.0014,0.0321 0,0.30198 0,0.30198 0,0.42474 0.333023,0.79728 0.712611,0.79728 h 1.524706 c 0.386292,0 0.712611,-0.36513 0.712611,-0.79728 z"
         style="fill:#f9a11b;fill-opacity:1;fill-rule:nonzero;stroke:none;stroke-width:0.35277778"
         id="path4694"
         inkscape:connector-curvature="0" />
      <path
         d="M 87.061096,201.12622 H 85.09824 v -12.62415 h 4.267906 c 1.462264,0 2.607733,1.13806 2.607733,2.5908 v 2.91394 c 0,1.97027 -1.603022,3.57329 -3.573286,3.57329 h -1.339497 z m 0,-5.33964 h 1.339497 c 0.887942,0 1.610431,-0.72249 1.610431,-1.61043 v -3.23568 c 0,-0.3556 -0.289278,-0.64488 -0.644878,-0.64488 h -2.30505 z"
         style="fill:#f9a11b;fill-opacity:1;fill-rule:nonzero;stroke:none;stroke-width:0.35277778"
         id="path4706"
         inkscape:connector-curvature="0" />
      <path
         d="m 104.80786,201.12622 h -2.25178 v -1.79352 h 2.28565 c 0.88794,0 1.61043,-0.72249 1.61043,-1.61043 v -0.59232 c -0.48049,0.28752 -1.06645,0.45015 -1.66123,0.45015 h -0.64382 c -1.46227,0 -2.60738,-1.13806 -2.60738,-2.5908 v -6.48723 h 1.9625 v 6.65656 c 0,0.35207 0.28328,0.62795 0.64488,0.62795 h 0.64382 c 0.91616,0 1.66123,-0.69956 1.66123,-1.55963 v -5.72488 h 1.96321 v 9.10166 c 0,1.9424 -1.61855,3.52249 -3.60751,3.52249"
         style="fill:#f9a11b;fill-opacity:1;fill-rule:nonzero;stroke:none;stroke-width:0.35277778"
         id="path4710"
         inkscape:connector-curvature="0" />
      <path
         d="m 109.64046,196.09776 h 1.01635 v 0.254 h -0.35983 v 1.22837 h -0.29669 v -1.22837 h -0.35983 z m 2.20133,0 h 0.27517 v 1.48237 h -0.29633 v -0.89358 l -0.3175,0.53763 -0.31786,-0.53763 v 0.89358 h -0.29633 v -1.48237 h 0.27517 l 0.33902,0.59302 z"
         style="fill:#f9a11b;fill-opacity:1;fill-rule:nonzero;stroke:none;stroke-width:0.35277778"
         id="path4714"
         inkscape:connector-curvature="0" />
    </g>
    <g
       id="g5561"
       style="fill:#818074;fill-opacity:1">
      <path
         d="m 52.442939,188.50225 -1.740958,5.62822 -1.740959,-5.62822 h -2.063397 l 2.904772,9.07768 h 1.798814 l 2.905125,-9.07768 z"
         style="fill:#818074;fill-opacity:1;fill-rule:nonzero;stroke:none;stroke-width:0.35277778"
         id="path4678"
         inkscape:connector-curvature="0" />
      <path
         d="m 80.823597,197.58006 h -1.524706 c -1.474963,0 -2.675113,-1.1624 -2.675113,-2.5908 0,0 -0.0011,-0.29316 0,-0.32702 0.0441,-1.10173 0.958144,-2.16994 2.081036,-2.4317 l 2.831394,-0.68862 3.53e-4,-0.61842 c 0,-0.34608 -0.28187,-0.6276 -0.627945,-0.6276 h -3.607505 v -1.79352 h 3.607505 c 1.452739,0 2.590448,1.1303 2.590448,2.57352 v 3.91336 c 0,1.4284 -1.20015,2.5908 -2.675467,2.5908 m 0.712611,-4.15819 -2.38513,0.58526 c -0.264937,0.0589 -0.547512,0.2674 -0.564798,0.68015 -0.0014,0.0321 0,0.30198 0,0.30198 0,0.42474 0.333023,0.79728 0.712611,0.79728 h 1.524706 c 0.386292,0 0.712611,-0.36513 0.712611,-0.79728 z"
         style="fill:#818074;fill-opacity:1;fill-rule:nonzero;stroke:none;stroke-width:0.35277778"
         id="path4690"
         inkscape:connector-curvature="0" />
      <path
         d="m 66.135835,188.50224 c -1.452739,0 -2.5908,1.13065 -2.5908,2.57387 v 6.50381 h 1.962856 v -6.65657 c 0,-0.34607 0.281869,-0.62759 0.627944,-0.62759 h 2.043289 v -1.79352 z"
         style="fill:#818074;fill-opacity:1;fill-rule:nonzero;stroke:none;stroke-width:0.35277778"
         id="path4698"
         inkscape:connector-curvature="0" />
      <path
         d="m 72.956405,197.58006 h -4.030839 v -1.79352 h 4.030839 c 0.379589,0 0.712611,-0.37254 0.712611,-0.79728 0,-0.53022 -0.337961,-0.73201 -0.621594,-0.80751 l -2.198511,-0.55809 c -1.271764,-0.32809 -2.092678,-1.32151 -2.092678,-2.53048 0,-1.42875 1.20015,-2.5908 2.675819,-2.5908 h 3.69182 v 1.79352 h -3.69182 c -0.379941,0 -0.712964,0.37254 -0.712964,0.79728 0,0.37324 0.222956,0.68439 0.554567,0.77364 l 2.267656,0.59232 c 1.250244,0.32244 2.090561,1.3395 2.090561,2.53012 0,1.4284 -1.20015,2.5908 -2.675467,2.5908"
         style="fill:#818074;fill-opacity:1;fill-rule:nonzero;stroke:none;stroke-width:0.35277778"
         id="path4702"
         inkscape:connector-curvature="0" />
      <path
         d="m 61.945153,191.41992 c 0.0014,-0.0335 3.53e-4,-0.32702 3.53e-4,-0.32702 0,-1.4284 -1.20015,-2.5908 -2.675467,-2.5908 h -1.524705 c -1.475317,0 -2.675467,1.1624 -2.675467,2.5908 v 2.91394 c 0,1.97026 1.595261,3.57329 3.556353,3.57329 h 2.980266 V 195.7866 H 58.62622 c -0.754945,0 -1.429809,-0.53304 -1.593497,-1.24636 l 2.831394,-0.68827 c 1.122892,-0.26211 2.036939,-1.32997 2.081036,-2.43205 m -2.5273,0.65511 -2.38513,0.58526 v -1.56739 c 0,-0.43216 0.326319,-0.79728 0.712611,-0.79728 h 1.524705 c 0.379589,0 0.712611,0.37288 0.712611,0.79728 0,0 0.0014,0.27022 3.53e-4,0.30233 -0.01764,0.41239 -0.300214,0.62088 -0.56515,0.6798"
         style="fill:#818074;fill-opacity:1;fill-rule:nonzero;stroke:none;stroke-width:0.35277778"
         id="path4726"
         inkscape:connector-curvature="0" />
    </g>
  </g>
</svg>
