<?xml version="1.0" encoding="UTF-8"?>
<svg xmlns="http://www.w3.org/2000/svg" xmlns:xlink="http://www.w3.org/1999/xlink" width="549.64pt" height="124.84pt" viewBox="0 0 549.64 124.84" version="1.1">
<defs>
<clipPath id="clip1">
  <path d="M 0 2 L 289 2 L 289 124.839844 L 0 124.839844 Z M 0 2 "/>
</clipPath>
<clipPath id="clip2">
  <path d="M 472 2 L 549.640625 2 L 549.640625 122 L 472 122 Z M 472 2 "/>
</clipPath>
</defs>
<g id="surface1">
<g clip-path="url(#clip1)" clip-rule="nonzero">
<path style=" stroke:none;fill-rule:evenodd;fill:rgb(0%,60.798645%,53.29895%);fill-opacity:1;" d="M 227.71875 39.085938 C 227.71875 33.902344 229.015625 29.757813 231.144531 26.53125 C 235.394531 20.101563 242.976563 17.34375 250.265625 17.359375 C 257.441406 17.375 264.835938 20.082031 269.238281 25.976563 C 271.722656 29.300781 273.253906 33.644531 273.253906 39.085938 Z M 51.472656 37.597656 C 41.972656 37.0625 33.234375 36.871094 28.488281 32.882813 C 25.753906 30.585938 26.296875 23.976563 30.125 21.582031 C 35.636719 18.140625 42.300781 18.253906 46.140625 18.464844 C 53.917969 18.886719 62.875 21.554688 69.925781 26.488281 L 78.179688 18.464844 C 78.179688 18.464844 86.894531 26.84375 86.894531 26.488281 C 97.054688 19.058594 100.640625 19.039063 110.101563 19.046875 C 123.042969 19.058594 126.757813 21.699219 128.660156 24.683594 C 129.863281 26.566406 128.675781 38.070313 128.675781 38.070313 C 128.675781 38.070313 117.25 38.441406 109.011719 38.007813 C 102.464844 37.664063 98.800781 37.636719 92.214844 38.765625 C 86.328125 39.773438 82.28125 41.582031 78.179688 45.148438 C 78.179688 45.148438 74.671875 42.574219 70.847656 40.738281 C 63.894531 37.394531 58.917969 38.015625 51.472656 37.597656 Z M 121.839844 72.976563 C 117.578125 74.375 110.757813 75.089844 103.5 74.171875 C 97.460938 73.40625 91.710938 72.957031 89.355469 67.261719 C 88.082031 64.175781 88.351563 61.339844 90.332031 58.703125 C 93.449219 54.558594 100.660156 53.757813 104.984375 53.707031 L 128.675781 53.707031 C 129.308594 60.1875 131.28125 69.875 121.839844 72.976563 Z M 158.152344 45.328125 C 158.316406 40.582031 158.746094 35.503906 159.226563 30.519531 C 159.464844 28.085938 162.261719 25.148438 166.195313 22.898438 C 169.765625 20.851563 174.277344 19.375 178.652344 19.351563 C 181.984375 19.332031 185.402344 19.992188 188.425781 21.21875 C 193.695313 23.34375 197.78125 27.175781 198.207031 32.078125 C 198.59375 36.640625 199.042969 40.957031 199.246094 45.09375 C 199.5 50.261719 199.378906 55.152344 198.308594 59.890625 C 197.625 62.910156 196.199219 65.472656 193.25 67.921875 C 189.921875 70.691406 184.765625 73.148438 178.652344 72.789063 C 170.101563 72.285156 162.453125 68.726563 160.195313 63.753906 C 158.296875 59.5625 157.894531 52.859375 158.152344 45.328125 Z M 288.421875 39.328125 C 288.421875 26.441406 278.898438 2.394531 248.101563 2.296875 C 234.742188 2.253906 224.675781 8.445313 220.046875 12.519531 L 220.046875 3.378906 L 199.445313 3.367188 L 199.445313 12.519531 C 194.398438 7.945313 188.265625 3.8125 182.09375 2.835938 C 175.53125 1.796875 168.972656 2.105469 160.855469 4.675781 C 154.109375 6.8125 149.808594 9.964844 145.644531 14.898438 C 137.042969 4.792969 123.457031 2.773438 112.628906 2.359375 C 100.300781 1.890625 87.867188 3.484375 78.179688 10.914063 C 68.84375 5.902344 57.046875 1.96875 43.949219 2.046875 C 32.433594 2.113281 21.402344 4.839844 13.585938 11.925781 C 10.765625 14.484375 9.5 16.511719 8.105469 20.136719 C 5.335938 27.320313 6.488281 35.613281 9.574219 39.941406 C 15.324219 48.015625 21.765625 51.148438 33.339844 52.515625 C 43.503906 53.714844 50.621094 53.71875 58.140625 55.171875 C 61.691406 55.859375 64.953125 58.621094 64.953125 62.710938 C 64.953125 67.484375 58.59375 75.308594 43.238281 74.261719 C 30.449219 73.386719 25.617188 71.496094 13.585938 63.277344 L 0 74.808594 C 0 74.808594 2.316406 76.75 3.898438 77.839844 C 5.417969 78.890625 7 79.878906 8.632813 80.800781 L 8.671875 80.800781 C 22.371094 88.558594 39.710938 91.804688 55.402344 89.167969 C 63.101563 87.871094 70.40625 85.160156 76.691406 80.871094 C 81.769531 84.519531 88.480469 90.773438 104.730469 90.007813 C 114.957031 89.523438 122.550781 89.910156 129.652344 81.339844 L 129.652344 89.902344 L 149.546875 89.902344 L 149.539063 81.339844 C 149.539063 81.339844 152.679688 84 154.882813 85.390625 C 167.515625 93.347656 187.613281 90.339844 199.496094 80.84375 L 199.523438 91.925781 C 199.183594 98.761719 193.203125 103.441406 186.914063 106.074219 C 176.058594 110.625 166.167969 106.546875 157.335938 100.007813 L 142.261719 110.589844 C 146.328125 114.871094 150.050781 117.367188 155.847656 120.15625 C 172.152344 127.992188 191.226563 125.320313 204.386719 117.125 C 213.066406 111.71875 216.425781 105.09375 218.519531 94.902344 C 219.632813 89.484375 219.742188 85.519531 219.914063 80.777344 C 219.917969 80.640625 219.917969 80.515625 219.925781 80.394531 C 220.101563 80.523438 220.273438 80.652344 220.445313 80.777344 C 224.640625 83.855469 228.355469 86.132813 234.035156 87.945313 C 243.199219 90.871094 253.628906 91.003906 265.269531 87.8125 C 270.6875 86.328125 275.46875 83.953125 279.738281 80.777344 L 279.746094 80.777344 C 282.058594 79.054688 284.21875 77.097656 286.253906 74.929688 L 273.253906 65.210938 C 268.847656 68.984375 262.292969 72.789063 254.820313 73.78125 C 246.191406 74.929688 236.402344 73.292969 231.105469 67.261719 C 228.242188 64.003906 227.242188 62.976563 227.242188 54.71875 L 288.421875 54.789063 L 288.421875 39.328125 "/>
</g>
<path style=" stroke:none;fill-rule:evenodd;fill:rgb(43.499756%,47.799683%,50.999451%);fill-opacity:1;" d="M 310.957031 2.53125 L 320.757813 2.53125 L 320.757813 19.09375 C 323.351563 13.121094 327.433594 8.445313 333.011719 5.066406 C 338.589844 1.6875 344.984375 -0.00390625 352.195313 -0.00390625 C 364.925781 -0.00390625 374.640625 4.355469 381.347656 13.070313 C 388.050781 21.785156 391.402344 32.777344 391.402344 46.050781 C 391.402344 59.207031 388.023438 70.171875 381.261719 78.945313 C 374.5 87.714844 364.8125 92.101563 352.195313 92.101563 C 345.320313 92.101563 339.125 90.453125 333.605469 87.160156 C 328.082031 83.867188 324.195313 79.203125 321.941406 73.171875 L 321.605469 121.847656 L 310.957031 121.847656 Z M 352.195313 8.953125 C 341.378906 8.953125 333.574219 12.410156 328.789063 19.324219 C 324 26.238281 321.605469 35.144531 321.605469 46.050781 C 321.605469 56.390625 324.082031 65.160156 329.039063 72.355469 C 333.996094 79.546875 341.714844 83.144531 352.195313 83.144531 C 361.546875 83.144531 368.644531 79.464844 373.488281 72.101563 C 378.332031 64.738281 380.753906 56.054688 380.753906 46.050781 C 380.753906 35.933594 378.359375 27.21875 373.570313 19.914063 C 368.785156 12.609375 361.65625 8.953125 352.195313 8.953125 "/>
<path style=" stroke:none;fill-rule:evenodd;fill:rgb(43.499756%,47.799683%,50.999451%);fill-opacity:1;" d="M 400.148438 29.234375 C 400.148438 19.433594 403.390625 12.109375 409.867188 7.265625 C 416.347656 2.417969 424.882813 -0.00390625 435.472656 -0.00390625 C 444.824219 -0.00390625 452.511719 2.023438 458.539063 6.082031 C 464.566406 10.136719 467.582031 17.460938 467.582031 28.050781 L 467.582031 74.355469 C 467.582031 78.636719 469.664063 80.777344 473.835938 80.777344 C 474.960938 80.777344 476.085938 80.554688 477.214844 80.101563 L 477.214844 89.058594 C 475.074219 89.511719 472.765625 89.734375 470.285156 89.734375 C 465.214844 89.734375 461.863281 88.523438 460.230469 86.101563 C 458.597656 83.679688 457.78125 79.820313 457.78125 74.527344 C 453.496094 80.664063 449.074219 85.125 444.511719 87.917969 C 439.949219 90.707031 433.667969 92.101563 425.667969 92.101563 C 417.105469 92.101563 410.09375 89.964844 404.628906 85.695313 C 399.164063 81.421875 396.433594 75.070313 396.433594 66.636719 C 396.433594 58.988281 398.515625 53.335938 402.683594 49.683594 C 406.855469 46.03125 411.640625 43.640625 417.050781 42.515625 C 422.457031 41.390625 429.160156 40.351563 437.160156 39.394531 C 445.160156 38.441406 450.457031 37.457031 453.046875 36.445313 C 455.640625 35.433594 456.933594 32.226563 456.933594 26.832031 C 456.933594 20.085938 454.933594 15.417969 450.933594 12.832031 C 446.933594 10.246094 441.328125 8.953125 434.121094 8.953125 C 427.132813 8.953125 421.5 10.617188 417.21875 13.9375 C 412.9375 17.261719 410.796875 22.359375 410.796875 29.234375 Z M 456.933594 42.078125 C 456.371094 42.976563 455.414063 43.703125 454.0625 44.265625 C 452.710938 44.828125 449.046875 45.640625 443.078125 46.707031 C 437.105469 47.773438 429.613281 49.089844 420.597656 50.664063 C 411.585938 53.464844 407.078125 58.574219 407.078125 65.976563 C 407.078125 71.140625 408.996094 75.292969 412.824219 78.433594 C 416.65625 81.574219 421.21875 83.144531 426.515625 83.144531 C 434.964844 83.144531 442.148438 80.648438 448.0625 75.65625 C 453.976563 70.660156 456.933594 64.070313 456.933594 55.878906 L 456.933594 42.078125 "/>
<g clip-path="url(#clip2)" clip-rule="nonzero">
<path style=" stroke:none;fill-rule:evenodd;fill:rgb(43.499756%,47.799683%,50.999451%);fill-opacity:1;" d="M 472.070313 2.53125 L 483.519531 2.480469 L 512.15625 76.65625 L 538.988281 2.527344 L 549.644531 2.53125 L 511.78125 103.085938 C 508.75 110.453125 505.773438 115.425781 502.855469 117.992188 C 499.933594 120.5625 495.273438 121.847656 488.875 121.847656 C 484.941406 121.847656 482.246094 121.621094 480.789063 121.167969 L 480.789063 112.214844 C 483.59375 112.664063 486.007813 112.890625 488.027344 112.890625 C 492.96875 112.890625 496.335938 111.492188 498.132813 108.695313 C 499.925781 105.898438 501.609375 102.765625 503.179688 99.296875 L 506.886719 89.398438 L 472.070313 2.53125 "/>
</g>
</g>
</svg>
