<?xml version="1.0" encoding="UTF-8"?>
<svg xmlns="http://www.w3.org/2000/svg" xmlns:xlink="http://www.w3.org/1999/xlink" width="677.94pt" height="540.9pt" viewBox="0 0 677.94 540.9" version="1.1">
<defs>
<clipPath id="clip1">
  <path d="M 70 255 L 608 255 L 608 540.898438 L 70 540.898438 Z M 70 255 "/>
</clipPath>
<clipPath id="clip2">
  <path d="M 665 223 L 677.941406 223 L 677.941406 236 L 665 236 Z M 665 223 "/>
</clipPath>
</defs>
<g id="surface1">
<g clip-path="url(#clip1)" clip-rule="nonzero">
<path style=" stroke:none;fill-rule:nonzero;fill:rgb(76.499939%,68.998718%,18.399048%);fill-opacity:1;" d="M 527.230469 405.761719 L 487.175781 377.003906 L 476.429688 391.96875 L 471.070313 388.117188 L 496.914063 352.117188 L 502.273438 355.964844 L 491.492188 370.992188 L 531.546875 399.75 Z M 498.808594 438.230469 L 448.148438 423.1875 L 476.214844 456.988281 L 470.753906 461.523438 L 435.039063 418.503906 L 440.878906 413.65625 L 491.519531 428.671875 L 463.472656 394.894531 L 468.929688 390.363281 L 504.648438 433.378906 Z M 450.292969 473.636719 L 437.363281 460.902344 L 416.074219 470.550781 L 417.464844 488.511719 L 410.308594 491.753906 L 406.796875 431.960938 L 414.054688 428.671875 L 457.972656 470.15625 Z M 387.546875 496.90625 L 383.476563 470.871094 L 354.761719 475.363281 L 358.839844 501.398438 L 351.527344 502.542969 L 342.882813 447.300781 L 350.195313 446.15625 L 353.742188 468.839844 L 382.457031 464.347656 L 378.910156 441.664063 L 386.21875 440.519531 L 394.863281 495.761719 Z M 294.835938 482.695313 C 295.789063 486.378906 297.609375 489.273438 300.304688 491.363281 C 302.992188 493.453125 306.035156 494.710938 309.414063 495.113281 C 313.527344 495.609375 317.15625 494.847656 320.292969 492.816406 C 323.4375 490.789063 325.789063 487.5 327.363281 482.953125 L 334.488281 485.695313 C 332.21875 491.542969 328.894531 495.808594 324.507813 498.492188 C 320.128906 501.175781 315.046875 502.167969 309.261719 501.472656 C 303.277344 500.753906 298.5625 498.949219 295.105469 496.058594 C 291.652344 493.167969 289.226563 489.296875 287.828125 484.441406 C 286.429688 479.585938 286.050781 474.507813 286.6875 469.207031 C 287.390625 463.425781 289.101563 458.519531 291.828125 454.480469 C 294.554688 450.445313 298.097656 447.554688 302.441406 445.808594 C 306.789063 444.070313 311.40625 443.488281 316.308594 444.082031 C 321.855469 444.753906 326.359375 446.734375 329.804688 450.019531 C 333.253906 453.304688 335.40625 457.59375 336.28125 462.902344 L 328.84375 463.730469 C 328.042969 459.535156 326.523438 456.367188 324.304688 454.234375 C 322.078125 452.089844 319.105469 450.800781 315.398438 450.351563 C 311.132813 449.835938 307.441406 450.425781 304.328125 452.125 C 301.214844 453.828125 298.875 456.328125 297.296875 459.632813 C 295.71875 462.941406 294.707031 466.421875 294.269531 470.085938 C 293.695313 474.804688 293.886719 479.003906 294.835938 482.695313 M 280.257813 454.675781 C 278.710938 458.328125 276.222656 460.90625 272.796875 462.40625 C 269.367188 463.910156 265.042969 463.953125 259.820313 462.539063 C 261.253906 464.167969 262.257813 465.601563 262.835938 466.84375 C 264.050781 469.511719 264.972656 472.597656 265.585938 476.085938 L 268.605469 493.894531 L 260.039063 490.265625 L 257.765625 476.664063 C 257.082031 472.730469 256.449219 469.675781 255.855469 467.488281 C 255.261719 465.300781 254.59375 463.667969 253.855469 462.582031 C 253.117188 461.492188 252.273438 460.597656 251.328125 459.898438 C 250.621094 459.40625 249.398438 458.785156 247.636719 458.042969 L 239.738281 454.691406 L 230.050781 477.550781 L 223.238281 474.667969 L 245.058594 423.1875 L 267.878906 432.859375 C 272.472656 434.804688 275.761719 436.746094 277.757813 438.679688 C 279.757813 440.621094 280.972656 443.0625 281.40625 446.007813 C 281.839844 448.953125 281.457031 451.84375 280.257813 454.675781 M 219.328125 442.246094 L 195.066406 423.0625 L 183.261719 437.988281 L 210.1875 459.28125 L 206.09375 464.453125 L 173.363281 438.574219 L 208.046875 394.714844 L 239.757813 419.792969 L 235.664063 424.96875 L 209.761719 404.484375 L 199.136719 417.914063 L 223.398438 437.105469 Z M 157.273438 422.988281 L 153.160156 417.15625 L 191.398438 390.175781 L 143.796875 403.882813 L 139.949219 398.429688 L 169.519531 357.773438 L 130.625 385.214844 L 126.515625 379.386719 L 172.203125 347.15625 L 178.617188 356.253906 L 153.902344 389.890625 C 151.59375 393.015625 149.851563 395.328125 148.679688 396.839844 C 150.703125 396.1875 153.71875 395.277344 157.71875 394.105469 L 197.222656 382.613281 L 202.960938 390.753906 Z M 586.265625 301.058594 C 585.085938 301.871094 583.660156 302.355469 582.121094 302.355469 L 574.671875 302.355469 C 572.46875 302.355469 570.386719 301.363281 568.996094 299.65625 L 533.125 255.628906 L 533.125 260.695313 C 533.125 271.722656 533.671875 278.117188 534.183594 282.449219 C 534.925781 282.644531 536.394531 282.902344 539.136719 283.019531 C 543.058594 283.1875 546.152344 286.410156 546.152344 290.335938 L 546.152344 294.148438 C 546.152344 298.191406 542.875 301.472656 538.832031 301.472656 L 508.460938 301.472656 C 506.640625 301.472656 504.996094 300.78125 503.71875 299.6875 C 500.972656 301.671875 497.582031 302.859375 493.792969 302.859375 C 493.429688 302.859375 493.085938 302.8125 492.734375 302.789063 C 478.015625 375.777344 413.542969 430.746094 336.214844 430.746094 C 258.425781 430.746094 193.660156 375.109375 179.457031 301.472656 L 175.75 301.472656 C 173.71875 301.472656 171.882813 300.644531 170.558594 299.3125 L 167.621094 300.789063 C 164.855469 302.117188 161.949219 302.859375 159.703125 302.859375 C 152.25 302.859375 146.609375 300.628906 142.878906 296.484375 C 141.816406 297.464844 140.535156 298.207031 139.019531 298.421875 C 132.816406 299.3125 125.410156 300.832031 117.601563 302.816406 C 117.003906 302.964844 116.398438 303.039063 115.796875 303.039063 C 114.054688 303.039063 112.347656 302.414063 111.003906 301.253906 L 110.035156 300.414063 C 109.734375 300.152344 109.457031 299.871094 109.207031 299.570313 C 105.800781 301.40625 101.925781 302.859375 97.050781 302.859375 C 92.929688 302.859375 89.28125 301.929688 86.097656 300.371094 C 86.199219 301.214844 86.265625 302.070313 86.371094 302.910156 L 70.558594 305.695313 L 74.6875 329.125 L 90.460938 326.351563 C 91.96875 333.097656 93.695313 339.773438 95.742188 346.316406 L 80.757813 351.769531 L 88.894531 374.125 L 103.910156 368.65625 C 106.589844 375.023438 109.570313 381.234375 112.746094 387.320313 L 98.800781 395.371094 L 110.695313 415.972656 L 124.730469 407.867188 C 128.472656 413.644531 132.441406 419.261719 136.632813 424.699219 L 124.144531 435.175781 L 139.433594 453.402344 L 152.027344 442.839844 C 156.703125 447.851563 161.550781 452.714844 166.625 457.335938 L 156.011719 469.980469 L 174.238281 485.273438 L 184.949219 472.507813 C 190.410156 476.613281 196.070313 480.464844 201.863281 484.125 L 193.441406 498.71875 L 214.042969 510.613281 L 222.554688 495.863281 C 228.625 498.9375 234.828125 501.785156 241.167969 504.367188 L 235.289063 520.519531 L 257.644531 528.65625 L 263.597656 512.304688 C 270.078125 514.253906 276.660156 515.949219 283.347656 517.378906 L 280.289063 534.722656 L 303.71875 538.855469 L 306.832031 521.214844 C 313.5 521.992188 320.25 522.503906 327.070313 522.75 L 327.070313 540.898438 L 350.863281 540.898438 L 350.863281 522.523438 C 357.648438 522.136719 364.351563 521.449219 370.980469 520.53125 L 374.214844 538.855469 L 397.644531 534.726563 L 394.371094 516.15625 C 400.941406 514.601563 407.414063 512.816406 413.769531 510.753906 L 420.289063 528.65625 L 442.648438 520.519531 L 436.042969 502.378906 C 442.203125 499.71875 448.230469 496.816406 454.117188 493.6875 L 463.890625 510.613281 L 484.496094 498.71875 L 474.578125 481.546875 C 480.148438 477.878906 485.550781 473.984375 490.792969 469.898438 L 503.695313 485.273438 L 521.921875 469.980469 L 508.863281 454.417969 C 513.691406 449.871094 518.382813 445.179688 522.839844 440.265625 L 538.496094 453.402344 L 553.792969 435.179688 L 537.980469 421.914063 C 541.9375 416.632813 545.640625 411.148438 549.179688 405.550781 L 567.234375 415.980469 L 579.128906 395.367188 L 560.9375 384.863281 C 563.914063 379.003906 566.683594 373.023438 569.203125 366.90625 L 589.039063 374.125 L 597.175781 351.769531 L 577.21875 344.503906 C 579.125 338.242188 580.761719 331.871094 582.179688 325.410156 L 603.238281 329.125 L 607.371094 305.695313 L 586.171875 301.960938 C 586.210938 301.660156 586.226563 301.359375 586.265625 301.058594 "/>
</g>
<path style=" stroke:none;fill-rule:nonzero;fill:rgb(76.499939%,68.998718%,18.399048%);fill-opacity:1;" d="M 265.75 438.667969 L 249.460938 431.765625 L 242.242188 448.792969 L 256.882813 455 C 259.996094 456.320313 262.5625 457.03125 264.597656 457.128906 C 266.621094 457.230469 268.394531 456.765625 269.90625 455.734375 C 271.421875 454.710938 272.527344 453.359375 273.234375 451.699219 C 274.269531 449.265625 274.230469 446.890625 273.128906 444.570313 C 272.027344 442.25 269.566406 440.285156 265.75 438.667969 "/>
<path style=" stroke:none;fill-rule:nonzero;fill:rgb(76.499939%,68.998718%,18.399048%);fill-opacity:1;" d="M 609.027344 271.613281 C 609.132813 271.863281 609.296875 272.042969 609.414063 272.277344 L 609.414063 271.59375 C 609.289063 271.601563 609.15625 271.605469 609.027344 271.613281 "/>
<path style=" stroke:none;fill-rule:nonzero;fill:rgb(76.499939%,68.998718%,18.399048%);fill-opacity:1;" d="M 464.101563 139.925781 C 466.699219 142.539063 468.980469 144.351563 470.945313 145.355469 C 472.914063 146.359375 474.78125 146.863281 476.539063 146.867188 C 479.023438 146.875 481.660156 146.179688 484.449219 144.789063 C 487.238281 143.394531 490.132813 141.210938 493.125 138.234375 C 497.273438 134.109375 499.78125 130.261719 500.65625 126.6875 C 501.53125 123.109375 501.378906 119.972656 500.199219 117.273438 C 499.339844 115.328125 497.363281 112.796875 494.261719 109.675781 L 485.980469 101.34375 L 455.6875 131.460938 "/>
<path style=" stroke:none;fill-rule:nonzero;fill:rgb(76.499939%,68.998718%,18.399048%);fill-opacity:1;" d="M 600.316406 214.710938 L 600.316406 218.550781 C 600.316406 222.488281 597.203125 225.722656 593.269531 225.871094 C 591.898438 225.921875 591.046875 226.054688 590.546875 226.164063 C 590.191406 229.035156 589.835938 232.871094 589.628906 238.324219 L 595.992188 237.203125 C 599.316406 235.027344 602.976563 233.40625 606.890625 232.503906 L 603.242188 211.769531 L 599.898438 212.363281 C 600.152344 213.101563 600.316406 213.882813 600.316406 214.710938 "/>
<path style=" stroke:none;fill-rule:nonzero;fill:rgb(76.499939%,68.998718%,18.399048%);fill-opacity:1;" d="M 103.503906 251.523438 L 103.503906 276.3125 C 103.503906 278.011719 103.808594 278.761719 103.921875 278.980469 C 103.929688 278.976563 103.9375 278.976563 103.949219 278.976563 C 104.023438 278.976563 104.1875 278.996094 104.433594 278.996094 C 105.324219 278.996094 106.355469 278.65625 107.507813 277.972656 L 107.507813 252.691406 L 106.125 252.472656 C 105.171875 252.324219 104.289063 251.992188 103.503906 251.523438 "/>
<path style=" stroke:none;fill-rule:nonzero;fill:rgb(76.499939%,68.998718%,18.399048%);fill-opacity:1;" d="M 137.109375 280.070313 L 137.671875 280.078125 L 137.671875 253.910156 L 137.160156 253.910156 C 137.140625 253.910156 137.128906 253.90625 137.109375 253.90625 "/>
<path style=" stroke:none;fill-rule:nonzero;fill:rgb(76.499939%,68.998718%,18.399048%);fill-opacity:1;" d="M 73.890625 274.675781 L 73.890625 258.554688 L 68.515625 258.554688 L 68.515625 260.222656 C 70.25 264.925781 72.03125 269.714844 73.890625 274.675781 "/>
<path style=" stroke:none;fill-rule:nonzero;fill:rgb(76.499939%,68.998718%,18.399048%);fill-opacity:1;" d="M 414.355469 446.710938 L 415.53125 464.183594 L 432.796875 456.355469 L 421.085938 444.660156 C 417.527344 441.113281 414.730469 438.136719 412.691406 435.734375 C 413.523438 439.296875 414.074219 442.953125 414.355469 446.710938 "/>
<path style=" stroke:none;fill-rule:nonzero;fill:rgb(76.499939%,68.998718%,18.399048%);fill-opacity:1;" d="M 174.210938 253.257813 C 173.261719 253.6875 172.230469 253.910156 171.191406 253.910156 L 167.269531 253.910156 L 167.269531 276.121094 C 167.269531 278.03125 167.523438 279.152344 167.734375 279.757813 C 168.175781 279.613281 168.765625 279.363281 169.527344 278.933594 C 171.3125 277.910156 173.441406 277.683594 175.394531 278.320313 C 175.878906 278.472656 176.300781 278.742188 176.730469 278.996094 C 176.601563 276.371094 176.53125 273.730469 176.53125 271.066406 C 176.53125 266.148438 176.789063 261.296875 177.222656 256.492188 L 177.222656 251.023438 C 176.347656 251.933594 175.371094 252.734375 174.210938 253.257813 "/>
<path style=" stroke:none;fill-rule:nonzero;fill:rgb(76.499939%,68.998718%,18.399048%);fill-opacity:1;" d="M 291.171875 66.882813 C 292.832031 65.714844 293.945313 64.261719 294.507813 62.519531 C 295.070313 60.78125 295.121094 59.035156 294.652344 57.292969 C 293.972656 54.738281 292.484375 52.882813 290.191406 51.730469 C 287.898438 50.578125 284.746094 50.535156 280.742188 51.605469 L 263.648438 56.160156 L 268.410156 74.03125 L 283.773438 69.941406 C 287.039063 69.066406 289.511719 68.050781 291.171875 66.882813 "/>
<path style=" stroke:none;fill-rule:nonzero;fill:rgb(76.499939%,68.998718%,18.399048%);fill-opacity:1;" d="M 154.171875 125.371094 L 193.777344 142.46875 C 196.953125 143.839844 199.855469 145.203125 202.476563 146.570313 C 200.828125 143.855469 199.289063 141.042969 197.839844 138.121094 L 178.457031 99.363281 L 183.609375 93.84375 L 209.539063 148.003906 L 204.359375 153.550781 L 148.707031 131.226563 Z M 233.019531 61.683594 L 236.453125 67.324219 L 208.238281 84.492188 L 217.140625 99.121094 L 243.5625 83.039063 L 246.972656 88.644531 L 220.554688 104.726563 L 230.445313 120.984375 L 259.765625 103.136719 L 263.199219 108.773438 L 227.558594 130.464844 L 198.484375 82.703125 Z M 278.859375 45.710938 C 283.675781 44.429688 287.464844 43.9375 290.230469 44.242188 C 292.996094 44.542969 295.453125 45.722656 297.605469 47.78125 C 299.761719 49.839844 301.234375 52.355469 302.023438 55.328125 C 303.046875 59.160156 302.667969 62.722656 300.886719 66.011719 C 299.101563 69.300781 295.71875 71.992188 290.722656 74.085938 C 292.855469 74.492188 294.53125 75.003906 295.753906 75.628906 C 298.347656 76.988281 300.964844 78.855469 303.597656 81.234375 L 316.914063 93.433594 L 307.921875 95.832031 L 297.777344 86.496094 C 294.828125 83.808594 292.441406 81.785156 290.636719 80.425781 C 288.824219 79.066406 287.296875 78.183594 286.046875 77.78125 C 284.789063 77.378906 283.574219 77.1875 282.398438 77.210938 C 281.546875 77.257813 280.191406 77.523438 278.351563 78.015625 L 270.058594 80.226563 L 276.453125 104.21875 L 269.300781 106.121094 L 254.902344 52.09375 Z M 327.183594 38.734375 L 330.234375 94.5625 L 322.84375 94.96875 L 319.796875 39.136719 Z M 348.246094 38.246094 L 385.671875 42.976563 L 384.839844 49.519531 L 354.757813 45.722656 L 352.589844 62.898438 L 378.625 66.1875 L 377.796875 72.734375 L 351.761719 69.445313 L 348.578125 94.648438 L 341.238281 93.71875 Z M 403.621094 48.503906 L 410.671875 50.757813 L 393.648438 104.019531 L 386.601563 101.765625 Z M 430.886719 57.765625 L 466.292969 77.277344 L 463.109375 83.058594 L 434.179688 67.117188 L 425.914063 82.113281 L 453.003906 97.042969 L 449.835938 102.789063 L 422.746094 87.859375 L 413.5625 104.527344 L 443.625 121.09375 L 440.441406 126.875 L 403.894531 106.734375 Z M 485.445313 91.445313 L 499.023438 105.105469 C 502.089844 108.1875 504.238281 110.730469 505.472656 112.730469 C 507.207031 115.523438 508.1875 118.402344 508.414063 121.367188 C 508.722656 125.21875 508.019531 129.027344 506.304688 132.800781 C 504.582031 136.566406 501.953125 140.210938 498.421875 143.722656 C 495.410156 146.71875 492.390625 149.019531 489.367188 150.628906 C 486.339844 152.238281 483.519531 153.25 480.898438 153.664063 C 478.28125 154.078125 475.890625 154.066406 473.714844 153.628906 C 471.542969 153.191406 469.3125 152.273438 467.023438 150.871094 C 464.734375 149.472656 462.398438 147.574219 460.015625 145.175781 L 445.789063 130.867188 Z M 73.730469 234.378906 C 79.023438 234.085938 88.574219 232.964844 95.296875 232.144531 C 97.390625 231.910156 99.46875 232.542969 101.035156 233.933594 C 101.703125 234.527344 102.253906 235.230469 102.660156 236 C 103.824219 235.058594 105.289063 234.460938 106.894531 234.378906 C 112.90625 234.070313 123.523438 232.871094 128.804688 232.15625 C 130.894531 231.886719 133.011719 232.507813 134.605469 233.898438 C 134.929688 234.183594 135.210938 234.515625 135.476563 234.847656 C 136.140625 234.273438 136.859375 233.785156 137.671875 233.484375 L 137.671875 232.882813 C 137.671875 230.585938 138.753906 228.414063 140.589844 227.03125 L 153.417969 217.375 C 155.617188 215.71875 158.5625 215.4375 161.03125 216.640625 L 163.152344 217.675781 C 165.671875 218.90625 167.269531 221.460938 167.269531 224.257813 L 167.269531 233.027344 L 172.039063 233.027344 C 173.777344 233.027344 175.464844 233.644531 176.789063 234.777344 C 176.953125 234.917969 177.066406 235.113281 177.222656 235.265625 L 177.222656 222.613281 C 176.828125 222.585938 176.445313 222.5625 176.121094 222.542969 C 172.257813 222.308594 169.242188 219.105469 169.242188 215.234375 L 169.242188 211.714844 C 169.242188 208.105469 171.867188 205.035156 175.429688 204.476563 C 179.730469 203.808594 186.3125 202.601563 192.523438 201.359375 C 218.410156 148.101563 273.019531 111.386719 336.214844 111.386719 C 423.796875 111.386719 494.863281 181.898438 495.847656 269.246094 C 503.179688 270.125 508.90625 275.578125 510.203125 282.832031 C 510.449219 282.792969 510.722656 282.757813 510.882813 282.71875 C 511.675781 276.9375 512.042969 269.800781 512.042969 260.695313 L 512.042969 236.410156 C 512.042969 230.128906 511.984375 228.019531 511.320313 227.15625 C 511.003906 226.746094 510.578125 226.207031 506.160156 225.851563 C 502.355469 225.539063 499.425781 222.367188 499.425781 218.550781 L 499.425781 214.710938 C 499.425781 210.664063 502.707031 207.386719 506.75 207.386719 L 528.027344 207.386719 C 530.164063 207.386719 532.191406 208.316406 533.582031 209.9375 L 568.3125 250.328125 L 568.3125 248.199219 C 568.3125 236.605469 567.734375 230.269531 567.261719 226.457031 C 566.5 226.261719 565.027344 226.003906 562.253906 225.863281 C 558.359375 225.667969 555.296875 222.457031 555.296875 218.550781 L 555.296875 214.710938 C 555.296875 210.664063 558.578125 207.386719 562.621094 207.386719 L 579.9375 207.386719 C 579.003906 203.726563 578.011719 200.089844 576.898438 196.503906 L 597.171875 189.125 L 589.039063 166.769531 L 568.78125 174.144531 C 566.246094 168.066406 563.4375 162.132813 560.445313 156.308594 L 579.125 145.523438 L 567.238281 124.917969 L 548.605469 135.679688 C 545.0625 130.132813 541.347656 124.707031 537.394531 119.472656 L 553.785156 105.71875 L 538.503906 87.488281 L 522.195313 101.171875 C 517.753906 96.3125 513.089844 91.660156 508.285156 87.160156 L 521.914063 70.917969 L 503.699219 55.617188 L 490.171875 71.742188 C 484.957031 67.707031 479.585938 63.871094 474.054688 60.253906 L 484.488281 42.179688 L 463.890625 30.277344 L 453.5625 48.160156 C 447.726563 45.082031 441.753906 42.203125 435.652344 39.578125 L 442.644531 20.378906 L 420.289063 12.230469 L 413.367188 31.238281 C 407.070313 29.214844 400.660156 27.460938 394.15625 25.929688 L 397.644531 6.171875 L 374.214844 2.035156 L 370.769531 21.574219 C 364.207031 20.675781 357.574219 19.996094 350.863281 19.613281 L 350.863281 -0.00390625 L 327.066406 -0.00390625 L 327.066406 19.386719 C 320.320313 19.628906 313.644531 20.128906 307.039063 20.890625 L 303.71875 2.039063 L 280.285156 6.171875 L 283.554688 24.710938 C 276.9375 26.117188 270.421875 27.796875 264.003906 29.714844 L 257.644531 12.238281 L 235.289063 20.378906 L 241.558594 37.609375 C 235.28125 40.160156 229.125 42.957031 223.109375 45.988281 L 214.039063 30.285156 L 193.4375 42.179688 L 202.382813 57.679688 C 196.632813 61.292969 191.003906 65.085938 185.574219 69.140625 L 174.238281 55.625 L 156.011719 70.917969 L 167.210938 84.269531 C 162.160156 88.839844 157.339844 93.644531 152.679688 98.605469 L 139.433594 87.492188 L 124.140625 105.71875 L 137.21875 116.6875 C 133.03125 122.078125 129.054688 127.632813 125.308594 133.355469 L 110.695313 124.921875 L 98.800781 145.527344 L 113.230469 153.859375 C 110.046875 159.90625 107.0625 166.078125 104.371094 172.40625 L 88.894531 166.773438 L 80.757813 189.128906 L 96.113281 194.71875 C 94.042969 201.230469 92.273438 207.871094 90.730469 214.601563 L 74.6875 211.773438 L 70.558594 235.199219 L 70.738281 235.230469 C 71.640625 234.753906 72.648438 234.441406 73.730469 234.378906 "/>
<path style=" stroke:none;fill-rule:nonzero;fill:rgb(5.099487%,33.299255%,50.59967%);fill-opacity:1;" d="M 46.316406 294.148438 L 79.800781 294.148438 L 79.800781 290.335938 C 73.324219 289.523438 71.351563 289.03125 67.121094 277.476563 C 62.476563 265.109375 57.082031 250.503906 51.957031 236.070313 L 43.898438 213.335938 L 37.890625 214.984375 L 13.183594 277.859375 C 8.910156 288.878906 7.3125 289.453125 0 290.335938 L 0 294.148438 L 27.5625 294.148438 L 27.5625 290.335938 L 24.539063 289.996094 C 18.878906 289.363281 18.664063 288.054688 20.457031 281.898438 C 22.046875 276.601563 23.648438 271.234375 25.148438 267.667969 L 46.8125 267.667969 C 48.660156 272.152344 50.992188 278.550781 52.574219 282.613281 C 54.644531 287.878906 54.015625 289.21875 49.515625 289.878906 L 46.316406 290.335938 Z M 35.566406 236.261719 L 35.914063 236.261719 L 44.753906 261.472656 L 26.820313 261.472656 L 35.566406 236.261719 "/>
<path style=" stroke:none;fill-rule:nonzero;fill:rgb(5.099487%,33.299255%,50.59967%);fill-opacity:1;" d="M 114.828125 251.636719 C 114.828125 247.160156 114.234375 246.378906 111.070313 245.84375 L 107.269531 245.242188 L 107.269531 241.691406 C 113.398438 241.382813 124.035156 240.195313 129.785156 239.414063 L 129.785156 280.960938 C 129.785156 286.035156 130.277344 287.398438 134.171875 287.398438 L 137.976563 287.398438 L 137.976563 291.175781 C 130.640625 292.230469 122.800781 293.941406 115.796875 295.71875 L 114.828125 294.878906 L 114.828125 287.046875 C 112.519531 288.742188 110.464844 290.308594 107.761719 291.957031 C 103.980469 294.253906 100.898438 295.535156 97.050781 295.535156 C 86.839844 295.535156 81.214844 288.742188 81.214844 279.363281 L 81.214844 251.636719 C 81.214844 247.160156 80.617188 246.378906 77.457031 245.84375 L 74.140625 245.242188 L 74.140625 241.691406 C 79.765625 241.382813 89.796875 240.195313 96.179688 239.414063 L 96.179688 276.3125 C 96.179688 283.507813 99.835938 286.320313 104.433594 286.320313 C 107.871094 286.320313 111.277344 284.71875 114.828125 281.640625 L 114.828125 251.636719 "/>
<path style=" stroke:none;fill-rule:nonzero;fill:rgb(5.099487%,33.299255%,50.59967%);fill-opacity:1;" d="M 159.945313 276.125 C 159.945313 285.507813 164.574219 287.261719 166.789063 287.261719 C 168.726563 287.261719 170.824219 286.621094 173.152344 285.292969 L 174.839844 288.953125 L 164.324219 294.253906 C 162.386719 295.179688 160.550781 295.539063 159.699219 295.539063 C 150.253906 295.539063 144.992188 291.4375 144.992188 280.5625 L 144.992188 246.59375 L 137.160156 246.59375 L 136.296875 245.03125 L 140.222656 240.347656 L 144.992188 240.347656 L 144.992188 232.886719 L 157.820313 223.226563 L 159.945313 224.257813 L 159.945313 240.347656 L 172.039063 240.347656 C 173.617188 241.695313 173.394531 245.59375 171.191406 246.59375 L 159.945313 246.59375 L 159.945313 276.125 "/>
<path style=" stroke:none;fill-rule:nonzero;fill:rgb(5.099487%,33.299255%,50.59967%);fill-opacity:1;" d="M 199.511719 246.742188 C 203.644531 242.660156 209.820313 238.921875 216.214844 238.921875 C 227.339844 238.921875 233.476563 245.886719 233.476563 257.410156 L 233.476563 282.199219 C 233.476563 289.058594 234.089844 289.523438 240.851563 290.335938 L 240.851563 294.148438 L 212.128906 294.148438 L 212.128906 290.335938 C 218.039063 289.523438 218.523438 289.058594 218.523438 282.199219 L 218.523438 258.753906 C 218.523438 251.191406 214.289063 247.980469 209.1875 247.980469 C 205.816406 247.980469 202.265625 249.214844 199.511719 252.003906 L 199.511719 282.199219 C 199.511719 289.058594 200.097656 289.523438 205.195313 290.335938 L 205.195313 294.148438 L 175.746094 294.148438 L 175.746094 290.335938 C 183.921875 289.523438 184.546875 289.058594 184.546875 282.199219 L 184.546875 223.113281 C 184.546875 215.878906 184.308594 215.703125 176.5625 215.234375 L 176.5625 211.714844 C 181.984375 210.867188 191.40625 209.117188 199.511719 207.402344 L 199.511719 246.742188 "/>
<path style=" stroke:none;fill-rule:nonzero;fill:rgb(5.099487%,33.299255%,50.59967%);fill-opacity:1;" d="M 271.773438 238.921875 C 258.035156 238.921875 242.867188 249.214844 242.867188 268.605469 C 242.867188 281.683594 252.296875 295.539063 271.140625 295.539063 C 285.230469 295.539063 299.320313 285.96875 299.320313 266.015625 C 299.320313 251.792969 288.789063 238.921875 271.773438 238.921875 M 259.746094 263.695313 C 259.746094 250.445313 264.929688 243.964844 269.925781 243.964844 C 277.75 243.964844 282.441406 253.394531 282.441406 269.726563 C 282.441406 287.425781 276.949219 290.460938 272.519531 290.460938 C 264.65625 290.460938 259.746094 279.066406 259.746094 263.695313 "/>
<path style=" stroke:none;fill-rule:nonzero;fill:rgb(5.099487%,33.299255%,50.59967%);fill-opacity:1;" d="M 325.503906 282.199219 C 325.503906 289.03125 326.101563 289.523438 335.515625 290.335938 L 335.515625 294.148438 L 302.210938 294.148438 L 302.210938 290.335938 C 309.902344 289.523438 310.53125 289.03125 310.53125 282.199219 L 310.53125 255.074219 C 310.53125 247.609375 310.296875 247.515625 302.433594 246.625 L 302.433594 243.324219 C 309.585938 242.316406 317.414063 240.683594 325.503906 238.921875 L 325.503906 251.070313 L 325.746094 251.070313 C 327.308594 248.59375 329.164063 245.671875 331.464844 243.242188 C 333.796875 240.765625 336.488281 238.921875 339.554688 238.921875 C 344.203125 238.921875 347.757813 242.316406 347.757813 246.394531 C 347.757813 250.445313 345.050781 253.996094 341.972656 255.074219 C 340.378906 255.746094 339.191406 255.292969 338.195313 254.578125 C 336.136719 252.929688 334.027344 252.003906 332.089844 252.003906 C 330.019531 252.003906 327.558594 252.929688 325.503906 258.027344 L 325.503906 282.199219 "/>
<path style=" stroke:none;fill-rule:nonzero;fill:rgb(5.099487%,33.299255%,50.59967%);fill-opacity:1;" d="M 372.730469 219.609375 C 372.730469 224.574219 368.816406 228.449219 363.859375 228.449219 C 359.105469 228.449219 354.960938 224.574219 354.960938 219.609375 C 354.960938 214.628906 359.105469 210.714844 363.859375 210.714844 C 368.816406 210.714844 372.730469 214.628906 372.730469 219.609375 M 357.398438 255.074219 C 357.398438 247.609375 357.167969 247.515625 349.339844 246.625 L 349.339844 243.324219 C 356.53125 242.316406 364.636719 240.6875 372.363281 238.921875 L 372.363281 282.046875 C 372.363281 289.03125 372.980469 289.523438 380.765625 290.335938 L 380.765625 294.148438 L 348.976563 294.148438 L 348.976563 290.335938 C 356.808594 289.523438 357.398438 289.03125 357.398438 282.046875 L 357.398438 255.074219 "/>
<path style=" stroke:none;fill-rule:nonzero;fill:rgb(5.099487%,33.299255%,50.59967%);fill-opacity:1;" d="M 429.414063 240.324219 L 430.503906 242.085938 L 402.367188 288.953125 L 412.050781 288.953125 C 420.460938 288.953125 423.742188 287.429688 427.847656 280.46875 L 429.644531 277.425781 L 434.050781 279.066406 C 431.859375 285.140625 430.273438 289.667969 428.414063 294.148438 L 384.265625 294.148438 L 383.046875 292.355469 L 412.050781 245.507813 L 403.449219 245.507813 C 395.363281 245.507813 393.199219 247.363281 390.390625 253.394531 L 388.648438 257.144531 L 384.265625 255.5 C 385.710938 250.867188 387.640625 243.117188 388.773438 237.765625 L 391.484375 237.765625 C 392.101563 239.566406 393.417969 240.324219 398.085938 240.324219 L 429.414063 240.324219 "/>
<path style=" stroke:none;fill-rule:nonzero;fill:rgb(5.099487%,33.299255%,50.59967%);fill-opacity:1;" d="M 478.535156 279.984375 C 473.605469 283.289063 469.8125 284.71875 465.308594 284.71875 C 455.976563 284.71875 447.652344 278.394531 447.652344 264.6875 C 459.8125 264.203125 476.101563 263.074219 477.792969 262.722656 C 480.226563 262.25 480.589844 261.976563 480.589844 257.386719 C 480.589844 247.9375 472.128906 238.960938 461.523438 238.960938 C 446.605469 238.960938 433.417969 252.089844 433.417969 269.726563 C 433.417969 283.4375 442.917969 295.539063 459.429688 295.539063 C 463.695313 295.539063 473.265625 293.074219 480.226563 282.421875 Z M 448.1875 259.179688 C 448.90625 250.867188 453.449219 244.527344 457.960938 244.527344 C 462.605469 244.527344 466.515625 250.945313 466.515625 255.90625 C 466.515625 258.289063 466.039063 258.796875 464.230469 258.796875 L 448.1875 259.179688 "/>
<path style=" stroke:none;fill-rule:nonzero;fill:rgb(5.099487%,33.299255%,50.59967%);fill-opacity:1;" d="M 484.535156 285.960938 C 484.535156 280.449219 488.554688 276.390625 493.792969 276.390625 C 499.140625 276.390625 503.183594 280.449219 503.183594 285.960938 C 503.183594 291.675781 499.140625 295.535156 493.792969 295.535156 C 488.554688 295.535156 484.535156 291.675781 484.535156 285.960938 "/>
<path style=" stroke:none;fill-rule:nonzero;fill:rgb(5.099487%,33.299255%,50.59967%);fill-opacity:1;" d="M 582.121094 295.03125 L 574.671875 295.03125 L 526.058594 235.363281 L 525.800781 235.363281 L 525.800781 260.695313 C 525.800781 273.5625 526.539063 280.339844 527.011719 284.148438 C 527.644531 288.386719 530.707031 289.996094 538.828125 290.335938 L 538.828125 294.148438 L 508.464844 294.148438 L 508.464844 290.335938 C 514.585938 290.101563 517.519531 288.386719 518.089844 284.148438 C 518.636719 280.339844 519.367188 273.5625 519.367188 260.695313 L 519.367188 236.414063 C 519.367188 228.632813 519.367188 225.613281 517.140625 222.707031 C 514.808594 219.734375 511.742188 218.960938 506.75 218.550781 L 506.75 214.710938 L 528.027344 214.710938 L 575.390625 269.789063 L 575.636719 269.789063 L 575.636719 248.199219 C 575.636719 235.363281 574.933594 228.632813 574.425781 224.773438 C 573.804688 220.460938 570.730469 218.960938 562.621094 218.550781 L 562.621094 214.710938 L 592.996094 214.710938 L 592.996094 218.550781 C 586.835938 218.789063 583.941406 220.460938 583.324219 224.773438 C 582.839844 228.632813 582.121094 235.363281 582.121094 248.199219 L 582.121094 295.03125 "/>
<path style=" stroke:none;fill-rule:nonzero;fill:rgb(5.099487%,33.299255%,50.59967%);fill-opacity:1;" d="M 631.378906 279.984375 C 626.441406 283.289063 622.667969 284.71875 618.105469 284.71875 C 608.828125 284.71875 600.519531 278.394531 600.519531 264.6875 C 612.628906 264.203125 628.90625 263.074219 630.621094 262.722656 C 633.0625 262.25 633.417969 261.976563 633.417969 257.386719 C 633.417969 247.9375 624.988281 238.960938 614.34375 238.960938 C 599.425781 238.960938 586.203125 252.089844 586.203125 269.726563 C 586.203125 283.4375 595.765625 295.539063 612.230469 295.539063 C 616.539063 295.539063 626.101563 293.074219 633.0625 282.421875 Z M 601.027344 259.179688 C 601.730469 250.867188 606.269531 244.527344 610.777344 244.527344 C 615.414063 244.527344 619.320313 250.945313 619.320313 255.90625 C 619.320313 258.289063 618.886719 258.796875 617.003906 258.796875 L 601.027344 259.179688 "/>
<path style=" stroke:none;fill-rule:nonzero;fill:rgb(5.099487%,33.299255%,50.59967%);fill-opacity:1;" d="M 657.234375 276.125 C 657.234375 285.507813 661.855469 287.261719 664.097656 287.261719 C 666.007813 287.261719 668.117188 286.621094 670.421875 285.292969 L 672.144531 288.953125 L 661.621094 294.253906 C 659.675781 295.179688 657.882813 295.539063 656.980469 295.539063 C 647.582031 295.539063 642.230469 291.4375 642.230469 280.5625 L 642.230469 246.59375 L 634.46875 246.59375 L 633.609375 245.03125 L 637.53125 240.347656 L 642.230469 240.347656 L 642.230469 232.886719 L 655.132813 223.226563 L 657.234375 224.257813 L 657.234375 240.347656 L 669.332031 240.347656 C 670.933594 241.695313 670.652344 245.59375 668.484375 246.59375 L 657.234375 246.59375 L 657.234375 276.125 "/>
<g clip-path="url(#clip2)" clip-rule="nonzero">
<path style=" stroke:none;fill-rule:nonzero;fill:rgb(5.099487%,33.299255%,50.59967%);fill-opacity:1;" d="M 670.632813 229.449219 L 671.445313 229.449219 C 671.984375 229.449219 672.359375 229.304688 672.558594 229.015625 C 672.773438 228.722656 672.871094 228.402344 672.871094 228.058594 C 672.871094 227.839844 672.835938 227.652344 672.761719 227.472656 C 672.671875 227.304688 672.527344 227.160156 672.378906 227.046875 C 672.210938 226.929688 671.925781 226.875 671.511719 226.875 L 670.632813 226.875 Z M 670.632813 233.40625 L 669.429688 233.40625 L 669.429688 225.964844 L 671.828125 225.964844 C 672.394531 225.964844 672.855469 226.046875 673.148438 226.21875 C 673.441406 226.390625 673.679688 226.628906 673.855469 226.953125 C 674.019531 227.273438 674.113281 227.628906 674.113281 227.988281 C 674.113281 228.429688 673.980469 228.835938 673.769531 229.238281 C 673.507813 229.628906 673.148438 229.933594 672.671875 230.144531 C 672.910156 230.308594 673.195313 230.664063 673.507813 231.222656 L 674.660156 233.40625 L 673.316406 233.40625 L 672.359375 231.570313 L 672.113281 231.105469 C 671.839844 230.609375 671.644531 230.367188 671.511719 230.367188 L 670.632813 230.367188 Z M 671.78125 234.949219 C 672.695313 234.949219 673.566406 234.730469 674.355469 234.277344 C 675.160156 233.835938 675.820313 233.199219 676.285156 232.386719 C 676.757813 231.578125 677.007813 230.695313 676.996094 229.742188 C 676.996094 228.8125 676.757813 227.941406 676.316406 227.132813 C 675.847656 226.316406 675.214844 225.683594 674.394531 225.222656 C 673.566406 224.753906 672.695313 224.523438 671.78125 224.523438 C 670.863281 224.523438 670.007813 224.753906 669.199219 225.222656 C 668.371094 225.683594 667.730469 226.316406 667.277344 227.132813 C 666.8125 227.941406 666.585938 228.8125 666.585938 229.742188 C 666.585938 230.695313 666.8125 231.578125 667.285156 232.386719 C 667.785156 233.199219 668.425781 233.835938 669.230469 234.277344 C 670.007813 234.730469 670.886719 234.949219 671.78125 234.949219 M 671.78125 235.882813 C 670.710938 235.882813 669.695313 235.621094 668.757813 235.089844 C 667.816406 234.558594 667.066406 233.820313 666.488281 232.855469 C 665.917969 231.894531 665.65625 230.855469 665.65625 229.742188 C 665.65625 228.640625 665.917969 227.617188 666.464844 226.652344 C 667.011719 225.707031 667.769531 224.953125 668.738281 224.40625 C 669.671875 223.859375 670.710938 223.585938 671.78125 223.585938 C 672.871094 223.585938 673.902344 223.859375 674.855469 224.40625 C 675.820313 224.953125 676.5625 225.707031 677.105469 226.652344 C 677.664063 227.617188 677.941406 228.640625 677.941406 229.742188 C 677.941406 230.855469 677.652344 231.894531 677.082031 232.855469 C 676.515625 233.820313 675.761719 234.558594 674.820313 235.089844 C 673.875 235.621094 672.863281 235.882813 671.78125 235.882813 "/>
</g>
<path style=" stroke:none;fill-rule:evenodd;fill:rgb(53.69873%,53.69873%,54.098511%);fill-opacity:1;" d="M 423.738281 347.316406 L 423.738281 339.046875 L 415.472656 339.046875 L 415.472656 330.773438 L 407.203125 330.773438 L 407.203125 322.507813 L 398.929688 322.507813 L 398.929688 380.398438 L 407.203125 380.398438 L 407.203125 372.128906 L 415.472656 372.128906 L 415.472656 363.859375 L 423.738281 363.859375 L 423.738281 355.585938 L 432.015625 355.585938 L 432.015625 347.316406 "/>
<path style=" stroke:none;fill-rule:evenodd;fill:rgb(53.69873%,53.69873%,54.098511%);fill-opacity:1;" d="M 254.195313 332.84375 L 274.875 332.84375 L 274.875 324.574219 L 254.195313 324.574219 Z M 254.195313 332.84375 "/>
<path style=" stroke:none;fill-rule:evenodd;fill:rgb(53.69873%,53.69873%,54.098511%);fill-opacity:1;" d="M 328.632813 347.316406 L 345.167969 347.316406 L 345.167969 339.046875 L 328.632813 339.046875 Z M 328.632813 347.316406 "/>
<path style=" stroke:none;fill-rule:evenodd;fill:rgb(53.69873%,53.69873%,54.098511%);fill-opacity:1;" d="M 345.171875 355.585938 L 353.441406 355.585938 L 353.441406 347.316406 L 345.171875 347.316406 Z M 345.171875 355.585938 "/>
<path style=" stroke:none;fill-rule:evenodd;fill:rgb(53.69873%,53.69873%,54.098511%);fill-opacity:1;" d="M 345.171875 370.058594 L 353.441406 370.058594 L 353.441406 361.792969 L 345.171875 361.792969 Z M 345.171875 370.058594 "/>
<path style=" stroke:none;fill-rule:evenodd;fill:rgb(53.69873%,53.69873%,54.098511%);fill-opacity:1;" d="M 328.632813 378.328125 L 345.167969 378.328125 L 345.167969 370.058594 L 328.632813 370.058594 Z M 328.632813 378.328125 "/>
<path style=" stroke:none;fill-rule:evenodd;fill:rgb(53.69873%,53.69873%,54.098511%);fill-opacity:1;" d="M 320.359375 370.058594 L 328.632813 370.058594 L 328.632813 347.316406 L 320.359375 347.316406 Z M 320.359375 370.058594 "/>
<path style=" stroke:none;fill-rule:evenodd;fill:rgb(53.69873%,53.69873%,54.098511%);fill-opacity:1;" d="M 274.875 341.109375 L 283.144531 341.109375 L 283.144531 332.84375 L 274.875 332.84375 Z M 274.875 341.109375 "/>
<path style=" stroke:none;fill-rule:evenodd;fill:rgb(53.69873%,53.69873%,54.098511%);fill-opacity:1;" d="M 384.457031 349.386719 L 392.730469 349.386719 L 392.730469 341.109375 L 384.457031 341.109375 Z M 384.457031 349.386719 "/>
<path style=" stroke:none;fill-rule:evenodd;fill:rgb(53.69873%,53.69873%,54.098511%);fill-opacity:1;" d="M 384.457031 378.328125 L 392.730469 378.328125 L 392.730469 370.058594 L 384.457031 370.058594 Z M 384.457031 378.328125 "/>
<path style=" stroke:none;fill-rule:evenodd;fill:rgb(53.69873%,53.69873%,54.098511%);fill-opacity:1;" d="M 376.1875 355.585938 L 367.921875 355.585938 L 367.921875 324.570313 L 359.644531 324.570313 L 359.644531 378.328125 L 367.921875 378.328125 L 367.921875 363.859375 L 376.1875 363.859375 L 376.1875 370.058594 L 384.457031 370.058594 L 384.457031 349.386719 L 376.1875 349.386719 "/>
<path style=" stroke:none;fill-rule:evenodd;fill:rgb(53.69873%,53.69873%,54.098511%);fill-opacity:1;" d="M 274.875 370.058594 L 283.144531 370.058594 L 283.144531 361.792969 L 274.875 361.792969 Z M 274.875 370.058594 "/>
<path style=" stroke:none;fill-rule:evenodd;fill:rgb(53.69873%,53.69873%,54.098511%);fill-opacity:1;" d="M 254.195313 378.328125 L 274.875 378.328125 L 274.875 370.058594 L 254.195313 370.058594 Z M 254.195313 378.328125 "/>
<path style=" stroke:none;fill-rule:evenodd;fill:rgb(53.69873%,53.69873%,54.098511%);fill-opacity:1;" d="M 245.925781 370.058594 L 254.195313 370.058594 L 254.195313 332.84375 L 245.925781 332.84375 Z M 245.925781 370.058594 "/>
<path style=" stroke:none;fill-rule:evenodd;fill:rgb(53.69873%,53.69873%,54.098511%);fill-opacity:1;" d="M 291.414063 378.328125 L 299.683594 378.328125 L 299.683594 324.570313 L 291.414063 324.570313 Z M 291.414063 378.328125 "/>
<path style=" stroke:none;fill-rule:evenodd;fill:rgb(53.69873%,53.69873%,54.098511%);fill-opacity:1;" d="M 305.886719 378.328125 L 314.15625 378.328125 L 314.15625 339.046875 L 305.886719 339.046875 Z M 305.886719 378.328125 "/>
<path style=" stroke:none;fill-rule:evenodd;fill:rgb(53.69873%,53.69873%,54.098511%);fill-opacity:1;" d="M 305.886719 332.84375 L 314.15625 332.84375 L 314.15625 324.574219 L 305.886719 324.574219 Z M 305.886719 332.84375 "/>
</g>
</svg>
